<?xml version="1.0" encoding="utf-8"?>
<!-- Generator: Adobe Illustrator 17.1.0, SVG Export Plug-In . SVG Version: 6.00 Build 0)  -->
<!DOCTYPE svg PUBLIC "-//W3C//DTD SVG 1.1//EN" "http://www.w3.org/Graphics/SVG/1.1/DTD/svg11.dtd">
<svg version="1.1" id="Capa_1" xmlns="http://www.w3.org/2000/svg" xmlns:xlink="http://www.w3.org/1999/xlink" x="0px" y="0px"
	 width="80px" height="80px" viewBox="2 7 80 80" enable-background="new 2 7 80 80" xml:space="preserve">
<title>Group 8</title>
<desc>Created with Sketch.</desc>
<g id="Arquitectura">
	<g id="Desktop-2" transform="translate(-297.000000, -987.000000)">
		<g id="Group-8" transform="translate(297.000000, 987.000000)">
			<g id="Group-3" transform="translate(0.008850, 0.000000)">
				<g id="Clip-2">
				</g>
				<defs>
					<filter id="Adobe_OpacityMaskFilter" filterUnits="userSpaceOnUse" x="7.2" y="8.4" width="69.3" height="77.5">
						<feColorMatrix  type="matrix" values="1 0 0 0 0  0 1 0 0 0  0 0 1 0 0  0 0 0 1 0"/>
					</filter>
				</defs>
				<mask maskUnits="userSpaceOnUse" x="7.2" y="8.4" width="69.3" height="77.5" id="mask-2">
					<g filter="url(#Adobe_OpacityMaskFilter)">
						<polygon id="path-1" fill="#FFFFFF" points="7.2,8.4 76.5,8.4 76.5,86 7.2,86 						"/>
					</g>
				</mask>
				<path id="Fill-1" mask="url(#mask-2)" fill="#FFFFFF" d="M25.3,45.3c-0.3,2.1,0.3,3.1,1.6,2.9c-0.2-0.9-0.3-1.9-0.5-2.9H25.3z
					 M41.8,62.9c0.7-0.8,1.5-1.7,2.4-2.6h-5C39.9,61,40.8,61.9,41.8,62.9L41.8,62.9z M40.3,51.3c0.6,0,1.3,0,1.9-0.1
					c0.7-0.1,1.1-0.7,1.1-1.4c0-0.7-0.3-1.3-1-1.4c-1.3-0.1-2.6-0.1-3.9,0c-0.7,0.1-1.1,0.7-1,1.5c0,0.7,0.4,1.2,1.1,1.3
					C39.1,51.3,39.7,51.3,40.3,51.3L40.3,51.3z M57.7,42.1c0.1,0,0.2,0.1,0.3,0.1c0.6,0,1.1,0,1.7,0c1.1,0,1.7-0.6,1.7-1.7
					c0-1.5,0-3,0-4.6c0-1.1,0-2.1,0-3.2h-3C58.2,35.9,57.9,39,57.7,42.1L57.7,42.1z M25.2,32.7h-3c0,2.7,0,5.3,0,7.9
					c0,0.8,0.5,1.4,1.3,1.5c0.8,0.1,1.6,0,2.5,0C25.7,39,25.5,35.9,25.2,32.7L25.2,32.7z M33.1,59c-0.1,0.2-0.3,0.5-0.4,0.7
					c-1.4,2.8-1.4,2.8-0.2,5.7c0.7,1.6,1.4,3.2,2.2,4.9c1.7-1.8,3.2-3.4,4.7-5C37.3,63.2,35.3,61.1,33.1,59L33.1,59z M48.9,70.1
					C48.9,70.1,48.9,70.1,48.9,70.1c1.1-2.5,2.2-4.9,3.2-7.3c0.1-0.2,0.1-0.4,0-0.6c-0.6-1.3-1.3-2.5-1.9-3.9
					c-2.2,2.3-4.3,4.6-6.3,6.7C45.6,66.8,47.2,68.5,48.9,70.1L48.9,70.1z M41.8,81.5c1.9-2.8,3.7-5.6,5.5-8.3
					c-1.9-1.9-3.8-3.8-5.7-5.7c-1.7,1.8-3.5,3.7-5.3,5.6C38.1,75.9,40,78.7,41.8,81.5L41.8,81.5z M61.4,29.6
					c-0.8-7-4-12.3-10.1-15.6c-7-3.8-14-3.5-20.7,1c-5.1,3.4-7.7,8.4-8.4,14.5h2.9c0-0.2,0-0.4,0-0.6c0.3-6.5,4.9-12.2,11.1-13.9
					c2.4-0.7,4.8-0.6,7.3-0.5c6.5,0.2,12.1,4.5,14,10.7c0.4,1.4,0.6,2.9,0.9,4.3H61.4z M55.3,31.1c0-0.1,0.1-0.2,0.1-0.2
					c0.5-6.3-3.9-12.1-10.1-13.1c-1.5-0.3-3.1-0.3-4.6-0.2c-6.3,0.1-11,4-12.2,10c0,0.2-0.1,0.5-0.1,0.7c0.1,0,0.1,0.1,0.2,0.1
					c0.1-0.2,0.3-0.4,0.4-0.6c2.5-2.5,5.5-3.9,9.1-4.1c0.9,0,1.5,0.2,2.1,0.8C44.5,28.4,49.5,30.6,55.3,31.1L55.3,31.1z M44.5,82.9
					h28.8c0-0.3,0-0.6,0-0.9c-0.6-4.3-2.4-7.9-5.3-11.1c-3.5-3.9-8.5-4.9-13.2-6.6C52.5,71.1,48.6,76.9,44.5,82.9L44.5,82.9z
					 M28.9,64.2c-1.9,0.6-3.7,1.2-5.5,1.8c-7.2,2.4-11.2,7.5-12.9,14.8c-0.1,0.7-0.2,1.3-0.3,2h28.9C35,76.9,31.1,71.1,28.9,64.2
					L28.9,64.2z M55.3,34.3c-0.2-0.1-0.3-0.1-0.3-0.1c-0.2,0-0.4-0.1-0.6-0.1c-6-0.7-11.3-3-15.8-7c-0.2-0.2-0.5-0.3-0.8-0.3
					c-1.6,0.1-3,0.6-4.4,1.4c-2.2,1.2-3.5,3.3-4.9,5.3c-0.1,0.2-0.2,0.5-0.1,0.8c0.2,2.8,0.4,5.7,0.8,8.5c0.2,1.8,0.6,3.7,0.9,5.5
					h4.4c1-2.1,2.7-3.1,5-3c0.9,0,1.8,0,2.7,0c2.4,0.1,4.2,2.1,4.2,4.6c0,2.4-1.9,4.3-4.3,4.4c-1,0-2,0-3,0c-1.9,0-3.3-0.8-4.3-2.5
					c-0.1-0.2-0.3-0.4-0.5-0.4c-0.8,0-1.7,0-2.6,0c0,0.2,0,0.3,0.1,0.3c2.5,3.7,5.9,5.8,10.5,5.7c6.6-0.2,10.6-5.4,11.6-10.1
					c0.5-2.5,0.8-5.1,1.1-7.6C55.1,37.9,55.2,36.1,55.3,34.3L55.3,34.3z M57.2,45.2c-0.2,0.9-0.3,1.7-0.4,2.5
					c-0.6,2.9-1.9,5.4-3.9,7.6c-0.4,0.4-0.4,0.8-0.2,1.3c0.7,1.2,1.2,2.5,1.9,3.8c0.2,0.4,0.7,0.8,1.1,0.9c1.9,0.7,3.7,1.3,5.6,1.9
					c7.9,2.6,12.5,8.3,14.5,16.2c0.4,1.5,0.5,3.1,0.6,4.7c0.1,1.2-0.5,1.7-1.7,1.8c-0.2,0-0.3,0-0.5,0C52.6,86,31,86,9.4,86
					c-0.2,0-0.3,0-0.5,0c-1.2,0-1.7-0.6-1.7-1.8c0.2-6.3,2.5-11.7,7-16.1c2.3-2.2,4.9-3.8,7.9-4.7c2-0.6,4-1.3,5.9-2
					c0.4-0.1,0.8-0.5,1-0.8c0.7-1.3,1.3-2.6,2-3.8c0.3-0.5,0.2-0.8-0.2-1.3c-0.8-1-1.5-2-2.2-3.1c-0.4-0.7-0.7-1-1.6-1
					c-2.5,0-4.3-1.4-4.7-3.7c-0.1-0.8,0.2-1.7-0.2-2.4c-0.3-0.6-1.2-0.9-1.8-1.5c-0.8-0.8-1.1-1.9-1.1-3.1c0-3.2-0.1-6.3,0-9.5
					c0.3-9.4,4.6-16.3,12.9-20.4c13.6-6.6,29.7,2.1,32,17c0.2,1.2,0.2,2.5,0.2,3.8c0,2.9,0,5.9,0,8.8c0,3-1.8,4.8-4.8,4.9
					C58.8,45.3,58,45.2,57.2,45.2L57.2,45.2z"/>
			</g>
			<path id="Fill-4" fill="#FFFFFF" d="M64.3,71.1c0.2,0.1,0.5,0.2,0.8,0.4c1.6,1.3,3,2.8,4,4.7c0.5,1,0.3,1.8-0.5,2.2
				c-0.8,0.4-1.5,0-2.1-0.9c-0.9-1.3-1.9-2.4-3-3.6c-0.5-0.5-1-1-0.7-1.7C63,71.4,63.5,71.1,64.3,71.1"/>
			<path id="Fill-6" fill="#FFFFFF" d="M60.2,69.4c0,0.9-0.8,1.7-1.7,1.6c-0.9,0-1.6-0.8-1.6-1.7c0-0.9,0.8-1.7,1.7-1.6
				C59.5,67.8,60.2,68.5,60.2,69.4"/>
		</g>
	</g>
</g>
</svg>
