<?xml version="1.0" encoding="utf-8"?>
<!-- Generator: Adobe Illustrator 17.1.0, SVG Export Plug-In . SVG Version: 6.00 Build 0)  -->
<!DOCTYPE svg PUBLIC "-//W3C//DTD SVG 1.1//EN" "http://www.w3.org/Graphics/SVG/1.1/DTD/svg11.dtd">
<svg version="1.1" id="Capa_1" xmlns="http://www.w3.org/2000/svg" xmlns:xlink="http://www.w3.org/1999/xlink" x="0px" y="0px"
	 width="80px" height="80px" viewBox="-13.5 0 80 80" enable-background="new -13.5 0 80 80" xml:space="preserve">
<title>Experiencia</title>
<desc>Created with Sketch.</desc>
<g id="Arquitectura">
	<g id="Mobile-Portrait" transform="translate(-134.000000, -531.000000)">
		<g id="Group-2" transform="translate(43.000000, 505.000000)">
			<g id="Group" transform="translate(6.000000, 0.000000)">
				<g id="Group-3_1_" transform="translate(46.000000, 0.000000)">
					<g id="Experiencia" transform="translate(39.126316, 24.066838)">
						<g id="Group-8">
							<g id="Group-3" transform="translate(0.000000, 0.968532)">
								<g id="Clip-2">
								</g>
								<defs>
									<filter id="Adobe_OpacityMaskFilter" filterUnits="userSpaceOnUse" x="0" y="0.9" width="52.9" height="79.2">
										<feColorMatrix  type="matrix" values="1 0 0 0 0  0 1 0 0 0  0 0 1 0 0  0 0 0 1 0"/>
									</filter>
								</defs>
								<mask maskUnits="userSpaceOnUse" x="0" y="0.9" width="52.9" height="79.2" id="mask-2">
									<g filter="url(#Adobe_OpacityMaskFilter)">
										<polygon id="path-1" fill="#FFFFFF" points="0,0.9 52.9,0.9 52.9,80.1 0,80.1 										"/>
									</g>
								</mask>
								<path id="Fill-1" mask="url(#mask-2)" fill="#FFFFFF" d="M46,42.4c-1,0-1.9,0-2.8,0c-0.9,0-1.5,0.7-1.5,1.5
									c0,0.8,0.6,1.5,1.5,1.5c0.9,0.1,1.9,0,2.9,0V42.4z M44.6,40.1c0.9,0,1.6,0,2.4,0c1,0,1.4,0.4,1.4,1.4c0,0.4,0,0.8,0,1.2v2.5
									c1.4-0.5,2.2-1.6,2.2-3c0-1.3-0.9-2.7-2.1-3.2C47.2,38.5,45.8,38.8,44.6,40.1L44.6,40.1z M36.3,57.2
									c-1.8-0.8-3.6-1.6-5.3-2.3c-1.9,2.3-3.8,4.5-5.7,6.8c2.1,1.3,4.1,2.5,6.2,3.8C33.1,62.7,34.7,60,36.3,57.2L36.3,57.2z
									 M10.8,57.2c1.6,2.8,3.2,5.5,4.8,8.3c2.1-1.3,4.1-2.5,6.2-3.8c-1.9-2.3-3.8-4.5-5.7-6.8C14.3,55.6,12.6,56.4,10.8,57.2
									L10.8,57.2z M7.5,27.4c-0.1,1.5,0.9,2.5,2.4,2.4c2.5-0.1,4.9-0.5,7.4-0.5c5.1,0,10.1,0.1,15.2,0.2c1.6,0,3.2,0.3,4.8,0.3
									c1.4,0.1,2.4-1,2.2-2.4H7.5z M18.4,50.1c0,0.5,0.1,0.8,0,1.2c-0.3,1.9,0.3,3.5,1.7,4.9c1.2,1.2,2.2,2.6,3.4,3.9
									c1.7-2,3.3-3.9,4.9-5.8c0.1-0.1,0.2-0.3,0.2-0.4c0-1.3,0-2.5,0-3.9C25.2,51.1,21.8,51.1,18.4,50.1L18.4,50.1z M19.6,77.8
									h7.9c-0.7-4.3-1.3-8.5-2-12.8c0-0.2-0.1-0.4-0.2-0.5c-0.6-0.4-1.1-0.9-1.7-1c-0.4-0.1-0.9,0.4-1.3,0.6
									c-0.3,0.2-0.7,0.5-0.7,0.8C20.9,69.2,20.2,73.5,19.6,77.8L19.6,77.8z M8.8,58.4c-0.2,0.1-0.3,0.1-0.3,0.2
									c-3.8,2.8-5.8,6.7-6,11.4c-0.1,2.4,0,4.8,0,7.3c0,0.2,0,0.3,0.1,0.5h14.8c0.6-3.8,1.2-7.6,1.8-11.5c-0.2,0-0.2,0.1-0.3,0.1
									c-0.8,0.5-1.6,1-2.4,1.5c-1.2,0.7-1.7,0.6-2.4-0.6C12.2,64.3,10.5,61.4,8.8,58.4L8.8,58.4z M28.1,66.2
									c0.6,4,1.2,7.8,1.8,11.6h14.9c0-2,0-4,0-6c0.1-2.6-0.3-5-1.4-7.4c-0.3-0.7-0.1-1.3,0.5-1.6c0.6-0.3,1.3,0,1.6,0.7
									c0.9,2.1,1.5,4.2,1.5,6.5c0,2.3,0,4.7,0,7v0.8h3.5V46.8c-2.9,1.6-5.9,0.8-8.9,0.8v0.7c0,2.6,0,5.3,0,7.9c0,1.1,0,2,0.9,2.7
									c0.5,0.4,0.4,1.2-0.1,1.6c-0.5,0.4-1.1,0.4-1.6-0.1c-0.3-0.3-0.5-0.6-0.8-0.8c-0.6-0.5-1.1-0.9-1.7-1.4
									c-1.8,3-3.5,6-5.1,8.9c-0.7,1.3-1.2,1.4-2.4,0.6C29.9,67.3,29.1,66.8,28.1,66.2L28.1,66.2z M8.9,32.3
									c-0.6,5.4,1.9,11.1,7.1,14.2c5.1,3.1,11.6,2.7,16.4-0.9c4.7-3.6,6.3-9,5.7-13.3C28.4,31.2,18.6,31.2,8.9,32.3L8.9,32.3z
									 M6.8,17.9c0-2.5,0.5-5,1.6-7.2c0.2-0.4,0.6-0.8,1-0.9c1-0.3,1.6,0.7,1.2,1.7c-0.7,1.6-1.2,3.3-1.3,5c0,0.5,0,0.9,0,1.5
									c1.2,0,2.4,0,3.5,0c0.8,0,1.3,0.5,1.3,1.1c0,0.7-0.5,1.2-1.4,1.2c-1.8,0-3.5,0-5.3,0c-0.7,0-1,0.2-1,0.9c0,1.3,0,2.5,0,3.8
									h34c0-1.4,0-2.8,0-4.2c0-0.5-0.4-0.6-0.8-0.6c-1.8,0-3.6,0-5.3,0c-0.7,0-1.2-0.3-1.4-1c-0.2-0.7,0.4-1.3,1.2-1.3
									c1.2,0,2.4,0,3.6,0c-0.1-4.8-1.8-8.6-5.5-11.7c-0.2,1.1-0.4,2.1-0.6,3.1c-0.3,1.4-0.5,2.8-0.8,4.2c-0.2,0.8-0.7,1.2-1.4,1.1
									c-0.7-0.1-1.1-0.7-0.9-1.5c0.5-2.6,0.9-5.1,1.5-7.7c0.1-0.5,0-0.7-0.5-0.9c-4.1-1.8-8.2-1.8-12.3,0
									c-0.4,0.2-0.5,0.4-0.5,0.9c0.5,2.5,1,5.1,1.5,7.6c0.2,0.9-0.1,1.5-0.8,1.6c-0.8,0.2-1.3-0.3-1.5-1.2
									c-0.4-2.2-0.8-4.5-1.3-6.7c0-0.1-0.1-0.3-0.2-0.6c-0.5,0.5-1,0.9-1.4,1.3c-0.6,0.6-1.3,0.6-1.8,0.2
									c-0.5-0.5-0.5-1.2,0.1-1.8c3.7-3.7,8.3-5.5,13.5-5C33,1.8,38.7,7.3,40,15.1c0.1,0.9,0.2,1.8,0.2,2.7
									c0.4,0.2,0.9,0.3,1.3,0.5c0.9,0.5,1.3,1.3,1.3,2.3c0,1.7,0,3.3,0,5c0,0.5-0.4,0.9-0.6,1.4c-0.1,0.2-0.3,0.5-0.3,0.7
									c0,1.1-0.4,1.9-1,2.8c-0.2,0.3-0.4,0.8-0.4,1.2c0,2.5,0,5.1-0.8,7.5c-1.4,4.2-4,7.4-7.9,9.6c-0.6,0.3-0.8,0.7-0.9,1.4
									c-0.3,1.8,0.5,2.6,2.1,3.1c2.1,0.8,4.2,1.8,6.3,2.8v-0.8c0-3.7,0-7.4,0-11.1c0-1.6,0.7-2.8,2.1-3.6c0.2-0.1,0.4-0.4,0.5-0.6
									c1.1-2.5,3.8-3.9,6.3-3.4c2.7,0.6,4.6,2.8,4.6,5.7c0,3.6,0,7.3,0,10.9v25.2c0,1.4-0.3,1.8-1.8,1.8H2.4
									c-1.8,0-2.4-0.5-2.4-2.3c0-2.5-0.1-4.9,0-7.4c0.2-7,3.5-12.1,9.7-15.3c1.9-1,3.8-1.7,5.8-2.5c0.4-0.2,0.5-0.4,0.6-0.8
									c0.2-1.7-0.4-2.7-1.9-3.8c-5-3.2-7.5-8-7.7-14c0-0.4,0-0.7,0-1.1c0.1-1.1,0.1-2.3-0.8-3.1c-0.2-0.2-0.3-0.5-0.4-0.8
									c-0.2-1-0.2-2-1-2.8c-0.1-0.1-0.1-0.5-0.1-0.7c0-1.4,0.1-2.7,0-4.1C4.1,19.6,4.8,18.3,6.8,17.9L6.8,17.9z"/>
							</g>
							<path id="Fill-4" fill="#FFFFFF" d="M23.6,22.5c1.4,0,2.4-1.1,2.4-2.5c0-1.4-1.1-2.4-2.5-2.4c-1.4,0-2.5,1.1-2.5,2.5
								C21.1,21.4,22.2,22.5,23.6,22.5 M23.5,24.8c-2.7,0-4.8-2.1-4.8-4.8c0-2.6,2.2-4.7,4.8-4.7c2.7,0,4.8,2.1,4.8,4.8
								C28.3,22.7,26.2,24.8,23.5,24.8"/>
							<path id="Fill-6" fill="#FFFFFF" d="M37.5,74.3c1.3,0,2.6,0,3.9,0c0.9,0,1.4,0.4,1.4,1.1c0,0.7-0.5,1.2-1.4,1.2
								c-2.7,0-5.3,0-8,0c-0.9,0-1.4-0.5-1.4-1.2c0-0.7,0.6-1.1,1.4-1.1C34.8,74.3,36.1,74.3,37.5,74.3"/>
						</g>
					</g>
				</g>
			</g>
		</g>
	</g>
</g>
</svg>
