<?xml version="1.0" encoding="utf-8"?>
<!-- Generator: Adobe Illustrator 17.1.0, SVG Export Plug-In . SVG Version: 6.00 Build 0)  -->
<!DOCTYPE svg PUBLIC "-//W3C//DTD SVG 1.1//EN" "http://www.w3.org/Graphics/SVG/1.1/DTD/svg11.dtd">
<svg version="1.1" id="Capa_1" xmlns="http://www.w3.org/2000/svg" xmlns:xlink="http://www.w3.org/1999/xlink" x="0px" y="0px"
	 width="80px" height="80px" viewBox="11.5 -2.5 80 80" enable-background="new 11.5 -2.5 80 80" xml:space="preserve">
<title>Certificaciones</title>
<desc>Created with Sketch.</desc>
<g id="Arquitectura">
	<g id="Desktop-2" transform="translate(-668.000000, -1006.000000)">
		<g id="Group-2" transform="translate(172.000000, 954.000000)">
			<g id="Certificaciones" transform="translate(502.000000, 48.000000)">
				<g id="Group-18" transform="translate(-6.446154, 3.482143)">
					<g id="Group-3" transform="translate(0.446154, 0.517857)">
						<g id="Clip-2">
						</g>
						<defs>
							<filter id="Adobe_OpacityMaskFilter" filterUnits="userSpaceOnUse" x="12.1" y="9" width="78.6" height="57.2">
								<feColorMatrix  type="matrix" values="1 0 0 0 0  0 1 0 0 0  0 0 1 0 0  0 0 0 1 0"/>
							</filter>
						</defs>
						<mask maskUnits="userSpaceOnUse" x="12.1" y="9" width="78.6" height="57.2" id="mask-2">
							<g filter="url(#Adobe_OpacityMaskFilter)">
								<polygon id="path-1" fill="#FFFFFF" points="12.1,9 90.8,9 90.8,66.2 12.1,66.2 								"/>
							</g>
						</mask>
						<path id="Fill-1" mask="url(#mask-2)" fill="#FEFEFE" d="M82.7,53.5V12.2H20.2v41.3h1.1c6.1,0,12.3,0,18.4,0
							c0.6,0,1.2,0,1.8,0c1.1,0.1,1.6,0.6,1.6,1.7c0,0.7,0,1.5,0,2.2h16.5c0-0.4,0-0.8,0-1.2c0-0.4,0-0.8,0-1.1
							c0-0.9,0.5-1.5,1.3-1.5c2.4,0,4.7,0,7.1,0c0.8,0,1.3,0.7,1.3,1.5c0,0.8-0.5,1.4-1.3,1.5c-0.3,0-0.7,0-1.1,0
							c-1.4,0-2.8,0-4.3,0c0,0.8,0,1.4,0,2c0,1.4-0.6,2-1.9,2c-6.3,0-12.6,0-18.9,0c-1.3,0-1.9-0.6-1.9-2c0-0.7,0-1.3,0-2H16
							c0.2,0.4,0.3,0.7,0.5,0.9c2.5,3.7,5.9,5.5,10.3,5.5c16.4,0,32.8,0,49.3,0c2.9,0,5.5-0.8,7.7-2.7c1.3-1,2.3-2.2,3.1-3.9
							c-2.2,0-4.3,0-6.4,0c-1.1,0-1.7-0.6-1.7-1.5c0-1,0.6-1.6,1.7-1.6C81.2,53.5,81.9,53.5,82.7,53.5L82.7,53.5z M85.9,53.5
							c1,0,1.9,0,2.8,0c1.9,0,2.4,0.8,1.8,2.6c-2.1,5.8-7.6,10.1-14.4,10.1c-16.4,0-32.9,0-49.3,0c-6.8,0-12.3-4.3-14.4-10
							c-0.6-1.8-0.1-2.6,1.8-2.6c0.9,0,1.8,0,2.8,0v-1.2c0-13.7,0-27.3,0-41c0-1.9,0.4-2.3,2.3-2.3c21.4,0,42.8,0,64.3,0
							c1.8,0,2.3,0.4,2.3,2.3v41V53.5z"/>
					</g>
					<path id="Fill-4" fill="#FEFEFE" d="M30.2,44.4c-1.5,0-2.8,0-4.2,0c-0.2,0-0.5,0.2-0.5,0.3c0,1.2,0,2.3,0,3.5h4.6V44.4z
						 M71.2,27.9v6.7h7V28c-0.2,0-0.3,0-0.5,0C75.6,27.9,73.5,27.9,71.2,27.9L71.2,27.9z M71.2,24.8h7v-7.6h-7V24.8z M30.2,41.3
						V17.1h-4.6v1.1v22c0,0.2,0,0.4,0,0.6c0,0.6,0.3,0.6,0.8,0.4c0-1.8,0-3.7,0-5.5c0-1.1,0.6-1.7,1.5-1.7c0.9,0,1.5,0.6,1.5,1.7
						c0,1.7,0,3.4,0,5.2c0,0.1,0.1,0.3,0.1,0.4H30.2z M33.4,48.3h44.9V37.8c-2.7,0-5.4,0-8.1,0c-1.6,0-2.1-0.5-2.1-2.1
						c0-5.8,0-11.6,0-17.5v-1H33.4V48.3z M52,51.4c-9.1,0-18.2,0-27.3,0c-1.8,0-2.2-0.4-2.2-2.2c0-11,0-22.1,0-33.1
						c0-1.6,0.5-2.1,2.1-2.1c18.2,0,36.4,0,54.5,0c1.7,0,2.2,0.5,2.2,2.2c0,11,0,22.1,0,33.1c0,1.7-0.4,2.1-2.2,2.1
						C70.1,51.4,61.1,51.4,52,51.4L52,51.4z"/>
					<path id="Fill-6" fill="#FEFEFE" d="M51.5,56.7c-0.9,0-1.9,0-2.8,0c-1,0-1.7-0.7-1.7-1.5c0-0.8,0.7-1.5,1.6-1.5
						c2,0,3.9,0,5.9,0c1,0,1.6,0.6,1.6,1.5c0,0.9-0.7,1.5-1.8,1.5C53.4,56.8,52.5,56.7,51.5,56.7"/>
					<path id="Fill-8" fill="#FEFEFE" d="M74,56.8c-1,0-1.8-0.6-1.8-1.5c0-0.9,0.8-1.6,1.9-1.6c1,0,1.9,0.7,1.9,1.5
						C76,56,75.1,56.8,74,56.8"/>
					<path id="Fill-10" fill="#FEFEFE" d="M62.2,28.3c0-2.8-2.3-5.1-5.1-5.1c-2.8,0-5,2.3-5,5.1c0,2.8,2.2,5,5,5
						C59.9,33.3,62.2,31.1,62.2,28.3L62.2,28.3z M54.3,42.1c0-1.8,0-3.6,0-5.4c0-0.5-0.1-0.8-0.7-1.1c-1.3-0.5-2.6-1.4-3.2-2.7
						c-0.8-1.9-2.2-2.1-3.9-1.9c-1.1,0.1-2.2,0-3.3,0v11H54.3z M57.4,36.5c0,2.3,0,4.5,0,6.8c0,1.5-0.5,2-2,2c-4.4,0-8.8,0-13.3,0
						c-1.4,0-2-0.6-2-2.1c0-4.4,0-8.8,0-13.3c0-1.5,0.5-2,2-2c2.2,0,4.5,0,6.8,0c0.3-2.6,1.3-4.8,3.5-6.4c1.8-1.3,3.8-1.7,6-1.4
						c3.5,0.5,6.7,3.3,7,7.6c0.2,2.3-0.6,4.3-2.2,6C61.6,35.5,59.7,36.3,57.4,36.5L57.4,36.5z"/>
					<path id="Fill-12" fill="#FEFEFE" d="M29.4,20c0,0.8-0.9,1.5-1.9,1.6c-1,0-1.9-0.6-1.9-1.5c0-0.9,0.7-1.5,1.8-1.6
						C28.4,18.5,29.4,19.2,29.4,20"/>
					<path id="Fill-14" fill="#FEFEFE" d="M29.4,29.2c0,0.9-0.9,1.6-2,1.5c-1,0-1.8-0.7-1.8-1.5c0-0.9,0.8-1.6,2-1.5
						C28.6,27.7,29.4,28.4,29.4,29.2"/>
					<path id="Fill-16" fill="#FEFEFE" d="M27.5,23.9c1,0,1.9,0.7,1.9,1.5c0,0.8-0.9,1.5-1.9,1.5c-1.1,0-1.8-0.6-1.9-1.4
						C25.5,24.6,26.3,23.9,27.5,23.9"/>
				</g>
			</g>
		</g>
	</g>
</g>
</svg>
