<?xml version="1.0" encoding="UTF-8"?>
<svg width="103px" height="105px" viewBox="0 0 103 105" version="1.1" xmlns="http://www.w3.org/2000/svg" xmlns:xlink="http://www.w3.org/1999/xlink">
    <!-- Generator: Sketch 53.2 (72643) - https://sketchapp.com -->
    <title>Inspiracion</title>
    <desc>Created with Sketch.</desc>
    <defs>
        <polygon id="path-1" points="0 0.420875 18.6271333 0.420875 18.6271333 36.7642406 0 36.7642406"></polygon>
        <polygon id="path-3" points="0.269911504 104 103.269912 104 103.269912 1 0.269911504 1"></polygon>
    </defs>
    <g id="Arquitectura" stroke="none" stroke-width="1" fill="none" fill-rule="evenodd">
        <g id="Desktop-2" transform="translate(-1049.000000, -985.000000)">
            <g id="Group-2" transform="translate(172.000000, 954.000000)">
                <g id="Group-Copy-2" transform="translate(845.000000, 0.406986)">
                    <g id="Inspiracion" transform="translate(39.000000, 32.000000)">
                        <g id="Group-19" transform="translate(-7.269912, -1.000000)">
                            <path d="M64.8619286,62.6448481 L64.8619286,61.4192933 C64.8623831,57.0693982 64.8614742,52.7195032 64.863292,48.3696081 C64.8651099,43.9423144 61.5475229,40.5560095 57.1392223,40.4836486 C56.6106807,40.475405 56.0694141,40.5129593 55.5558698,40.4144936 C53.9875147,40.1126847 53.5289605,38.7529418 54.5460509,37.5131896 C54.8828087,37.1023815 55.2531968,36.7144723 55.5504163,36.2761853 C56.6974833,34.581201 56.6115897,32.3412202 55.3604503,30.6095974 C54.1184003,28.8917141 51.9660589,28.1255133 49.9255157,28.6755474 C47.9904081,29.1967288 46.4315966,31.0684935 46.2207253,33.0002536 C46.0312139,34.7373722 46.6465581,36.1314636 47.8213475,37.3354933 C48.3839739,37.9120903 48.8875199,38.632493 48.3407998,39.34511 C47.9363268,39.8731611 47.1905515,40.1882514 46.5383957,40.45159 C46.1452843,40.6095931 45.6408293,40.4813587 45.1863653,40.4914343 C41.0262021,40.5811984 37.6763482,44.0325365 37.6736214,48.2377098 C37.6704401,52.6256172 37.672258,57.0135247 37.6768026,61.4014321 C37.6768026,61.8053705 37.7113419,62.209767 37.7295204,62.6127895 L41.0925539,62.6127895 L41.0925539,45.6492062 L44.5101229,45.6492062 L44.5101229,86.5097336 L49.5710338,86.5097336 L49.5710338,62.7602591 L52.9527002,62.7602591 L52.9527002,86.4730952 L58.1313172,86.4730952 L58.1313172,45.6395887 L61.5120747,45.6395887 L61.5120747,62.6448481 L64.8619286,62.6448481 Z M59.1079603,37.1724524 C63.6798678,38.2143572 66.6343381,41.0162795 67.9118364,45.5594421 C68.1458853,46.390676 68.2458674,47.2851112 68.251321,48.1516096 C68.2813156,53.3006799 68.2667727,58.4497503 68.2635915,63.5988207 C68.2626826,65.5333286 67.6855133,66.1140474 65.7585861,66.123207 C64.3688352,66.1296187 62.9790844,66.124581 61.4748086,66.124581 L61.4748086,67.4710425 C61.4748086,74.1841149 61.476172,80.8971874 61.4738997,87.6098018 C61.4734453,89.4623314 60.9521751,89.9954202 59.1279567,89.9967941 C53.8670817,90.000916 48.6057523,90.0013739 43.3448773,89.9963362 C41.6056437,89.9949622 41.0621048,89.4353105 41.0611958,87.6620115 C41.0584691,80.9493971 41.0598324,74.2363246 41.0598324,67.5232522 L41.0598324,66.124581 C39.5610103,66.124581 38.1376291,66.1319086 36.7151569,66.122749 C34.8732144,66.1108416 34.2728675,65.5040179 34.2715041,63.6519463 C34.2683228,58.8083487 34.2710496,53.9638351 34.2701407,49.1202375 C34.2687773,42.8335445 37.368676,38.7666812 43.4480406,37.1559651 C42.0378389,32.7813391 42.8108821,28.9805622 46.7997124,26.3984703 C49.9327871,24.3705344 53.2131081,24.6091421 56.2761952,26.7190564 C59.3606422,28.8436261 60.1777685,32.0050628 59.1079603,37.1724524 L59.1079603,37.1724524 Z" id="Fill-1" fill="#FEFEFE"></path>
                            <path d="M38.6763265,80.0013784 C38.198631,81.0191921 37.7518887,81.9693951 37.3069943,82.9164004 C26.8231024,78.6866263 15.8818425,66.0210589 17.4142564,48.9799892 C18.8967757,32.4953365 32.4861503,19.2971072 48.9278384,18.097019 C66.0112278,16.8498775 81.2281859,27.7434075 85.2738141,44.0243147 C89.3434657,60.401156 80.53428,76.6117117 66.2962743,83 C65.8315145,82.0379194 65.3649067,81.0699 64.8497901,80.0041194 C73.6954728,75.6062324 79.5128247,68.8008597 81.9202438,59.304311 C83.5524471,52.8648579 82.9652605,46.5642806 80.4737596,40.4213092 C75.5429625,28.2646487 62.902511,20.5712016 49.4207795,21.5168364 C36.0055743,22.4574461 24.6790165,32.0933275 21.5342647,45.1613606 C18.4176942,58.1069638 24.3607068,73.1832146 38.6763265,80.0013784" id="Fill-3" fill="#FEFEFE"></path>
                            <path d="M99.3522838,72 C98.3052243,71.5699563 97.324674,71.167049 96.4674432,70.8147351 C103.807945,48.0265567 98.9315201,28.855805 80.038724,13.6662924 C61.1791825,1.13201239 42.259136,1.47696725 23.1594221,13.3240972 C23.0767473,13.2325691 22.8818381,13.0495131 22.7266498,12.8374808 C22.2319869,12.1641289 21.7525658,11.4797385 21.2699115,10.8027071 C38.0427239,-1.75732957 64.007213,-3.13898879 83.3591081,11.888625 C102.312409,26.6071592 107.943991,51.845897 99.3522838,72" id="Fill-5" fill="#FEFEFE"></path>
                            <path d="M2.17296603,39 C3.21245078,39.2822506 4.25651475,39.5654222 5.19388272,39.8195859 C0.971834541,60.2277344 5.98929461,77.6370274 22.4731415,90.4248691 C38.6249943,102.955324 56.3745398,103.579222 74.7441127,94.7350619 C75.2056989,95.5638566 75.7378052,96.5178914 76.2699115,97.4714658 C61.8975466,106.095535 39.0984865,107.413319 21.0064148,93.8164811 C1.45036386,79.1191885 -2.79458045,55.5059068 2.17296603,39" id="Fill-7" fill="#FEFEFE"></path>
                            <g id="Group-11" transform="translate(0.269912, 0.000000)">
                                <mask id="mask-2" fill="white">
                                    <use xlink:href="#path-1"></use>
                                </mask>
                                <g id="Clip-10"></g>
                                <path d="M15.1476143,21.1394875 C15.169781,20.781975 15.2005429,20.5165 15.2009952,20.2505625 C15.2028048,17.8612875 15.2281381,15.4710875 15.1838048,13.082275 C15.1652571,12.081425 14.5504714,11.5796125 13.5728762,11.5268875 C12.8241857,11.48665 12.0528762,11.5181 11.3354,11.3372625 C10.1791143,11.045425 9.79459048,9.7555125 10.5061857,8.7787125 C10.7074952,8.503525 10.9829952,8.2866125 11.2087333,8.0294625 C11.9936143,7.1349875 12.0519714,5.8908625 11.3616381,4.960775 C10.6210905,3.963625 9.3571381,3.656525 8.2171381,4.1958 C7.18028095,4.68605 6.51437619,5.9038125 6.88035238,6.9518375 C7.08347143,7.5327375 7.57294762,8.0220625 7.98009048,8.5123125 C8.93823333,9.667175 8.51254286,11.108325 7.06130476,11.41635 C6.48044762,11.539375 5.86475714,11.498675 5.26444762,11.5231875 C3.9991381,11.5736 3.43275714,12.1508 3.42054286,13.4656875 C3.40561429,15.122825 3.41692381,16.7799625 3.41692381,18.4375625 C3.41647143,19.3412875 3.41692381,20.245475 3.41692381,21.21395 C3.90549524,21.21395 4.20361429,21.2097875 4.50128095,21.214875 C6.32618571,21.2449375 6.80480476,21.749525 6.80661429,23.6490125 C6.80751905,25.3833875 6.80661429,27.1177625 6.80661429,28.8521375 L6.80661429,33.2024125 L11.823519,33.2024125 C11.823519,30.1166125 11.8737333,27.1131375 11.8063286,24.1124375 C11.7615429,22.0927 12.1510429,20.9757625 14.599781,21.2060875 C14.742281,21.2190375 14.8906619,21.172325 15.1476143,21.1394875 M3.65532857,8.20475 C2.9826381,5.3312375 3.7471619,3.0261375 6.08099524,1.473525 C8.22301905,0.0481 10.5450905,0.0744625 12.6685667,1.527175 C14.9549,3.0918125 15.6189952,5.3978375 15.036781,8.005875 C15.8768524,8.6547625 16.8888286,9.1228125 17.4140429,9.9238625 C18.0283762,10.862275 18.4848286,12.0763375 18.5427333,13.19605 C18.6947333,16.1537375 18.5952095,19.1253 18.5943048,22.09085 C18.5934,24.18505 18.1776619,24.6082375 16.0736381,24.6702125 C15.8510667,24.6766875 15.6284952,24.7007375 15.272019,24.726175 C15.2516619,25.149825 15.2163762,25.5526625 15.2154714,25.9559625 C15.2109476,28.8447375 15.2199952,31.733975 15.2104952,34.62275 C15.2050667,36.1143125 14.6309952,36.7294375 13.1594,36.7442375 C10.598019,36.7706 8.03528095,36.771525 5.4739,36.7433125 C4.01587619,36.7275875 3.42642381,36.0893375 3.42280476,34.6139625 C3.41556667,31.3464 3.42054286,28.0788375 3.42054286,24.748375 C2.7451381,24.6933375 2.15342381,24.67345 1.57030476,24.591125 C0.561495238,24.448675 0.0385428571,23.821525 0.0353761905,22.7878375 C0.0254238095,19.4754125 -0.0537428571,16.1592875 0.0625190476,12.851025 C0.143495238,10.551475 1.48932857,9.0469625 3.65532857,8.20475" id="Fill-9" fill="#FEFEFE" mask="url(#mask-2)"></path>
                            </g>
                            <path d="M91.3659026,100.477287 C91.3659026,97.8159422 91.3649812,95.2078242 91.3663633,92.600169 C91.3677454,90.4794243 91.7211059,90.0799911 93.7882879,90.050832 C94.4890198,90.0406495 94.8327055,89.9013339 94.8175022,89.0945992 C94.7732746,86.7456731 94.819345,84.3948955 94.794467,82.0455065 C94.7806458,80.7389019 94.2102934,80.1492404 92.9304558,80.0247358 C92.5881522,79.9914111 92.2398594,79.9974281 91.895713,80.0113133 C90.9604825,80.0483408 90.1261462,79.8932885 89.7096692,78.9055824 C89.2927314,77.9164878 89.9275825,77.3286777 90.52742,76.71032 C91.5898051,75.6152344 91.6142224,74.2355006 90.6135718,73.2269666 C89.6179889,72.2225982 87.8898856,72.2401862 86.8860101,73.2649197 C85.8816738,74.2901161 85.936037,75.6032005 87.0306713,76.7422561 C87.110834,76.8251049 87.2416741,76.8875887 87.2725413,76.9843228 C87.4715657,77.5975892 87.8668504,78.251123 87.7811593,78.8287505 C87.656769,79.6678841 86.9044382,80.0228844 86.0406169,80.0029822 C85.6960098,79.994651 85.3504813,79.9997423 85.0054135,80.0089991 C83.3021882,80.0548206 82.7295322,80.6278197 82.7217003,82.3222864 C82.7129469,84.4027639 82.779749,86.4855555 82.6959008,88.5618674 C82.6498303,89.6837978 82.8930824,90.1406235 84.1263889,90.0716599 C85.6315112,89.9874226 86.146579,90.6233683 86.1553324,92.1808336 C86.1650072,93.8757632 86.1576359,95.5706928 86.1580966,97.2656223 L86.1580966,100.477287 L91.3659026,100.477287 Z M82.7097219,93.5702871 C78.8347347,93.4434682 79.2917537,92.5117661 79.2820789,89.8457927 C79.2724041,87.3020099 79.291293,84.758227 79.2770112,82.2144441 C79.2627293,79.8391359 80.2048705,78.07154 82.3674183,76.9755288 C82.6360092,76.8394531 82.876497,76.2539572 82.8221339,75.9285788 C82.261917,72.5882439 84.4737602,70.1458235 86.7109423,69.3613053 C89.5304551,68.3726735 92.731892,69.4515596 94.0052798,72.1244756 C94.6461201,73.4685705 94.6700767,75.1102731 95.0340334,76.9213762 C97.5273673,77.871592 98.3764461,80.1649771 98.2594271,83.1021762 C98.1585327,85.6422563 98.2396168,88.1892791 98.2382346,90.733062 C98.2368525,93.0338525 97.895931,93.38515 95.5864184,93.4869754 C95.3662015,93.4966951 95.1469061,93.5374253 94.8124345,93.5776926 C94.8124345,96.1561886 94.8128952,98.6916404 94.8124345,101.227092 C94.8115131,103.542231 94.3595617,103.997668 92.0592632,103.998131 C89.7575825,103.999056 87.4554411,104.002296 85.1537604,103.997205 C83.2639497,103.993502 82.7134076,103.427909 82.7106433,101.493689 C82.7069577,98.8790916 82.7097219,96.2644938 82.7097219,93.5702871 L82.7097219,93.5702871 Z" id="Fill-12" fill="#FEFEFE"></path>
                            <mask id="mask-4" fill="white">
                                <use xlink:href="#path-3"></use>
                            </mask>
                            <g id="Clip-15"></g>
                            <polygon id="Fill-14" fill="#FEFEFE" mask="url(#mask-4)" points="100.269912 4 103.269912 4 103.269912 1 100.269912 1"></polygon>
                            <polygon id="Fill-16" fill="#FEFEFE" mask="url(#mask-4)" points="0.269911504 103 3.2699115 103 3.2699115 100 0.269911504 100"></polygon>
                            <path d="M95.2699115,9 L95.2699115,6.0078566 C96.131161,6.0078566 96.9646545,5.97885092 97.7936582,6.03230425 C97.9593773,6.04307779 98.2279565,6.3596541 98.2402017,6.54943414 C98.2908155,7.33465942 98.2614268,8.12527147 98.2614268,9 L95.2699115,9 Z" id="Fill-17" fill="#FEFEFE" mask="url(#mask-4)"></path>
                            <path d="M8.2699115,97.9895564 C7.43450158,97.9895564 6.62221719,98.0258284 5.81736601,97.9631768 C5.62534149,97.9483382 5.3214059,97.6152951 5.30488766,97.4100285 C5.24418313,96.6367749 5.28093621,95.8565143 5.28093621,95 L8.2699115,95 L8.2699115,97.9895564 Z" id="Fill-18" fill="#FEFEFE" mask="url(#mask-4)"></path>
                        </g>
                    </g>
                </g>
            </g>
        </g>
    </g>
</svg>