<?xml version="1.0" encoding="utf-8"?>
<!-- Generator: Adobe Illustrator 17.1.0, SVG Export Plug-In . SVG Version: 6.00 Build 0)  -->
<!DOCTYPE svg PUBLIC "-//W3C//DTD SVG 1.1//EN" "http://www.w3.org/Graphics/SVG/1.1/DTD/svg11.dtd">
<svg version="1.1" id="Capa_1" xmlns="http://www.w3.org/2000/svg" xmlns:xlink="http://www.w3.org/1999/xlink" x="0px" y="0px"
	 width="80px" height="80px" viewBox="9 9.5 80 80" enable-background="new 9 9.5 80 80" xml:space="preserve">
<title>Group 6</title>
<desc>Created with Sketch.</desc>
<g id="Arquitectura">
	<g id="Desktop-2" transform="translate(-657.000000, -952.000000)">
		<g id="Group-6" transform="translate(657.000000, 952.000000)">
			<g id="Group-3" transform="translate(0.443820, 0.000000)">
				<g id="Clip-2">
				</g>
				<defs>
					<filter id="Adobe_OpacityMaskFilter" filterUnits="userSpaceOnUse" x="10.1" y="10.5" width="76.7" height="78.3">
						<feColorMatrix  type="matrix" values="1 0 0 0 0  0 1 0 0 0  0 0 1 0 0  0 0 0 1 0"/>
					</filter>
				</defs>
				<mask maskUnits="userSpaceOnUse" x="10.1" y="10.5" width="76.7" height="78.3" id="mask-2">
					<g filter="url(#Adobe_OpacityMaskFilter)">
						<polygon id="path-1" fill="#FFFFFF" points="10.1,10.5 86.8,10.5 86.8,88.7 10.1,88.7 						"/>
					</g>
				</mask>
				<path id="Fill-1" mask="url(#mask-2)" fill="#FFFFFF" d="M48.5,13.5c9.4,0,18.4,3.7,25,10.3c6.6,6.6,10.3,15.6,10.3,25
					c0,19.6-15.9,35.5-35.4,35.5c-4.2,0-8.3-0.8-12.2-2.2C35.9,82,35.6,82,35.3,82l-18.7,3.3l5.1-11.9c0.2-0.5,0.1-1.1-0.2-1.6
					c-2.6-3-4.6-6.4-6-10c-1.6-4.1-2.4-8.5-2.4-12.9C13.1,29.4,29,13.5,48.5,13.5 M18.6,73.1l-5.8,13.6c-0.2,0.5-0.2,1,0.1,1.4
					c0.3,0.4,0.7,0.7,1.3,0.7c0.1,0,0.2,0,0.3,0l21-3.7c4.1,1.5,8.5,2.3,12.9,2.3c21.2,0,38.4-17.3,38.4-38.5
					c0-10.2-4-19.9-11.2-27.1c-7.2-7.2-16.9-11.2-27.1-11.2c-21.2,0-38.4,17.3-38.4,38.5c0,4.8,0.9,9.5,2.6,14
					C14.1,66.6,16.1,70,18.6,73.1"/>
			</g>
			<g id="Clip-5">
			</g>
			<defs>
				<filter id="Adobe_OpacityMaskFilter_1_" filterUnits="userSpaceOnUse" x="25.6" y="26.9" width="46.7" height="45.2">
					<feColorMatrix  type="matrix" values="1 0 0 0 0  0 1 0 0 0  0 0 1 0 0  0 0 0 1 0"/>
				</filter>
			</defs>
			<mask maskUnits="userSpaceOnUse" x="25.6" y="26.9" width="46.7" height="45.2" id="mask-4">
				<g filter="url(#Adobe_OpacityMaskFilter_1_)">
					<polygon id="path-3" fill="#FFFFFF" points="10.5,88.7 87.4,88.7 87.4,10.3 10.5,10.3 					"/>
				</g>
			</mask>
			<path id="Fill-4" mask="url(#mask-4)" fill="#FFFFFF" d="M28.6,69.1h7V39.9h-7V69.1z M39.6,43.2c0.4-0.2,0.8-0.4,1.2-0.6
				c1.5-0.6,2.5-2,2.8-3.6l0.3-1.7c0.4-2.4,0.3-4.9-0.2-7.4h1.8c1.9,0,3.6,1.3,4,3.2c0.1,0.3,0.1,0.6,0.1,0.8v5.5
				c0,0.8,0.7,1.6,1.5,1.6h15.8c1.3,0,2.4,1,2.5,2.3c0,0.6-0.3,1.2-0.7,1.7c-0.4,0.4-1.1,0.7-1.7,0.7h-5.4c-0.4,0-0.8,0.1-1.1,0.4
				c-0.3,0.3-0.4,0.7-0.4,1.1c0,0.8,0.7,1.5,1.5,1.5h3.8c1.3,0,2.4,1.1,2.4,2.4c0,1.3-1.1,2.4-2.4,2.4h-4.9c-0.6,0-1.2,0.4-1.4,0.9
				c-0.1,0.2-0.1,0.4-0.1,0.6c0,0.2,0,0.4,0.1,0.6c0.2,0.6,0.8,0.9,1.4,0.9h3.9c1.4,0,2.5,1.1,2.5,2.4s-1.1,2.4-2.5,2.4h-5
				c-0.8,0-1.5,0.7-1.5,1.5c0,0.8,0.7,1.5,1.5,1.5h3.6c1.3,0,2.4,1.1,2.4,2.4c0,1.3-1.1,2.4-2.4,2.4H48.7c-3.2,0-6.3-0.8-9.1-2.2
				l-1-0.5V43.7L39.6,43.2z M27.1,72.1h10c0.4,0,0.8-0.2,1.1-0.4c0.3-0.3,0.4-0.7,0.4-1.1v-0.9c3.2,1.5,6.6,2.4,10.2,2.4h14.1
				c2,0,3.9-1.1,4.8-3c0.9-1.8,0.7-4-0.5-5.6c1.3-0.8,2.2-2.2,2.5-3.7c0.2-1.5-0.2-3.1-1.2-4.3c1.2-0.8,1.9-2.1,2.2-3.5
				c0.2-1.4-0.1-2.9-1-4c0.4-0.2,0.7-0.5,1-0.8c1-1,1.6-2.3,1.6-3.8c0-3-2.5-5.3-5.5-5.3H52.5v-4c0-0.5-0.1-1-0.2-1.5
				c-0.7-3.3-3.6-5.6-6.9-5.6h-3.7c-0.5,0-0.9,0.2-1.2,0.5c-0.3,0.4-0.4,0.8-0.3,1.3l0.3,1.3c0.5,2.2,0.5,4.5,0.2,6.8l-0.2,1.7
				c-0.1,0.6-0.5,1.1-1,1.3c-0.3,0.1-0.6,0.3-1,0.5v-1.9c0-0.4-0.1-0.8-0.4-1.1c-0.3-0.3-0.7-0.4-1.1-0.4h-10
				c-0.8,0-1.5,0.7-1.5,1.5v32.2c0,0.4,0.2,0.8,0.4,1.1C26.3,72,26.7,72.1,27.1,72.1L27.1,72.1z"/>
		</g>
	</g>
</g>
</svg>
