<?xml version="1.0" encoding="UTF-8"?>
<svg width="99px" height="99px" viewBox="0 0 99 99" version="1.1" xmlns="http://www.w3.org/2000/svg" xmlns:xlink="http://www.w3.org/1999/xlink">
    <!-- Generator: Sketch 53.2 (72643) - https://sketchapp.com -->
    <title>Group 10</title>
    <desc>Created with Sketch.</desc>
    <defs>
        <polygon id="path-1" points="3.52397658e-05 0.532982114 98.4338873 0.532982114 98.4338873 98.9996241 3.52397658e-05 98.9996241"></polygon>
    </defs>
    <g id="Arquitectura" stroke="none" stroke-width="1" fill="none" fill-rule="evenodd">
        <g id="Desktop-2" transform="translate(-1051.000000, -988.000000)">
            <g id="Group-10" transform="translate(1051.000000, 988.000000)">
                <g id="Group-3">
                    <mask id="mask-2" fill="white">
                        <use xlink:href="#path-1"></use>
                    </mask>
                    <g id="Clip-2"></g>
                    <path d="M9.12752113,44.2743338 C9.12612676,44.2631789 9.13588732,44.2199535 9.11776056,44.1948549 C8.65761972,43.4920944 8.18353521,42.7977 7.73176056,42.0879676 C6.97461972,40.8943901 7.12242254,39.9922352 8.25883099,39.1430662 C9.4914507,38.2241789 10.7659014,37.3638549 11.9957324,36.4421789 C12.3652394,36.1660944 12.7124366,35.8133197 12.9550563,35.4242915 C15.3798592,31.5256437 17.2566761,27.3090803 20.4818451,23.8845169 C22.4451127,21.8013338 21.4314085,18.5413056 18.8490423,17.2389676 C18.2689859,16.9461507 17.8688028,16.9503338 17.4226056,17.4648549 C16.1774366,18.9024465 14.8262958,20.2535873 13.6327183,21.7330099 C8.96577465,27.5154465 6.1296338,34.1512352 4.68088732,41.4033338 C4.58885915,41.8592915 4.5498169,42.5495028 4.80916901,42.8144324 C5.96509859,43.9926718 7.08338028,45.486038 9.12752113,44.2743338 M4.47591549,56.4318127 C4.45360563,63.9279254 13.2534507,80.3842352 18.7584085,83.117193 C19.1836901,80.8750521 19.6828732,78.6663761 20.0007887,76.431207 C20.2252817,74.8541789 20.9405915,73.9729394 22.5022817,73.5365028 C24.9870423,72.8393197 25.3342394,72.0668408 24.4780986,69.5792915 C23.9384789,68.0134183 23.7683662,66.474038 24.2229296,64.8496014 C24.5547887,63.6643901 23.9370845,62.6465028 22.7616338,62.3020944 C22.061662,62.0985169 21.3393803,61.946531 20.6157042,61.8586859 C18.4572254,61.6007282 16.5734366,60.8338268 14.9043803,59.3697423 C13.2855211,57.9502775 11.5007324,56.7204465 9.75777465,55.4473901 C9.44543662,55.2201085 8.93509859,55.016531 8.6004507,55.1071648 C7.19911268,55.4878268 5.83123944,55.9856155 4.47591549,56.4318127 M42.6829437,34.043869 C40.9581127,34.1442634 39.4006056,34.257207 37.8403099,34.3171648 C36.5282113,34.3687563 35.5995634,34.9753056 34.8312676,36.0252634 C33.732507,37.5283901 32.5221972,38.9492493 31.3885775,40.4272775 C30.8322254,41.1509535 30.278662,41.8871789 29.8282817,42.6777845 C27.3797746,46.9752211 30.0207042,53.120193 35.2523662,53.3558408 C36.4696479,53.4102211 37.7245775,53.2094324 38.9251268,52.9542634 C43.278338,52.0256155 45.7603099,53.8773338 46.0628873,58.3114183 C46.0949577,58.7855028 46.2873803,59.3599817 46.6094789,59.684869 C49.1179437,62.2128549 49.3368592,65.1410239 48.2018451,68.313207 C47.7835352,69.4788972 47.8072394,70.590207 48.270169,71.7266155 C49.2085775,74.0273197 50.1121268,76.3391789 51.0547183,78.6370944 C51.3168592,79.2785028 51.620831,79.9101507 51.9875493,80.4943901 C52.1214085,80.7049394 52.5550563,80.9364042 52.7474789,80.8666859 C54.4151408,80.2698972 55.9991408,79.302207 56.5499155,77.6373338 C57.1020845,75.9654887 57.701662,74.4288972 58.9036056,73.1391085 C59.0946338,72.9341366 59.1657465,72.6217986 59.316338,72.3736014 C60.009338,71.2274324 60.5419859,69.9223056 61.4539014,68.9852915 C62.6209859,67.7847423 62.8440845,66.6441507 62.2821549,65.129869 C61.536169,63.119193 61.7801831,61.1113056 62.9807324,59.3599817 C63.8605775,58.0771648 64.9677042,56.9365732 66.0553099,55.8127141 C66.8835634,54.9565732 67.841493,54.224531 68.9067887,53.2930944 C63.881493,51.7788127 63.0337183,51.0272493 61.0620845,46.5624887 C60.5601127,45.4260803 59.9549577,44.3119817 59.6342535,43.1239817 C58.8171549,40.0842634 56.9040845,38.4040521 53.8113803,38.0094465 C53.7402676,37.9996859 53.6635775,37.9383338 53.6022254,37.9522775 C53.3094085,38.0206014 52.9036479,38.0122352 52.7474789,38.201869 C51.2610845,40.0047845 49.2810845,39.8639535 47.3917183,38.8028408 C46.2134789,38.1419113 45.1035634,37.3596718 43.9364789,36.6778268 C42.9994648,36.1284465 42.4096479,35.4284746 42.6829437,34.043869 M94.2954085,44.7065873 C93.3556056,45.8206859 92.4841268,46.9794042 91.4801831,48.0098408 C90.2838169,49.2368831 88.7277042,48.8478549 88.1086056,47.2303901 C87.5606197,45.7955873 86.9763803,44.3691507 86.5538873,42.8967 C85.9515211,40.7939958 84.8388169,39.0287282 83.2827042,37.5451225 C82.8685775,37.1505169 82.2480845,36.9734324 81.6234085,36.8172634 C82.1351408,38.2729817 81.5578732,39.1890803 80.6180704,40.052193 C77.7930845,42.6443197 74.5414225,44.4834887 70.9160704,45.6812493 C69.7629296,46.0619113 68.8900563,45.7509676 68.325338,44.6870662 C66.6981127,41.6180662 65.100169,38.5337282 63.500831,35.4493901 C63.3697606,35.1956155 63.2442676,34.8972211 63.2470563,34.622531 C63.2777324,32.132193 61.3813944,31.2160944 59.6286761,30.2205169 C59.0026056,29.8649535 58.2468592,29.745038 57.5845352,29.4424606 C56.5889577,28.9878972 56.1957465,28.0704042 56.5011127,27.0887704 C56.7855634,26.1754606 57.7490704,25.6525732 58.7850845,25.8366296 C62.2166197,26.4459676 64.5103521,28.7494606 66.6855634,31.1965732 C66.9588592,31.5047282 66.9226056,32.0833901 67.0355493,32.5365592 C67.2614366,33.4359254 67.3534648,34.4008268 67.7452817,35.2221085 C68.747831,37.3276014 69.8856338,39.3703479 71.1140704,41.7156718 C73.2502394,40.4621366 75.3013521,39.2587986 77.402662,38.0247845 C77.1544648,37.524207 77.0010845,37.2453338 76.8741972,36.9567 C76.0724366,35.1300803 77.2227887,33.1654183 79.2055775,33.0594465 C80.4089155,32.9953056 81.6234085,33.0078549 82.8281408,33.0761789 C84.0914366,33.1472915 85.098169,33.7873056 85.9570986,34.7034042 C87.8269437,36.6959535 89.4973944,38.8014465 90.1276479,41.5469535 C90.1750563,41.750531 90.3019437,41.9345873 90.2545352,41.8314042 C90.9628732,40.8093338 91.773,39.7147563 92.4910986,38.5630099 C92.7183803,38.1990803 92.8787324,37.6315732 92.7685775,37.2411507 C90.9447465,30.7685028 87.8241549,24.9832775 83.3705493,19.9398549 C75.7057183,11.2571366 66.0636761,6.30434789 54.6229014,4.75102394 C53.7528169,4.63389718 53.2145915,4.8848831 52.6889155,5.57927746 C51.3001268,7.41844648 49.8722958,9.23391127 48.369169,10.9810521 C47.8490704,11.5834183 47.1226056,12.1258268 46.3821972,12.4005169 C42.783338,13.733531 39.1384648,14.9396577 35.5368169,16.2643056 C35.0376338,16.4469676 34.5286901,16.9614887 34.2986197,17.4509113 C33.5094085,19.1380944 32.8693944,20.8936014 32.1150423,22.5975169 C31.8584789,23.1775732 31.9142535,23.5930944 32.2949155,24.0880944 C33.092493,25.1241085 33.8287183,26.2061366 34.5175352,27.1696437 C35.5521549,26.2772493 36.489169,25.3513901 37.5447042,24.5900662 C39.1217324,23.450869 40.986,23.2138268 42.8767606,23.2445028 C44.2822817,23.2668127 45.0910141,23.9960662 45.1105352,25.1422352 C45.1300563,26.3386014 44.3004085,27.1222352 42.8377183,27.1013197 C41.0152817,27.0762211 39.4270986,27.5154465 38.2655915,29.0032352 C37.9671972,29.3866859 37.7566479,29.8398549 37.3941127,30.4505873 C39.0548028,30.365531 40.4714789,30.1912352 41.8797887,30.2525873 C43.0622113,30.3027845 44.2655493,30.5230944 45.4033521,30.8619254 C46.4086901,31.1631085 47.1463099,32.0234324 47.1114507,33.069207 C47.0738028,34.1944606 47.7054507,34.5988268 48.4821127,35.0199254 C48.7400704,35.159362 48.9966338,35.2974042 49.2992113,35.4619394 C50.6503521,33.7566296 52.3375352,33.3913056 54.3523944,34.1554183 C55.3744648,34.5430521 56.4467324,34.8024042 57.5022676,35.0980099 C59.7458028,35.7240803 61.2294085,37.2035028 62.1482958,39.2811085 C62.9918873,41.1858127 63.7643662,43.121193 64.5995915,45.0286859 C64.9495775,45.8318408 65.3372113,46.6252352 65.7848028,47.3767986 C66.3690423,48.3556437 67.1680141,49.0542211 68.3908732,49.1574042 C69.0071831,49.2089958 69.6165211,49.3679535 70.2188873,49.5185451 C72.7789437,50.1627423 73.739662,52.2375592 72.3034648,54.4546014 C71.3817887,55.8796437 70.1017606,57.0746155 68.9555915,58.3490662 C68.1747465,59.2191507 67.3144225,60.0195169 66.5517042,60.9035451 C65.7527324,61.8266155 65.5101127,62.9030662 65.9674648,64.0771225 C67.0899296,66.9634606 66.4778028,69.4217282 64.2635493,71.5774183 C63.6848873,72.1407423 63.3558169,72.9634183 62.9347183,73.6801225 C61.6700282,75.8288408 60.6883944,78.1462775 59.4599577,80.2838408 C58.0837183,82.6779676 55.7858028,84.3456296 52.8673944,84.7750944 C51.1648732,85.0246859 49.8736901,84.3121648 48.9436479,82.919193 C48.5797183,82.3739958 48.2422817,81.7967282 47.9912958,81.1929676 C46.7921408,78.2898972 45.5943803,75.3854324 44.4621549,72.455869 C43.8054085,70.7589254 43.8123803,69.0076014 44.4942254,67.3050803 C45.284831,65.3250803 45.227662,63.5737563 43.533507,62.0050944 C42.5309577,61.0764465 42.1851549,59.7782915 42.1851549,58.3992634 C42.1851549,56.7009254 41.7431408,56.4234465 40.0448028,56.6493338 C38.1387042,56.9045028 36.1642817,57.3562775 34.3041972,57.1025028 C27.5345493,56.1822211 23.4337183,49.4097845 25.6521549,42.854869 C26.2461549,41.1007563 27.3741972,39.4832915 28.4687746,37.9536718 C29.9328592,35.909531 31.6019155,34.0117986 33.2249577,31.9997282 C31.6604789,29.8077845 30.1503803,27.6074746 28.5468592,25.4782775 C27.7367324,24.4004324 27.5443099,23.420193 28.1271549,22.1429535 C29.2342817,19.7181507 30.2200986,17.2347845 31.1919718,14.7500239 C31.5475352,13.8422915 32.1401408,13.3431085 33.0283521,13.0363479 C36.6550986,11.7828127 40.2609296,10.466531 43.898831,9.24367183 C44.8846479,8.91181268 45.6306338,8.40565775 46.2316056,7.56485493 C46.9427324,6.56648873 47.744493,5.63226338 48.666169,4.47075634 C38.3046338,4.65062958 29.3263099,7.92460141 21.227831,14.0821225 C21.6559014,14.4376859 22.0184366,14.7305028 22.3698169,15.0330803 C25.766493,17.9626437 26.4441549,23.0297704 23.463,26.3358127 C20.7439859,29.3518268 18.8964507,32.8475028 16.9415493,36.3041366 C16.0338169,37.9076577 14.9894366,39.2811085 13.3845211,40.2097563 C12.8825493,40.5011789 12.432169,40.8832352 11.8660563,41.2903901 C12.5716056,42.3375592 13.2632113,43.3512634 13.9422676,44.3719394 C15.0995915,46.1135028 14.4902535,47.4883479 12.4028873,47.8076577 C10.6669014,48.0725873 8.92394366,48.2789535 7.19074648,48.555038 C5.98601408,48.7460662 4.92629577,48.6066296 4.03250704,47.2819817 L4.03250704,52.5066718 C5.46591549,52.0409535 6.86307042,51.6365873 8.22257746,51.1304324 C9.33388732,50.7163056 10.2458028,50.8836296 11.1702676,51.6296155 C12.7347465,52.8957 14.4484225,53.9860944 15.9459718,55.3218972 C17.9315493,57.0927423 20.1876338,57.9962915 22.8020704,58.382531 C26.3367887,58.9054183 28.5412817,61.5519254 28.0769577,64.8663338 C27.8371268,66.5786155 28.0671972,68.0664042 28.5343099,69.6615592 C29.4378592,72.7472915 27.8538592,75.6991648 24.7388451,76.8523056 C24.0081972,77.1228127 23.7251408,77.5020803 23.5968592,78.2215732 C23.1757606,80.5975732 22.7072535,82.965207 22.233169,85.3314465 C22.1118592,85.9379958 22.2429296,86.3367845 22.7797606,86.7146577 C29.825493,91.6786014 37.6074507,94.5314746 46.2343944,95.0710944 C52.7628169,95.4782493 59.0681408,94.5147423 65.1921972,92.2502915 C66.4722254,91.776207 67.5110282,92.183362 67.9279437,93.2653901 C68.3490423,94.3571789 67.8916901,95.3346296 66.5642535,95.8421789 C62.5819437,97.3662211 58.4504366,98.3199676 54.210169,98.7299113 C47.5395211,99.3755028 40.9148873,98.9195451 34.5788873,96.7359676 C15.4481831,90.1434042 3.74247887,76.811869 0.594,56.8487282 C-3.41480282,31.4322211 13.2771549,7.53278451 38.3255493,1.77265775 C65.1475775,-4.39462394 92.3879155,13.082362 97.4341268,40.1316718 C100.982789,59.148038 95.0372113,75.1274746 80.4186761,87.8357282 C79.7340423,88.4297282 79.0577746,89.0781085 77.9869014,88.7574042 C76.6064789,88.3432775 76.0808028,86.9586718 76.9690141,85.8306296 C77.3705915,85.3202915 77.9116056,84.9159254 78.4121831,84.4892493 C87.7474648,76.541362 92.9805211,66.4071085 94.2452113,54.2677563 C94.5770704,51.0899958 94.2954085,47.8467 94.2954085,44.7065873" id="Fill-1" fill="#FFFFFF" mask="url(#mask-2)"></path>
                </g>
                <path d="M74.447492,68.5233555 C73.7290657,68.8525687 73.2462367,68.9618394 72.9350156,69.2448227 C72.5656223,69.5810404 72.0318926,70.130196 72.1075165,70.477621 C72.4667296,72.1250877 72.0042609,73.584833 71.3760014,75.06279 C71.1723988,75.544702 71.1767618,76.1078667 71.0865949,76.6332069 C71.2712915,76.6780359 71.4574425,76.721464 71.6421391,76.766293 C72.5408991,74.1241822 73.4396591,71.4834723 74.447492,68.5233555 M67,76.525337 C67.0378119,76.1456912 67.033449,75.9579696 67.0785324,75.7814553 C67.6224422,73.6268602 68.2492473,71.5156931 68.1954381,69.2308136 C68.1590805,67.6533922 69.399602,66.5172565 70.8699036,65.9316773 C72.4885442,65.2858592 73.4498393,64.1931516 74.0155636,62.6703656 C74.1173649,62.3971887 74.2148033,62.0413583 74.4344032,61.9026685 C75.0393938,61.5244235 75.7345512,60.9514525 76.3424504,61.0032861 C76.9459866,61.0551196 77.8025718,61.6701179 78.0018115,62.2206744 C78.7973159,64.4214995 79.5419197,66.6139191 78.4555544,69.0346866 C77.6018779,70.9399203 77.2397561,73.0454837 76.546053,75.0235646 C76.1097617,76.2675701 75.5294943,77.4765529 74.8910548,78.6379049 C74.0999133,80.0794384 72.9117467,81.1357223 71.0865949,80.9858253 C69.2643517,80.8359282 68.1707149,79.6605671 67.4711946,78.139182 C67.2123284,77.5774183 67.1192529,76.948411 67,76.525337" id="Fill-4" fill="#FFFFFF"></path>
                <path d="M50.9542393,23.0001443 C52.1087047,23.014553 53.0111588,23.9179845 52.9998957,25.0505158 C52.9886326,26.1513477 52.0777313,27.0403704 51.0049232,26.9985849 C49.8701681,26.9539176 48.9578589,25.9957328 49.0015033,24.8963417 C49.0437398,23.8502632 49.9321151,22.9871763 50.9542393,23.0001443" id="Fill-6" fill="#FFFFFF"></path>
                <path d="M74.9998766,90.014527 C74.9883584,91.1293986 74.0769757,92.0087134 72.9424267,91.9999348 C71.7949196,91.9911563 70.9584056,91.0972107 71.0015991,89.9252787 C71.041913,88.8133333 71.9763322,87.9618172 73.1152006,88.0013205 C74.2151949,88.0378976 75.0113949,88.8879507 74.9998766,90.014527" id="Fill-8" fill="#FFFFFF"></path>
            </g>
        </g>
    </g>
</svg>