<?xml version="1.0" encoding="utf-8"?>
<!-- Generator: Adobe Illustrator 17.1.0, SVG Export Plug-In . SVG Version: 6.00 Build 0)  -->
<!DOCTYPE svg PUBLIC "-//W3C//DTD SVG 1.1//EN" "http://www.w3.org/Graphics/SVG/1.1/DTD/svg11.dtd">
<svg version="1.1" id="Capa_1" xmlns="http://www.w3.org/2000/svg" xmlns:xlink="http://www.w3.org/1999/xlink" x="0px" y="0px"
	 width="80px" height="80px" viewBox="19 -2.5 80 80" enable-background="new 19 -2.5 80 80" xml:space="preserve">
<title>Group 6</title>
<desc>Created with Sketch.</desc>
<g id="Arquitectura">
	<g id="Desktop-2" transform="translate(-661.000000, -1000.000000)">
		<g id="Group-6" transform="translate(661.000000, 1000.000000)">
			<path id="Fill-1" fill="#FFFFFF" d="M66,50.5L66,50.5L66,50.5c-2.4,0-4.5-2-4.5-4.4c0-2.4,2-4.5,4.4-4.5c2.4,0,4.5,2,4.5,4.4
				C70.5,48.5,68.4,50.5,66,50.5 M48.1,50.5L48.1,50.5c-2.4,0-4.4-2.1-4.4-4.6c0-2.4,2.1-4.4,4.5-4.4h0.1c2.4,0,4.4,2,4.3,4.5
				C52.6,48.5,50.6,50.5,48.1,50.5 M65.8,39.3c-2.7,0-5.4,0-8.1,0c-3.2,0-6.4,0-9.6,0c-2,0-3.6,0.7-4.8,1.9
				c-2.1,2.1-2.6,5.2-1.3,7.8c1.1,2.3,3.4,3.7,6,3.7c0.3,0,0.5,0,0.8,0c1.8-0.2,3.5-1.2,4.6-2.7c1.1-1.5,1.5-3.2,1.2-4.9
				c-0.1-0.7-0.4-1.4-0.6-2.1c-0.1-0.3-0.2-0.7-0.4-1l-0.2-0.5h0.5h6.2h0.7l-0.4,0.6c-1.1,1.8-1.5,3.4-1.2,5c0.5,2.7,2,4.4,4.4,5.3
				c0.8,0.3,1.6,0.4,2.4,0.4c1.6,0,3.1-0.6,4.4-1.9c2.1-2,2.7-4.8,1.6-7.6C71,40.8,68.7,39.3,65.8,39.3"/>
			<g id="Group-5">
				<g id="Clip-4">
				</g>
				<defs>
					<filter id="Adobe_OpacityMaskFilter" filterUnits="userSpaceOnUse" x="18.9" y="12.4" width="80.1" height="50.7">
						<feColorMatrix  type="matrix" values="1 0 0 0 0  0 1 0 0 0  0 0 1 0 0  0 0 0 1 0"/>
					</filter>
				</defs>
				<mask maskUnits="userSpaceOnUse" x="18.9" y="12.4" width="80.1" height="50.7" id="mask-2">
					<g filter="url(#Adobe_OpacityMaskFilter)">
						<polygon id="path-1" fill="#FFFFFF" points="18.9,12.4 98.9,12.4 98.9,63.1 18.9,63.1 						"/>
					</g>
				</mask>
				<path id="Fill-3" mask="url(#mask-2)" fill="#FFFFFF" d="M96.7,29.9v30.4v0.3l-0.3,0.1c-0.2,0-0.4,0.1-0.6,0.1
					c-0.6,0-1-0.2-1.5-0.5c-4.1-3.4-8.4-6.7-12.9-10.4c-0.6-0.5-0.9-1-0.9-1.8c0-1.9,0-3.9,0-5.8l0-0.1c0-0.6,0.2-0.9,0.6-1.3
					c1.7-1.3,3.4-2.7,5-4c2.8-2.2,5.6-4.5,8.4-6.7c0.3-0.3,0.8-0.3,1.2-0.4c0.2,0,0.4-0.1,0.6-0.1l0.5-0.1V29.9z M78.4,59.2
					c0,1.3-0.3,1.6-1.6,1.6l-10.3,0h-4.9h-4.9H52h-5.5l-9.9,0c-1.3,0-1.6-0.3-1.6-1.7V31.2c0-1.3,0.3-1.7,1.7-1.7l19.8,0l20.4,0
					c1.4,0,1.6,0.3,1.6,1.7V59.2z M32.6,34.6v4V39h-0.4h-3.9H28v-0.4v-4v-0.4h0.4h3.9h0.4V34.6z M25.8,38.8c0,0.2-0.1,0.7-0.4,0.8
					c-0.9,0.5-1.9,0.9-2.9,1.4l-0.9,0.4l-0.5,0.2v-0.6v-8.9v-0.6l0.5,0.2l0.9,0.4c1,0.4,1.9,0.9,2.8,1.3c0.3,0.1,0.5,0.5,0.5,0.8
					C25.9,35.8,25.9,37.2,25.8,38.8L25.8,38.8z M76.1,16.8c0.3-1.1,1-1.8,2-2.1c0.3-0.1,0.6-0.1,1-0.1c1.4,0,2.9,0,4.3,0
					c1.1,0,2.1,0,3.2,0c1.7,0,2.9,1.1,3,2.5c0,0.8-0.2,1.5-0.7,2c-0.5,0.5-1.1,0.8-1.8,0.8c-0.5,0-1.1,0-1.7,0c-0.4,0-0.9,0-1.3,0
					c-0.3,0-0.6,0-1,0l-0.3,0c-0.4,0-0.7,0-1.1,0c-0.4,0-0.7,0-1.1,0c-0.6,0-1.1,0-1.6,0c-0.7,0-1.4-0.3-1.9-0.7
					C76.1,18.8,75.8,17.8,76.1,16.8L76.1,16.8z M98.6,27.7c-0.3-0.3-0.6-0.3-0.9-0.3h0c-0.3,0-0.5,0-0.8,0c-0.2,0-0.5,0-0.7,0
					c-0.4,0-0.7,0-0.9,0c-0.7,0.1-1.2,0.3-1.6,0.5c-3,2.4-6,4.8-9,7.2c-1,0.8-1.9,1.5-2.9,2.3c-0.1,0.1-0.3,0.2-0.4,0.3l-0.3,0.2
					l-0.6,0.4v-0.7v-2v-4.3c0-1.3-0.3-2.2-1-2.9c-0.7-0.7-1.6-1-2.9-1l-7.5,0h-5l-5,0H59h-0.8h-0.4V27v-8.1v-0.3l0.3-0.1l0.1,0
					c0.1,0,0.1,0,0.2,0l3.6,0c3.8,0,7.5,0,11.3,0c0.7,0,0.8,0.4,1,0.7c0.8,1.9,2.2,2.9,4,3c1.4,0.1,2.9,0.1,4.5,0.1
					c1.5,0,3,0,4.6-0.1c2.5-0.1,4.5-2.2,4.5-4.9c0-2.7-2-4.8-4.5-4.9c-1.4,0-2.9-0.1-4.5-0.1c-1.5,0-3,0-4.5,0.1
					c-1.9,0-3.3,1.1-4.1,2.9c-0.3,0.7-0.7,0.8-1.3,0.8c-3,0-6,0-9,0l-5.6,0l-1.4,0c-1.1,0-1.4,0.3-1.4,1.4l0,4.3l0,4.3
					c0,0.2,0,0.3,0,0.5l0,0.3l0,0.3h-0.3h-1.5h-1.4h-1.4h-0.1l-4.2,0l-4.2,0c-2.1,0-4.2,0-6.2,0c-2.1,0-3.5,1.5-3.5,3.5
					c0,0.2,0,0.3,0,0.5l0,0.3v0.4h-0.4l-1.2,0l-1.2,0c-0.9,0-1.7,0-2.6,0c-0.3,0-0.5-0.1-0.7-0.2l-0.1,0c-1.2-0.5-2.3-1.1-3.5-1.6
					L20.8,29c-0.4-0.2-0.7-0.2-0.9-0.2c-0.8,0-1,0.8-1,1.5c0,4.3,0,8.6,0,12.8c0,0.7,0.2,1.5,1,1.5c0.3,0,0.6-0.1,1-0.3
					c0.9-0.4,1.9-0.9,2.8-1.3c0.9-0.4,1.9-0.9,2.8-1.3c0,0,0.1,0,0.1-0.1c0.2-0.1,0.4-0.2,0.6-0.2c0.9,0,1.7,0,2.6,0l1.2,0l1.2,0
					h0.4v0.4v0.3v0.5c0,1.6,0,3.1,0,4.7c0,3.9,0,8,0,12c0,1,0.4,2,1.1,2.7c0.7,0.7,1.6,1.1,2.6,1.1c6.4,0,12.8,0,19.2,0H62l6.4,0
					c2.8,0,5.7,0,8.5,0c2.2,0,3.7-1.5,3.7-3.7v-4.5v-2.1V52l0.6,0.4l0.3,0.2c0.2,0.1,0.3,0.2,0.4,0.3l2.7,2.2c3,2.4,6.1,4.9,9.1,7.3
					c0.3,0.3,0.8,0.5,1.3,0.5c0.3,0,0.7,0.1,1.2,0.1c0.4,0,0.8,0,1.2,0l0.3,0c0.9,0,1.2-0.4,1.2-1.2l0-7.7c0-8.3,0-17,0-25.4
					C98.9,28.2,98.8,27.9,98.6,27.7L98.6,27.7z"/>
			</g>
		</g>
	</g>
</g>
</svg>
