<?xml version="1.0" encoding="UTF-8" standalone="no"?>
<svg width="89px" height="83px" viewBox="0 0 89 83" version="1.1" xmlns="http://www.w3.org/2000/svg" xmlns:xlink="http://www.w3.org/1999/xlink">
    <!-- Generator: Sketch 50.2 (55047) - http://www.bohemiancoding.com/sketch -->
    <title>Group 11</title>
    <desc>Created with Sketch.</desc>
    <defs></defs>
    <g id="Arquitectura" stroke="none" stroke-width="1" fill="none" fill-rule="evenodd">
        <g id="Desktop-2" transform="translate(-1061.000000, -967.000000)">
            <g id="Group-11" transform="translate(1061.000000, 961.000000)">
                <g id="Group-3"></g>
                <path d="M44.8989964,15.3226786 C44.6992364,15.8317946 44.289085,16.2314174 43.7726186,16.4198348 L29.1558199,23.9520848 C28.6611761,24.2070134 28.3506248,24.714462 28.3506248,25.2678571 L28.3506248,57.8579553 C25.5556636,59.9107232 24.5874524,63.6258995 26.0288579,66.7678571 L23.8742104,66.7678571 L23.8742104,41.5714286 L20.8899341,41.5714286 L20.8899341,66.7678571 L15.7510103,66.7678571 C16.1755236,65.8359598 16.3991578,64.82625 16.4079241,63.8035714 L16.4135197,63.8035714 L16.4135197,26.75 C16.4133331,25.9313013 15.7450418,25.2678571 14.9210085,25.2680424 C14.2695037,25.2682277 13.6933518,25.6882299 13.4978817,26.3057277 L9.04235721,40.3888638 C8.70476095,41.313721 7.67611822,41.791712 6.74502401,41.4561919 C6.67974297,41.4326629 6.61576755,41.4054286 6.55347078,41.3744888 C5.69269359,40.932625 5.32730626,39.9010536 5.72011162,39.0210312 L9.70318789,25.3836495 C10.7773408,22.6435379 13.4290568,20.834212 16.3894589,20.8214286 L26.9547296,20.8214286 C27.1938447,20.8217991 27.4296026,20.7645513 27.6418592,20.655058 L42.4722202,13.0084978 C43.3619076,12.6398147 44.3873796,13.0170201 44.8204727,13.872587 C45.0500754,14.323529 45.0786126,14.8496897 44.8989964,15.3226786 Z M32.8270393,59.3021183 C35.2982066,59.304712 37.3008425,61.293933 37.3034537,63.7485468 C37.3034537,66.2042723 35.2993257,68.1949754 32.8270393,68.1949754 C30.3547529,68.1949754 28.3506248,66.2042723 28.3506248,63.7485468 C28.3506248,61.2928214 30.3547529,59.3021183 32.8270393,59.3021183 Z M38.7955919,75.0976852 L38.7955919,86.0357142 L26.8584867,86.0357142 L26.8584867,75.0976852 C26.861471,72.9539509 28.6104434,71.2168794 30.7688212,71.2142857 L34.8852573,71.2142857 C37.0436352,71.2168794 38.7926076,72.9539509 38.7955919,75.0976852 Z M14.9213815,86.0357142 L2.98427633,86.0357142 L2.98427633,75.0976852 C2.98726061,72.9539509 4.73623303,71.2168794 6.89461086,71.2142857 L11.011047,71.2142857 C13.1692383,71.2168794 14.9183972,72.9539509 14.9213815,75.0976852 L14.9213815,86.0357142 Z M8.95282892,59.3021183 C11.4251153,59.3021183 13.4292434,61.2928214 13.4292434,63.7485468 C13.4292434,66.2042723 11.4251153,68.1949754 8.95282892,68.1949754 C6.48054253,68.1949754 4.47641448,66.2042723 4.47641448,63.7485468 C4.47902572,61.293933 6.48166163,59.3048973 8.95282892,59.3021183 Z M22.3820722,8.96428571 C24.8543586,8.96428571 26.8584867,10.9549888 26.8584867,13.4107143 C26.8584867,15.8664397 24.8543586,17.8571429 22.3820722,17.8571429 C19.910905,17.8545491 17.908269,15.8653281 17.9056578,13.4107143 C17.9056578,10.9549888 19.9097858,8.96428571 22.3820722,8.96428571 Z M47.6294227,12.8500937 C46.6078676,10.4110424 43.7892187,9.25645312 41.3339054,10.2711652 C41.291939,10.2885804 41.2501591,10.3063661 41.2087523,10.3248929 L29.1097501,16.5591562 C29.5868613,15.5768661 29.837354,14.5012009 29.842763,13.4107143 C29.842763,9.31796205 26.5024252,6 22.3820722,6 C18.2617193,6 14.9213815,9.31796205 14.9213815,13.4107143 C14.926977,15.0193951 15.4647063,16.5817589 16.4517557,17.8571429 L16.3896454,17.8571429 C12.1542113,17.8853036 8.37331977,20.5007299 6.87801083,24.4371161 L2.89474804,38.0744978 C1.94649425,40.5211451 3.17452395,43.2682969 5.63785751,44.2101986 C6.7610645,44.6396495 8.00606727,44.6324241 9.12423829,44.1898192 C10.4089692,43.6757009 11.4087018,42.6374598 11.8688399,41.3398437 L13.4292434,36.407087 L13.4292434,57.8579553 C12.1452585,56.8777031 10.5723584,56.3435759 8.95282892,56.3378326 C4.83863101,56.3317187 1.49829326,59.6396763 1.49213819,63.7265 C1.48915391,65.7279486 2.3023692,67.6451004 3.74657241,69.0409085 C1.45464821,70.2040201 0.00895286795,72.5413593 3.90653283e-08,75.0976852 L3.90653283e-08,87.5178571 C-0.000186478203,88.3361852 0.667545342,88.9998147 1.49139212,89 L1.49213819,89 L16.4135197,89 C17.2373664,89.0001852 17.9054713,88.3369263 17.9056578,87.5185982 L17.9056578,87.5178571 L17.9056578,75.0976852 C17.8983836,72.996933 16.9158107,71.0171607 15.2429373,69.7321428 L26.5371174,69.7321428 C24.8640575,71.0171607 23.8814846,72.996933 23.8743969,75.0976852 L23.8743969,87.5178571 C23.8742104,88.3361852 24.5419422,88.9998147 25.365789,89 L25.3665351,89 L40.2879165,89 C41.1117633,89.0001852 41.7798681,88.3369263 41.7800547,87.5185982 L41.7800547,87.5178571 L41.7800547,75.0976852 C41.7711018,72.5413593 40.3254065,70.2040201 38.0334823,69.0409085 C40.9795226,66.1846339 41.0367834,61.4968013 38.1612466,58.5704955 C36.3904517,56.7683951 33.8189381,55.9837857 31.3350876,56.4877143 L31.3350876,26.1680737 L45.0331023,19.1032545 C47.4884157,18.0887277 48.6507913,15.2889598 47.6294227,12.8500937 Z" id="Fill-8" fill="#FFFFFF"></path>
                <path d="M62.1666667,86.0064894 L50.8333334,86.0064894 L50.8333334,74.9606227 C50.8361667,72.7957533 52.4966771,71.0415562 54.5458854,71.0389369 L58.4541146,71.0389369 C60.5031458,71.0415562 62.1638333,72.7957533 62.1666667,74.9606227 L62.1666667,86.0064894 Z M56.5,59.0093278 C58.8472396,59.0093278 60.75,61.0196572 60.75,63.4995935 C60.75,65.9795299 58.8472396,67.9898593 56.5,67.9898593 C54.1527604,67.9898593 52.25,65.9795299 52.25,63.4995935 C52.2524792,61.0207797 54.1538229,59.0121342 56.5,59.0093278 Z M61.4429271,68.8441324 C64.2449167,65.959885 64.3033542,61.2217191 61.5734375,58.2613243 C58.8435208,55.3009295 54.3588854,55.2391884 51.5568959,58.1234357 C48.7549063,61.0076831 48.6964688,65.745849 51.4263854,68.7062438 C51.4694167,68.7528303 51.5129792,68.7988555 51.5570729,68.8441324 C49.38125,70.0187111 48.0085,72.3790941 48,74.9606227 L48,87.5032447 C47.999823,88.3296407 48.6337813,88.9998129 49.4159584,89 L49.4166667,89 L63.5833333,89 C64.3655104,89.0001871 64.9998229,88.3303891 65,87.5039931 L65,87.5032447 L65,74.9606227 C64.9915,72.3790941 63.6189271,70.0187111 61.4429271,68.8441324 Z" id="Fill-9" fill="#FFFFFF"></path>
                <path d="M86.1666667,86.0064894 L74.8333334,86.0064894 L74.8333334,74.9606227 C74.8361667,72.7957533 76.4966771,71.0415562 78.5458854,71.0389369 L82.4541146,71.0389369 C84.5031458,71.0415562 86.1638333,72.7957533 86.1666667,74.9606227 L86.1666667,86.0064894 Z M80.5,59.0093278 C82.8472396,59.0093278 84.75,61.0196572 84.75,63.4995935 C84.75,65.9795299 82.8472396,67.9898593 80.5,67.9898593 C78.1527604,67.9898593 76.25,65.9795299 76.25,63.4995935 C76.2524792,61.0207797 78.1538229,59.0121342 80.5,59.0093278 Z M85.4429271,68.8441324 C88.2449167,65.959885 88.3033542,61.2217191 85.5734375,58.2613243 C82.8435208,55.3009295 78.3588854,55.2391884 75.5568959,58.1234357 C72.7549063,61.0076831 72.6964688,65.745849 75.4263854,68.7062438 C75.4694167,68.7528303 75.5129792,68.7988555 75.5570729,68.8441324 C73.38125,70.0187111 72.0085,72.3790941 72,74.9606227 L72,87.5032447 C71.999823,88.3296407 72.6337813,88.9998129 73.4159584,89 L73.4166667,89 L87.5833333,89 C88.3655104,89.0001871 88.9998229,88.3303891 89,87.5039931 L89,87.5032447 L89,74.9606227 C88.9915,72.3790941 87.6189271,70.0187111 85.4429271,68.8441324 Z" id="Fill-10" fill="#FFFFFF"></path>
            </g>
        </g>
    </g>
</svg>