<?xml version="1.0" encoding="utf-8"?>
<!-- Generator: Adobe Illustrator 22.1.0, SVG Export Plug-In . SVG Version: 6.00 Build 0)  -->
<svg version="1.1" id="Layer_1" xmlns="http://www.w3.org/2000/svg" xmlns:xlink="http://www.w3.org/1999/xlink" x="0px" y="0px"
	 viewBox="0 0 80 80" style="enable-background:new 0 0 80 80;" xml:space="preserve">
<style type="text/css">
	.st0{fill:#FFFFFF;}
</style>
<title>Group 11</title>
<desc>Created with Sketch.</desc>
<g id="Arquitectura">
	<g id="Desktop-2" transform="translate(-1061.000000, -967.000000)">
		<g id="Group-11" transform="translate(1061.000000, 961.000000)">
			<g id="Group-3">
			</g>
			<path id="Fill-8" class="st0" d="M40.5,22.5c-0.2,0.4-0.5,0.8-0.9,0.9l-12.1,6.2c-0.4,0.2-0.7,0.6-0.7,1.1v27
				c-2.3,1.7-3.1,4.8-1.9,7.4h-1.8V44.3h-2.5v20.9h-4.3c0.4-0.8,0.5-1.6,0.5-2.5h0V32c0-0.7-0.6-1.2-1.2-1.2c-0.5,0-1,0.3-1.2,0.9
				l-3.7,11.7c-0.3,0.8-1.1,1.2-1.9,0.9c-0.1,0-0.1,0-0.2-0.1c-0.7-0.4-1-1.2-0.7-2l3.3-11.3c0.9-2.3,3.1-3.8,5.5-3.8h8.8
				c0.2,0,0.4,0,0.6-0.1l12.3-6.3c0.7-0.3,1.6,0,1.9,0.7C40.6,21.7,40.7,22.1,40.5,22.5z M30.5,59c2.1,0,3.7,1.7,3.7,3.7
				c0,2-1.7,3.7-3.7,3.7s-3.7-1.7-3.7-3.7C26.8,60.6,28.4,59,30.5,59z M35.4,72.1v9.1h-9.9v-9.1c0-1.8,1.5-3.2,3.2-3.2h3.4
				C34,68.9,35.4,70.3,35.4,72.1z M15.6,81.2H5.7v-9.1c0-1.8,1.5-3.2,3.2-3.2h3.4c1.8,0,3.2,1.4,3.2,3.2V81.2z M10.7,59
				c2.1,0,3.7,1.7,3.7,3.7c0,2-1.7,3.7-3.7,3.7S7,64.7,7,62.7C7,60.6,8.6,59,10.7,59z M21.8,17.2c2.1,0,3.7,1.7,3.7,3.7
				s-1.7,3.7-3.7,3.7c-2.1,0-3.7-1.7-3.7-3.7C18.1,18.9,19.8,17.2,21.8,17.2z M42.8,20.4c-0.8-2-3.2-3-5.2-2.1c0,0-0.1,0-0.1,0
				l-10,5.2c0.4-0.8,0.6-1.7,0.6-2.6c0-3.4-2.8-6.1-6.2-6.1s-6.2,2.8-6.2,6.1c0,1.3,0.5,2.6,1.3,3.7h-0.1c-3.5,0-6.7,2.2-7.9,5.5
				L5.7,41.4c-0.8,2,0.2,4.3,2.3,5.1c0.9,0.4,2,0.4,2.9,0c1.1-0.4,1.9-1.3,2.3-2.4l1.3-4.1v17.8c-1.1-0.8-2.4-1.3-3.7-1.3
				c-3.4,0-6.2,2.7-6.2,6.1c0,1.7,0.7,3.3,1.9,4.4c-1.9,1-3.1,2.9-3.1,5v10.3c0,0.7,0.6,1.2,1.2,1.2h0h12.4c0.7,0,1.2-0.6,1.2-1.2v0
				V72.1c0-1.7-0.8-3.4-2.2-4.5h9.4c-1.4,1.1-2.2,2.7-2.2,4.5v10.3c0,0.7,0.6,1.2,1.2,1.2h0h12.4c0.7,0,1.2-0.6,1.2-1.2v0V72.1
				c0-2.1-1.2-4.1-3.1-5c2.4-2.4,2.5-6.3,0.1-8.7c-1.5-1.5-3.6-2.1-5.7-1.7V31.5l11.4-5.9C42.6,24.8,43.6,22.5,42.8,20.4z"/>
			<path id="Fill-9" class="st0" d="M54.8,81.1h-9.4V72c0-1.8,1.4-3.3,3.1-3.3h3.2c1.7,0,3.1,1.5,3.1,3.3V81.1z M50.1,58.7
				c1.9,0,3.5,1.7,3.5,3.7s-1.6,3.7-3.5,3.7s-3.5-1.7-3.5-3.7C46.6,60.4,48.2,58.7,50.1,58.7z M54.2,66.9c2.3-2.4,2.4-6.3,0.1-8.8
				c-2.3-2.5-6-2.5-8.3-0.1s-2.4,6.3-0.1,8.8c0,0,0.1,0.1,0.1,0.1c-1.8,1-2.9,2.9-3,5.1v10.4c0,0.7,0.5,1.2,1.2,1.2h0H56
				c0.6,0,1.2-0.6,1.2-1.2v0V72C57.2,69.8,56,67.9,54.2,66.9z"/>
			<path id="Fill-10" class="st0" d="M74.7,81.1h-9.4V72c0-1.8,1.4-3.3,3.1-3.3h3.2c1.7,0,3.1,1.5,3.1,3.3V81.1z M70,58.7
				c1.9,0,3.5,1.7,3.5,3.7S72,66.2,70,66.2s-3.5-1.7-3.5-3.7C66.5,60.4,68.1,58.7,70,58.7z M74.1,66.9c2.3-2.4,2.4-6.3,0.1-8.8
				c-2.3-2.5-6-2.5-8.3-0.1c-2.3,2.4-2.4,6.3-0.1,8.8c0,0,0.1,0.1,0.1,0.1c-1.8,1-2.9,2.9-3,5.1v10.4c0,0.7,0.5,1.2,1.2,1.2h0h11.8
				c0.6,0,1.2-0.6,1.2-1.2v0V72C77.1,69.8,75.9,67.9,74.1,66.9z"/>
		</g>
	</g>
</g>
<path class="st0" d="M1,28.6h2.7V3.7L76,3.7v28.9H30.9v2.5h46.5c0,0,1.2,0.3,1.2-1.2c0-1.5,0-32.9,0-32.9H1V28.6z"/>
<rect x="42.9" y="23.7" class="st0" width="25.3" height="2.8"/>
<rect x="47.3" y="15" class="st0" width="25.4" height="2.8"/>
<rect x="44.6" y="7.2" class="st0" width="25.4" height="2.9"/>
</svg>
