<?xml version="1.0" encoding="utf-8"?>
<!-- Generator: Adobe Illustrator 17.1.0, SVG Export Plug-In . SVG Version: 6.00 Build 0)  -->
<!DOCTYPE svg PUBLIC "-//W3C//DTD SVG 1.1//EN" "http://www.w3.org/Graphics/SVG/1.1/DTD/svg11.dtd">
<svg version="1.1" id="Capa_1" xmlns="http://www.w3.org/2000/svg" xmlns:xlink="http://www.w3.org/1999/xlink" x="0px" y="0px"
	 width="80px" height="80px" viewBox="5.5 9 80 80" enable-background="new 5.5 9 80 80" xml:space="preserve">
<title>Experiencia</title>
<desc>Created with Sketch.</desc>
<g id="Arquitectura">
	<g id="Desktop-2" transform="translate(-294.000000, -990.000000)">
		<g id="Group-2" transform="translate(172.000000, 954.000000)">
			<g id="Group" transform="translate(85.000000, 0.406986)">
				<g id="Experiencia" transform="translate(49.000000, 31.000000)">
					<g id="Group-10" transform="translate(-14.053204, 4.097225)">
						<g id="Group-3" transform="translate(2.156652, 0.675502)">
							<g id="Clip-2">
							</g>
							<defs>
								<filter id="Adobe_OpacityMaskFilter" filterUnits="userSpaceOnUse" x="8.9" y="9.7" width="72.2" height="78.4">
									<feColorMatrix  type="matrix" values="1 0 0 0 0  0 1 0 0 0  0 0 1 0 0  0 0 0 1 0"/>
								</filter>
							</defs>
							<mask maskUnits="userSpaceOnUse" x="8.9" y="9.7" width="72.2" height="78.4" id="mask-2">
								<g filter="url(#Adobe_OpacityMaskFilter)">
									<polygon id="path-1" fill="#FFFFFF" points="8.9,9.7 81.2,9.7 81.2,88.1 8.9,88.1 									"/>
								</g>
							</mask>
							<path id="Fill-1" mask="url(#mask-2)" fill="#FEFEFE" d="M12.6,34.6c-0.1,1.8,0.6,3.2,2.3,4.1c1.5,0.8,3,0.7,4.3-0.2
								c1.6-1,2-2.6,1.9-4.4c-0.1-1.8-1.2-3.4-2.9-3.9C15,29.2,12.2,31.8,12.6,34.6L12.6,34.6z M49.9,12.8c-2.4-0.1-4.4,1.7-4.4,4
								c-0.1,2.3,2.5,4.9,4.9,4.9c2.3,0.1,4.3-1.8,4.4-4C54.8,15.4,52.4,12.9,49.9,12.8L49.9,12.8z M71.7,54.4v-1
								c0-3.6,0-7.2,0-10.8c0-1.2,0.8-1.9,1.9-1.7c0.8,0.1,1.2,0.7,1.2,1.8c0,3.6,0,7.1,0,10.7v1.1h3.1c0-0.2,0.1-0.2,0.1-0.3
								c0-5.3,0.1-10.7,0-16c-0.1-2.9-1.4-5.4-3.9-7.3c-2.6,2.1-5.3,4.1-7.9,6.2c1.7,2,2.2,4.3,2.1,6.8c-0.1,3.3,0,6.5,0,9.8v0.9
								H71.7z M71.4,28.8c-3.1-2-6.1-4.1-9.2-6c-2.3-1.3-4.7-1.1-6.9,0.5c-4.6,3.4-9.3,6.8-13.9,10.1c-0.6,0.5-1.3,0.9-1.8,1.4
								c-0.3,0.3-0.4,1-0.2,1.3c0.2,0.3,0.8,0.5,1.3,0.6c0.3,0.1,0.6-0.2,0.9-0.3c4.7-1.9,9.4-3.7,14.1-5.6c0.9-0.4,1.6-0.3,2.4,0.2
								c1.8,1.3,3.7,2.4,5.6,3.7C66.3,32.9,68.8,30.9,71.4,28.8L71.4,28.8z M12.1,60.3c3.2,0.2,6.4,0.5,8.8-1.9c0,0,0.1,0,0.1-0.1
								c0.2-0.4,0.5-0.7,0.6-1.1c0.1-2.2,0.1-4.4,0-6.6c0-1.1,0.4-1.8,1.3-2.4c4.3-2.8,8.6-5.7,12.8-8.5c0.6-0.4,1.3-0.9,0.9-1.8
								c-0.3-0.7-1-0.8-2-0.5c-2.2,0.7-4.3,1.5-6.5,2.3c-4.4,1.5-8.7,3-13.1,4.6c-1.8,0.6-2.8,2.1-2.8,3.9c0,0.9,0,1.8,0,2.7V60.3z
								 M65,54.4c0-0.3,0-0.6,0-0.9c0-3.7,0-7.4,0-11.1c0-2-0.9-3.5-2.5-4.7c-1.8-1.2-3.5-2.3-5.3-3.5c-0.5-0.3-0.9-0.3-1.4-0.1
								c-4.4,1.8-8.7,3.5-13.1,5.2c-0.8,0.3-1.8,0.4-2.7,0.6c-0.2,0.1-0.5,0.2-0.6,0.3c-0.7,0.7-1.3,1.4-2.1,2
								c-3.9,2.7-7.9,5.3-11.9,8c-0.2,0.2-0.6,0.4-0.6,0.6c-0.1,1.6,0,3.2,0,4.9c0.5-0.2,0.9-0.4,1.3-0.5c4.1-1.6,8.6,0.6,9.8,4.7
								c0.2,0.7,0.3,1.6,0.3,2.3c0,2.6,0,5.2,0,7.8c0.2-0.1,0.4-0.1,0.5-0.2c2.8-1.1,5.6-2.2,8.4-3.3c0.3-0.1,0.5-0.3,0.8-0.4
								c4.9-3.7,9.9-7.4,14.8-11.1c0.5-0.4,1.2-0.6,1.9-0.6C63.3,54.3,64.1,54.4,65,54.4L65,54.4z M78,85V57.5c-0.2,0-0.3,0-0.4,0
								c-4.8,0-9.7,0-14.5,0c-0.3,0-0.7,0.2-1,0.4c-3.9,2.9-7.8,5.8-11.7,8.7c-1.8,1.4-3.6,2.7-5.8,3.5C39.4,72,34.4,74.1,29.3,76
								c-0.6,0.2-0.8,0.6-0.8,1.2c0,2.3,0,4.6,0,6.9V85H78z M25.4,68.1c-1.9,1.1-3.7,2.1-5.4,3.2c-0.2,0.1-0.3,0.6-0.3,0.9
								c0,4.7,0,9.3,0,14c0,1.4-0.5,2-2,2c-2.3,0-4.5,0-6.8,0c-1.4,0-2-0.5-2-1.9c0-2.4,0-4.8,0-7.3c0-1.2,0.6-1.8,1.6-1.9
								c1,0,1.6,0.7,1.6,1.8c0,2,0,4,0,6.1c1.4,0,2.7,0,4.1,0c0.1,0,0.4-0.5,0.4-0.8c0-3.9,0-7.9,0-11.8c0-0.3,0-0.6,0-0.9
								c0-1.2,0.5-2.2,1.6-2.8c2.6-1.5,5.2-3,7.8-4.5c1.3-0.8,2.5,0,2.5,1.5c0,2.4,0,4.8,0,7.4c1.5-0.6,2.8-1.1,4.2-1.6
								c0.2-0.1,0.3-0.4,0.3-0.7c0-3,0.1-6,0-9c-0.1-3.2-3.8-5.1-6.6-3.3c-2.2,1.4-4.4,2.9-6.6,4.3c-0.6,0.4-1.4,0.6-2.1,0.6
								c-1.8,0.1-3.6,0-5.5,0c0,0.9,0,1.7,0,2.5c0,1.1-0.6,1.8-1.5,1.8C9.6,67.8,9,67.1,9,66c0-6.1,0-12.1,0-18.2
								c0-2.7,1.4-4.6,4.3-6.3c-2.2-1.3-3.5-3.1-3.8-5.5c-0.2-1.9-0.1-3.8,1-5.5c1.9-3,5.7-4.3,9.1-3.1c3.3,1.2,5.9,4.6,4.3,10.4
								c0.3-0.1,0.5-0.1,0.8-0.2c3-1,6-2.1,9-3.1c0.7-0.2,1.5-0.2,2.3-0.4c0.2,0,0.5-0.2,0.6-0.3c0.6-0.6,1.1-1.3,1.7-1.7
								c3.1-2.3,6.3-4.6,9.5-7c0.2-0.1,0.4-0.3,0.6-0.5c-2.5-1-4.4-2.6-5.4-5c-0.7-1.6-0.7-3.4-0.1-5c1.1-3.1,4.5-5.2,7.8-4.7
								c4.5,0.6,7.1,3.9,7.3,9.1c1.2,0.1,2.5,0.2,3.7,0.5c0.9,0.2,1.7,0.5,2.5,1c3.9,2.5,7.9,5.1,11.8,7.8c3.5,2.5,5.2,6,5.3,10.2
								c0,1.5,0,3,0,4.5c0,14.3,0,28.7,0,43c0,1.8-0.4,2.2-2.3,2.2c-17.1,0-34.2,0-51.3,0c-1.8,0-2.2-0.4-2.2-2.2
								c0-5.6,0-11.1,0-16.7V68.1z"/>
						</g>
						<path id="Fill-4" fill="#FEFEFE" d="M14,73.5c-0.6,0-1-0.4-1-1c0-0.5,0.4-0.9,0.9-0.9c0.5,0,1,0.4,1,1
							C14.9,73.1,14.5,73.5,14,73.5"/>
						<path id="Fill-6" fill="#FEFEFE" d="M73.4,66.8c-0.9,0-1.7,0-2.5,0c-1.5,0-2.5-0.6-2.5-1.4c0-0.8,1-1.4,2.5-1.4
							c1.5,0,3,0,4.5,0c1.7,0,2.5,0.6,2.5,1.7c0,2.1,0,4.2,0,6.3c0,1.1-0.8,1.6-2.2,1.6c-1.4,0-2.1-0.6-2.1-1.7c0-1.6,0-3.2,0-4.8
							C73.5,67,73.4,67,73.4,66.8"/>
						<path id="Fill-8" fill="#FEFEFE" d="M75.9,76.4c0,0.5-0.4,0.9-0.9,1c-0.6,0-1-0.4-1-0.9c0-0.5,0.4-1,1-1
							C75.5,75.4,75.9,75.8,75.9,76.4"/>
					</g>
				</g>
			</g>
		</g>
	</g>
</g>
</svg>
