<?xml version="1.0" encoding="UTF-8"?>
<svg width="511px" height="224px" viewBox="0 0 511 224" version="1.1" xmlns="http://www.w3.org/2000/svg" xmlns:xlink="http://www.w3.org/1999/xlink">
    <!-- Generator: Sketch 53.2 (72643) - https://sketchapp.com -->
    <title>Group 57</title>
    <desc>Created with Sketch.</desc>
    <g id="Arquitectura" stroke="none" stroke-width="1" fill="none" fill-rule="evenodd">
        <g id="Desktop-2" transform="translate(-736.000000, -177.000000)">
            <g id="Group-57" transform="translate(736.000000, 177.558511)">
                <g id="Group-43" transform="translate(0.000000, 0.441489)">
                    <path d="M202.639944,105.37742 C204.720851,105.37742 206.715657,103.317803 206.715657,100.837746 C206.715657,98.9557298 205.474907,97.4497543 203.724807,97.4497543 L200.248171,97.4497543 L199.14065,105.37742 L202.639944,105.37742 Z M199.318288,96.6967665 C199.339134,96.5418196 199.49502,96.4095257 199.627343,96.4095257 L203.945949,96.4095257 C206.073077,96.4095257 207.800519,98.357689 207.800519,100.727199 C207.800519,103.827044 205.341678,106.395901 202.552031,106.395901 L198.98567,106.395901 L198.255177,111.621509 C198.232519,111.776456 198.077539,111.909656 197.856397,111.909656 L197.456711,111.909656 C197.301731,111.909656 197.19116,111.776456 197.213818,111.621509 L199.318288,96.6967665 Z" id="Fill-1" fill="#FEFEFE"></path>
                    <path d="M226.452002,106.772486 L224.391941,97.8480857 L224.326686,97.8480857 L219.718965,106.772486 L226.452002,106.772486 Z M216.087348,111.909294 C215.932368,111.909294 215.887052,111.777 215.976777,111.5994 L224.28137,96.2324694 C224.326686,96.1436694 224.391941,96.0775224 224.569579,96.0775224 L224.636647,96.0775224 C224.747217,96.0775224 224.857788,96.0775224 224.902198,96.2324694 L228.82293,111.6438 C228.866433,111.777 228.82293,111.909294 228.578224,111.909294 L228.001806,111.909294 C227.803322,111.909294 227.736254,111.798747 227.715409,111.709947 L226.696708,107.63602 L219.21052,107.63602 L217.084298,111.709947 C217.039888,111.798747 216.929318,111.909294 216.729021,111.909294 L216.087348,111.909294 Z" id="Fill-3" fill="#FEFEFE"></path>
                    <path d="M246.322844,105.000926 C248.360247,105.000926 250.28708,103.096256 250.28708,100.660599 C250.28708,98.8447298 249.068988,97.4275543 247.385956,97.4275543 L243.244082,97.4275543 L242.180971,105.000926 L246.322844,105.000926 Z M242.291542,96.6963135 C242.3142,96.5422727 242.42477,96.4090727 242.602409,96.4090727 L247.585346,96.4090727 C249.667158,96.4090727 251.393694,98.2031951 251.393694,100.528305 C251.393694,103.074509 249.68891,105.17762 247.474775,105.77566 L249.533929,111.510509 C249.622749,111.688109 249.556587,111.910109 249.312788,111.910109 L248.669302,111.910109 C248.515228,111.910109 248.44816,111.843056 248.403751,111.709856 L246.367254,105.90886 C246.101703,105.930607 245.813494,105.930607 245.547942,105.930607 L242.02599,105.930607 L241.228431,111.621962 C241.206679,111.776909 241.051698,111.910109 240.830557,111.910109 L240.431777,111.910109 C240.27589,111.910109 240.165319,111.776909 240.187071,111.621962 L242.291542,96.6963135 Z" id="Fill-5" fill="#FEFEFE"></path>
                    <path d="M270.866029,106.772486 L268.806874,97.8480857 L268.740713,97.8480857 L264.132992,106.772486 L270.866029,106.772486 Z M260.501375,111.909294 C260.346395,111.909294 260.301079,111.777 260.390804,111.5994 L268.695397,96.2324694 C268.740713,96.1436694 268.806874,96.0775224 268.983606,96.0775224 L269.050674,96.0775224 C269.161244,96.0775224 269.271815,96.0775224 269.316225,96.2324694 L273.236957,111.6438 C273.28046,111.777 273.236957,111.909294 272.993157,111.909294 L272.416739,111.909294 C272.217349,111.909294 272.151188,111.798747 272.129436,111.709947 L271.110735,107.63602 L263.624547,107.63602 L261.498325,111.709947 C261.453915,111.798747 261.343345,111.909294 261.143048,111.909294 L260.501375,111.909294 Z" id="Fill-7" fill="#FEFEFE"></path>
                    <path d="M300.306322,96.6967665 C300.32898,96.5418196 300.48396,96.4095257 300.616282,96.4095257 L301.104788,96.4095257 C301.258862,96.4095257 301.370339,96.5418196 301.346775,96.6967665 L300.019019,106.152154 C299.598487,109.008252 300.88274,111.113175 303.496561,111.113175 C306.109476,111.113175 307.991899,109.030905 308.391585,106.173901 L309.741093,96.6967665 C309.764657,96.5200727 309.851664,96.4095257 310.072805,96.4095257 L310.538653,96.4095257 C310.672788,96.4095257 310.783359,96.5418196 310.760701,96.6967665 L309.431132,106.262701 C308.944439,109.650693 306.596169,112.13075 303.340675,112.13075 C300.306322,112.13075 298.490966,109.650693 298.955001,106.262701 L300.306322,96.6967665 Z" id="Fill-9" fill="#FEFEFE"></path>
                    <path d="M324.097171,96.4754914 C324.141581,96.2987976 324.273903,96.1882506 324.451542,96.1882506 L324.783254,96.1882506 L332.380919,109.938659 L332.424422,109.938659 L334.239777,96.6965853 C334.263341,96.5416384 334.418322,96.4093445 334.573302,96.4093445 L335.015585,96.4093445 C335.171472,96.4093445 335.282043,96.5416384 335.259385,96.6965853 L333.133163,111.842422 C333.111411,112.042675 332.934679,112.130569 332.757041,112.130569 L332.401764,112.130569 L324.849415,98.3357608 L324.82857,98.3357608 L322.966993,111.621328 C322.923489,111.909475 322.63528,111.909475 322.414139,111.909475 L322.214749,111.909475 C322.058862,111.909475 321.948291,111.777181 321.970043,111.621328 L324.097171,96.4754914 Z" id="Fill-11" fill="#FEFEFE"></path>
                    <path d="M355.064247,106.772486 L353.004186,97.8480857 L352.938025,97.8480857 L348.330304,106.772486 L355.064247,106.772486 Z M344.698688,111.909294 C344.544614,111.909294 344.499298,111.777 344.588117,111.5994 L352.892709,96.2324694 C352.938025,96.1436694 353.004186,96.0775224 353.181825,96.0775224 L353.247986,96.0775224 C353.358557,96.0775224 353.469128,96.0775224 353.513537,96.2324694 L357.434269,111.6438 C357.478679,111.777 357.434269,111.909294 357.19047,111.909294 L356.614051,111.909294 C356.415568,111.909294 356.3485,111.798747 356.327655,111.709947 L355.308047,107.63602 L347.822766,107.63602 L345.695637,111.709947 C345.651228,111.798747 345.540657,111.909294 345.340361,111.909294 L344.698688,111.909294 Z" id="Fill-13" fill="#FEFEFE"></path>
                    <path d="M0,127.044348 C0,126.60216 0.398779956,126.247866 0.841063181,126.247866 L1.94677124,126.247866 L20.3513725,145.798364 L20.3957821,145.798364 L20.3957821,127.530936 C20.3957821,127.088748 20.7501525,126.690054 21.235939,126.690054 L25.3062135,126.690054 C25.7484967,126.690054 26.1472767,127.088748 26.1472767,127.530936 L26.1472767,157.297964 C26.1472767,157.741058 25.7484967,158.094446 25.3062135,158.094446 L24.2440087,158.094446 L5.75240087,137.792772 L5.70799129,137.792772 L5.70799129,156.812282 C5.70799129,157.253564 5.35362092,157.652258 4.86783442,157.652258 L0.841063181,157.652258 C0.398779956,157.652258 0,157.253564 0,156.812282 L0,127.044348 Z" id="Fill-15" fill="#FEFEFE"></path>
                    <path d="M33.754095,127.530573 C33.754095,127.088385 34.1528749,126.690598 34.5942519,126.690598 L38.7977551,126.690598 C39.2844479,126.690598 39.6388183,127.088385 39.6388183,127.530573 L39.6388183,145.621308 C39.6388183,149.38081 42.2046048,152.344736 46.0537377,152.344736 C49.9019643,152.344736 52.5130667,149.38081 52.5130667,145.665708 L52.5130667,127.530573 C52.5130667,127.088385 52.8665307,126.690598 53.3532235,126.690598 L57.5558205,126.690598 C57.9981037,126.690598 58.3959773,127.088385 58.3959773,127.530573 L58.3959773,145.931202 C58.3959773,152.65463 53.0441691,158.094083 46.0537377,158.094083 C39.1077159,158.094083 33.754095,152.65463 33.754095,145.931202 L33.754095,127.530573 Z" id="Fill-17" fill="#FEFEFE"></path>
                    <path d="M66.0045176,127.530573 C66.0045176,127.088385 66.3579817,126.690598 66.8446745,126.690598 L84.8514022,126.690598 C85.3371887,126.690598 85.6924654,127.088385 85.6924654,127.530573 L85.6924654,131.157781 C85.6924654,131.599969 85.3371887,131.998663 84.8514022,131.998663 L71.7551059,131.998663 L71.7551059,139.252173 L82.6834893,139.252173 C83.1248662,139.252173 83.5236462,139.649961 83.5236462,140.092149 L83.5236462,143.763757 C83.5236462,144.250344 83.1248662,144.603732 82.6834893,144.603732 L71.7551059,144.603732 L71.7551059,152.344736 L84.8514022,152.344736 C85.3371887,152.344736 85.6924654,152.742524 85.6924654,153.184712 L85.6924654,156.81192 C85.6924654,157.254108 85.3371887,157.651896 84.8514022,157.651896 L66.8446745,157.651896 C66.3579817,157.651896 66.0045176,157.254108 66.0045176,156.81192 L66.0045176,127.530573 Z" id="Fill-19" fill="#FEFEFE"></path>
                    <path d="M87.9911599,127.840286 C87.7256087,127.264898 88.0790728,126.690416 88.7424976,126.690416 L93.2550553,126.690416 C93.6538353,126.690416 93.9193865,126.95591 94.0072993,127.177004 L102.502219,146.196514 L102.811273,146.196514 L111.305286,127.177004 C111.393199,126.95591 111.65875,126.690416 112.058437,126.690416 L116.570994,126.690416 C117.234419,126.690416 117.587883,127.264898 117.322332,127.840286 L103.607927,157.60822 C103.474698,157.873714 103.254463,158.094808 102.855683,158.094808 L102.414306,158.094808 C102.01462,158.094808 101.794384,157.873714 101.661156,157.60822 L87.9911599,127.840286 Z" id="Fill-21" fill="#FEFEFE"></path>
                    <path d="M134.220905,147.080799 L129.798072,137.350856 L129.664844,137.350856 L125.329018,147.080799 L134.220905,147.080799 Z M115.110281,156.501754 L128.86819,126.734726 C129.001419,126.469232 129.22256,126.248138 129.620434,126.248138 L130.063624,126.248138 C130.505,126.248138 130.682639,126.469232 130.814961,126.734726 L144.440547,156.501754 C144.706098,157.077142 144.352634,157.65253 143.68921,157.65253 L139.840077,157.65253 C139.176652,157.65253 138.866691,157.387036 138.557637,156.767248 L136.389724,151.990171 L123.161105,151.990171 L120.994098,156.767248 C120.81646,157.210342 120.418586,157.65253 119.710752,157.65253 L115.860713,157.65253 C115.198194,157.65253 114.84473,157.077142 115.110281,156.501754 L115.110281,156.501754 Z" id="Fill-23" fill="#FEFEFE"></path>
                    <path d="M171.24853,140.800283 C173.592268,140.800283 175.627859,138.766038 175.627859,136.2887 C175.627859,133.944561 173.592268,131.99821 171.24853,131.99821 L164.036051,131.99821 L164.036051,140.800283 L171.24853,140.800283 Z M158.241053,127.53012 C158.241053,127.088838 158.595423,126.690144 159.082116,126.690144 L171.735223,126.690144 C177.043528,126.690144 181.379353,130.936234 181.379353,136.1999 C181.379353,140.269296 178.680338,143.58661 174.832112,145.135173 L180.892661,156.369279 C181.201715,156.944667 180.892661,157.652349 180.140417,157.652349 L175.495536,157.652349 C175.097663,157.652349 174.876521,157.431255 174.786796,157.253655 L168.903885,145.532961 L163.992547,145.532961 L163.992547,156.811467 C163.992547,157.253655 163.594674,157.652349 163.151484,157.652349 L159.082116,157.652349 C158.595423,157.652349 158.241053,157.253655 158.241053,156.811467 L158.241053,127.53012 Z" id="Fill-25" fill="#FEFEFE"></path>
                    <path d="M187.704275,127.530573 C187.704275,127.088385 188.057739,126.690598 188.545339,126.690598 L206.55116,126.690598 C207.037853,126.690598 207.392223,127.088385 207.392223,127.530573 L207.392223,131.157781 C207.392223,131.599969 207.037853,131.998663 206.55116,131.998663 L193.45577,131.998663 L193.45577,139.252173 L204.383247,139.252173 C204.82553,139.252173 205.22431,139.649961 205.22431,140.092149 L205.22431,143.763757 C205.22431,144.250344 204.82553,144.603732 204.383247,144.603732 L193.45577,144.603732 L193.45577,152.344736 L206.55116,152.344736 C207.037853,152.344736 207.392223,152.742524 207.392223,153.184712 L207.392223,156.81192 C207.392223,157.254108 207.037853,157.651896 206.55116,157.651896 L188.545339,157.651896 C188.057739,157.651896 187.704275,157.254108 187.704275,156.81192 L187.704275,127.530573 Z" id="Fill-27" fill="#FEFEFE"></path>
                    <path d="M228.802356,147.080799 L224.377712,137.350856 L224.246295,137.350856 L219.909563,147.080799 L228.802356,147.080799 Z M209.689921,156.501754 L223.449642,126.734726 C223.581964,126.469232 223.803106,126.248138 224.201886,126.248138 L224.643263,126.248138 C225.086452,126.248138 225.263184,126.469232 225.396413,126.734726 L239.021999,156.501754 C239.28755,157.077142 238.934086,157.65253 238.269755,157.65253 L234.421529,157.65253 C233.757197,157.65253 233.447237,157.387036 233.138182,156.767248 L230.969363,151.990171 L217.742557,151.990171 L215.574644,156.767248 C215.397006,157.210342 214.999132,157.65253 214.292204,157.65253 L210.442165,157.65253 C209.779646,157.65253 209.424369,157.077142 209.689921,156.501754 L209.689921,156.501754 Z" id="Fill-29" fill="#FEFEFE"></path>
                    <path d="M243.046323,127.530573 C243.046323,127.088385 243.399787,126.690598 243.887386,126.690598 L247.956755,126.690598 C248.399944,126.690598 248.797818,127.088385 248.797818,127.530573 L248.797818,152.344736 L260.078759,152.344736 C260.566358,152.344736 260.919822,152.742524 260.919822,153.184712 L260.919822,156.81192 C260.919822,157.254108 260.566358,157.651896 260.078759,157.651896 L243.887386,157.651896 C243.399787,157.651896 243.046323,157.254108 243.046323,156.81192 L243.046323,127.530573 Z" id="Fill-31" fill="#FEFEFE"></path>
                    <path d="M265.386973,127.530573 C265.386973,127.088385 265.783941,126.690598 266.22713,126.690598 L270.340908,126.690598 C270.784098,126.690598 271.181971,127.088385 271.181971,127.530573 L271.181971,156.81192 C271.181971,157.254108 270.784098,157.651896 270.340908,157.651896 L266.22713,157.651896 C265.783941,157.651896 265.386973,157.254108 265.386973,156.81192 L265.386973,127.530573 Z" id="Fill-33" fill="#FEFEFE"></path>
                    <path d="M289.983721,152.256027 C295.735216,152.256027 299.936906,147.921137 299.936906,142.126484 C299.936906,136.377137 295.735216,132.042247 289.983721,132.042247 L284.940061,132.042247 L284.940061,152.256027 L289.983721,152.256027 Z M279.232976,127.530664 C279.232976,127.088476 279.58644,126.690688 280.02963,126.690688 L290.514824,126.690688 C299.053246,126.690688 306.043678,133.634304 306.043678,142.126484 C306.043678,150.70837 299.053246,157.651986 290.514824,157.651986 L280.02963,157.651986 C279.58644,157.651986 279.232976,157.254198 279.232976,156.812011 L279.232976,127.530664 Z" id="Fill-35" fill="#FEFEFE"></path>
                    <path d="M326.701114,147.080799 L322.278281,137.350856 L322.145053,137.350856 L317.809227,147.080799 L326.701114,147.080799 Z M307.589584,156.501754 L321.348399,126.734726 C321.481628,126.469232 321.702769,126.248138 322.100643,126.248138 L322.543833,126.248138 C322.98521,126.248138 323.162848,126.469232 323.294264,126.734726 L336.920756,156.501754 C337.186308,157.077142 336.832844,157.65253 336.169419,157.65253 L332.320286,157.65253 C331.656861,157.65253 331.3469,157.387036 331.037846,156.767248 L328.869933,151.990171 L315.641314,151.990171 L313.474308,156.767248 C313.296669,157.210342 312.898796,157.65253 312.190055,157.65253 L308.340922,157.65253 C307.678403,157.65253 307.324033,157.077142 307.589584,156.501754 L307.589584,156.501754 Z" id="Fill-37" fill="#FEFEFE"></path>
                    <path d="M351.695644,152.256027 C357.447139,152.256027 361.64883,147.921137 361.64883,142.126484 C361.64883,136.377137 357.447139,132.042247 351.695644,132.042247 L346.651984,132.042247 L346.651984,152.256027 L351.695644,152.256027 Z M340.945806,127.530664 C340.945806,127.088476 341.298363,126.690688 341.742459,126.690688 L352.226747,126.690688 C360.765169,126.690688 367.755601,133.634304 367.755601,142.126484 C367.755601,150.70837 360.765169,157.651986 352.226747,157.651986 L341.742459,157.651986 C341.298363,157.651986 340.945806,157.254198 340.945806,156.812011 L340.945806,127.530664 Z" id="Fill-39" fill="#FEFEFE"></path>
                    <polygon id="Stroke-41" fill="#FF7E00" fill-rule="nonzero" points="340.55525 1.09901534 345.306216 -0.45929289 417.785379 220.514976 413.034413 222.073285"></polygon>
                </g>
                <path d="M140.303463,73.5429642 L140.303463,42.2364546 C140.303463,41.7635466 140.681789,41.3379294 141.154697,41.3379294 L152.362617,41.3379294 C161.489741,41.3379294 168.961688,48.762585 168.961688,57.8424186 C168.961688,67.0168338 161.489741,74.4414894 152.362617,74.4414894 L141.154697,74.4414894 C140.681789,74.4414894 140.303463,74.0158722 140.303463,73.5429642 Z M146.403976,68.6720118 L151.795127,68.6720118 C157.942931,68.6720118 162.435557,64.0375134 162.435557,57.8424186 C162.435557,51.6946146 157.942931,47.0601162 151.795127,47.0601162 L146.403976,47.0601162 L146.403976,68.6720118 Z M175.204073,73.5429642 L175.204073,42.2364546 C175.204073,41.7635466 175.62969,41.3379294 176.102598,41.3379294 L180.500643,41.3379294 C180.973551,41.3379294 181.399168,41.7635466 181.399168,42.2364546 L181.399168,73.5429642 C181.399168,74.0158722 180.973551,74.4414894 180.500643,74.4414894 L176.102598,74.4414894 C175.62969,74.4414894 175.204073,74.0158722 175.204073,73.5429642 Z M188.303625,71.225715 C187.878008,70.8000978 187.641554,70.5636438 188.067171,69.806991 L189.76964,66.8749614 C190.147966,66.2128902 190.95191,66.2128902 191.377527,66.5439258 C191.613981,66.6857982 195.444536,69.4759554 198.518438,69.4759554 C200.977559,69.4759554 202.8219,67.8680682 202.8219,65.8345638 C202.8219,63.422733 200.788396,61.767555 196.815969,60.1596678 C192.370634,58.3626174 187.925298,55.5251694 187.925298,49.944855 C187.925298,45.7359738 191.046491,40.8650214 198.565728,40.8650214 C203.38939,40.8650214 207.078072,43.324143 208.023888,44.033505 C208.496796,44.3172498 208.638669,45.1211934 208.307633,45.5941014 L206.510583,48.289677 C206.132256,48.8571666 205.422894,49.235493 204.855405,48.8571666 C204.477078,48.6207126 200.882978,46.2561726 198.281984,46.2561726 C195.586408,46.2561726 194.120393,48.053223 194.120393,49.5665286 C194.120393,51.7891962 195.870153,53.3025018 199.700708,54.8630982 C204.287915,56.7074394 209.584485,59.4503058 209.584485,65.550819 C209.584485,70.4217714 205.375604,74.9143974 198.707601,74.9143974 C192.74896,74.9143974 189.249441,72.1242402 188.303625,71.225715 Z M215.637707,73.5429642 L215.637707,42.2364546 C215.637707,41.7635466 216.016034,41.3379294 216.536232,41.3379294 L235.783588,41.3379294 C236.303787,41.3379294 236.682113,41.7635466 236.682113,42.2364546 L236.682113,46.1143002 C236.682113,46.5872082 236.303787,47.0128254 235.783588,47.0128254 L221.785511,47.0128254 L221.785511,54.7685166 L233.466339,54.7685166 C233.939247,54.7685166 234.364864,55.1941338 234.364864,55.6670418 L234.364864,59.5921782 C234.364864,60.112377 233.939247,60.4907034 233.466339,60.4907034 L221.785511,60.4907034 L221.785511,68.7665934 L235.783588,68.7665934 C236.303787,68.7665934 236.682113,69.1922106 236.682113,69.6651186 L236.682113,73.5429642 C236.682113,74.0158722 236.303787,74.4414894 235.783588,74.4414894 L216.536232,74.4414894 C216.016034,74.4414894 215.637707,74.0158722 215.637707,73.5429642 Z M243.444698,73.5429642 L243.444698,41.7162558 C243.444698,41.2433478 243.870315,40.8650214 244.343223,40.8650214 L245.525493,40.8650214 L265.198466,61.767555 L265.245756,61.767555 L265.245756,42.2364546 C265.245756,41.7635466 265.624083,41.3379294 266.144282,41.3379294 L270.495035,41.3379294 C270.967943,41.3379294 271.39356,41.7635466 271.39356,42.2364546 L271.39356,74.063163 C271.39356,74.536071 270.967943,74.9143974 270.495035,74.9143974 L269.360056,74.9143974 L249.592502,53.2079202 L249.545211,53.2079202 L249.545211,73.5429642 C249.545211,74.0158722 249.166884,74.4414894 248.646686,74.4414894 L244.343223,74.4414894 C243.870315,74.4414894 243.444698,74.0158722 243.444698,73.5429642 Z M251.720588,37.1290482 L250.349154,36.1359414 C250.018119,35.8994874 249.923537,35.3792886 250.06541,35.048253 C250.538318,34.1970186 252.098914,31.0758258 254.983653,31.0758258 C257.442774,31.0758258 258.246718,33.6768198 260.043768,33.6768198 C261.698946,33.6768198 261.746237,30.7447902 263.11767,31.737897 L264.441813,32.683713 C264.86743,33.0147486 264.820139,33.5822382 264.489104,34.1497278 C263.968905,35.048253 262.597472,37.7438286 259.901896,37.7438286 C257.442774,37.7438286 256.307795,35.0955438 254.747199,35.0955438 C253.04473,35.0955438 253.139312,38.0275734 251.720588,37.1290482 Z M276.500967,74.4414894 C275.791605,74.4414894 275.413278,73.826709 275.697023,73.2119286 L290.404462,41.3852202 C290.546334,41.1014754 290.782788,40.8650214 291.208406,40.8650214 L291.681314,40.8650214 C292.154222,40.8650214 292.343385,41.1014754 292.485257,41.3852202 L307.050824,73.2119286 C307.334568,73.826709 306.956242,74.4414894 306.24688,74.4414894 L302.13258,74.4414894 C301.423218,74.4414894 301.092183,74.1577446 300.761147,73.4956734 L298.443898,68.388267 L284.303949,68.388267 L281.9867,73.4956734 C281.797536,73.9685814 281.371919,74.4414894 280.615266,74.4414894 L276.500967,74.4414894 Z M286.621198,63.1389882 L296.126649,63.1389882 L291.397569,52.7350122 L291.255696,52.7350122 L286.621198,63.1389882 Z M311.354286,73.5429642 L311.354286,42.2364546 C311.354286,41.7635466 311.732613,41.3379294 312.252812,41.3379294 L325.77798,41.3379294 C331.452876,41.3379294 336.087375,45.8778462 336.087375,51.5054514 C336.087375,55.856205 333.202636,59.403015 329.088336,61.058193 L335.567176,73.0700562 C335.898212,73.6848366 335.567176,74.4414894 334.763232,74.4414894 L329.797698,74.4414894 C329.372081,74.4414894 329.135627,74.2050354 329.041046,74.0158722 L322.751369,61.4838102 L317.50209,61.4838102 L317.50209,73.5429642 C317.50209,74.0158722 317.076473,74.4414894 316.603565,74.4414894 L312.252812,74.4414894 C311.732613,74.4414894 311.354286,74.0158722 311.354286,73.5429642 Z M317.549381,56.4236946 L325.257782,56.4236946 C327.764194,56.4236946 329.939571,54.2483178 329.939571,51.600033 C329.939571,49.0936206 327.764194,47.0128254 325.257782,47.0128254 L317.549381,47.0128254 L317.549381,56.4236946 Z" id="DISEÑAR" fill="#FEFEFE" fill-rule="nonzero"></path>
                <g id="Group-56" transform="translate(385.000000, 28.441489)" fill="#FEFEFE">
                    <path d="M106.422229,151.222174 C113.162776,151.222174 118.724905,145.699877 118.724905,138.944649 C118.724905,132.190329 113.162776,126.56082 106.422229,126.56082 C99.681682,126.56082 94.1730345,132.190329 94.1730345,138.944649 C94.1730345,145.699877 99.681682,151.222174 106.422229,151.222174 M106.422229,119.591169 C117.119538,119.591169 125.677567,128.222597 125.677567,138.944649 C125.677567,149.667609 117.119538,158.191826 106.422229,158.191826 C95.7240129,158.191826 87.2194662,149.667609 87.2194662,138.944649 C87.2194662,128.222597 95.7240129,119.591169 106.422229,119.591169" id="Fill-44" opacity="0.1"></path>
                    <path d="M13.2341698,31.4087691 C20.1877381,31.4087691 25.2685295,26.1545006 25.2685295,19.1312434 C25.2685295,12.1625006 20.1877381,6.908232 13.2341698,6.908232 L7.13540719,6.908232 L7.13540719,31.4087691 L13.2341698,31.4087691 Z M0.236227338,1.44044914 C0.236227338,0.903483429 0.664989928,0.421032 1.1989036,0.421032 L13.8750475,0.421032 C24.1997957,0.421032 32.649954,8.83803771 32.649954,19.1312434 C32.649954,29.5325691 24.1997957,37.9495749 13.8750475,37.9495749 L1.1989036,37.9495749 C0.664989928,37.9495749 0.236227338,37.4671234 0.236227338,36.9310663 L0.236227338,1.44044914 Z" id="Fill-46" opacity="0.3"></path>
                    <path d="M66.8029338,1.44008571 C66.8029338,0.90312 67.2842719,0.420668571 67.8199986,0.420668571 L72.7938259,0.420668571 C73.3277396,0.420668571 73.8099842,0.90312 73.8099842,1.44008571 L73.8099842,36.9307029 C73.8099842,37.46676 73.3277396,37.9492114 72.7938259,37.9492114 L67.8199986,37.9492114 C67.2842719,37.9492114 66.8029338,37.46676 66.8029338,36.9307029 L66.8029338,1.44008571 Z" id="Fill-48" opacity="0.3"></path>
                    <path d="M18.0595165,92.1370474 L19.9857755,88.8134931 C20.4145381,88.0630131 21.3228259,88.0630131 21.804164,88.4382531 C22.0715741,88.5981617 26.4045237,91.7618074 29.8808547,91.7618074 C32.6619194,91.7618074 34.747718,89.9392131 34.747718,87.6332589 C34.747718,84.8993674 32.4479914,83.0231674 27.9555022,81.2005731 C22.9272863,79.1626474 17.8990705,75.9463046 17.8990705,69.6199217 C17.8990705,64.8490131 21.4297899,59.326716 29.9343367,59.326716 C35.3904086,59.326716 39.5620058,62.1142131 40.631646,62.9192074 C41.1655597,63.2399331 41.3269122,64.1521389 40.9534446,64.688196 L38.9202216,67.7437217 C38.4923655,68.3869903 37.6892288,68.815836 37.0474446,68.3869903 C36.620495,68.1189617 32.5549554,65.438676 29.6125381,65.438676 C26.5640633,65.438676 24.9061209,67.4756931 24.9061209,69.191076 C24.9061209,71.7114531 26.8849554,73.426836 31.217905,75.1958246 C36.4056604,77.2864474 42.3965525,80.3955789 42.3965525,87.3116246 C42.3965525,92.8339217 37.6366532,97.9273731 30.0947827,97.9273731 C23.3551424,97.9273731 19.3974734,94.7637274 18.3278331,93.7452189 C17.846495,93.2627674 17.5781784,92.9947389 18.0595165,92.1370474" id="Fill-50" opacity="0.2"></path>
                    <path d="M71.8584345,60.8809183 C71.8584345,60.3457697 72.2871971,59.8624097 72.8754993,59.8624097 L94.6444921,59.8624097 C95.2327942,59.8624097 95.6606504,60.3457697 95.6606504,60.8809183 L95.6606504,65.2774954 C95.6606504,65.8135526 95.2327942,66.296004 94.6444921,66.296004 L78.8120029,66.296004 L78.8120029,75.0882497 L92.0238734,75.0882497 C92.5586935,75.0882497 93.0400317,75.5707011 93.0400317,76.1067583 L93.0400317,80.5569411 C93.0400317,81.146604 92.5586935,81.5754497 92.0238734,81.5754497 L78.8120029,81.5754497 L78.8120029,90.9573583 L94.6444921,90.9573583 C95.2327942,90.9573583 95.6606504,91.4407183 95.6606504,91.9758669 L95.6606504,96.372444 C95.6606504,96.9085011 95.2327942,97.3909526 94.6444921,97.3909526 L72.8754993,97.3909526 C72.2871971,97.3909526 71.8584345,96.9085011 71.8584345,96.372444 L71.8584345,60.8809183 Z" id="Fill-52" opacity="0.2"></path>
                    <path d="M42.2324806,114.229779 C41.8590129,113.962659 41.7520489,113.372088 41.9115885,112.996848 C42.4464086,112.031945 44.2113151,108.493059 47.4746245,108.493059 C50.2565957,108.493059 51.1648835,111.442282 53.1981065,111.442282 C55.069977,111.442282 55.1243655,108.117819 56.6753439,109.244448 L58.1728403,110.316562 C58.6532719,110.691802 58.6006964,111.335071 58.2263223,111.978339 C57.6371137,112.996848 56.0861353,116.052374 53.0376604,116.052374 C50.2565957,116.052374 48.9730273,113.050454 47.2063079,113.050454 C45.2818619,113.050454 45.3879194,116.374008 43.783459,115.355499 L42.2324806,114.229779 Z M34.4241065,120.556162 C34.4241065,120.020105 34.9054446,119.591259 35.4402647,119.591259 L36.7773151,119.591259 L59.027646,143.287711 L59.0820345,143.287711 L59.0820345,121.145825 C59.0820345,120.609768 59.5098906,120.127317 60.0981928,120.127317 L65.0194446,120.127317 C65.5533583,120.127317 66.0346964,120.609768 66.0346964,121.145825 L66.0346964,157.227014 C66.0346964,157.763071 65.5533583,158.191917 65.0194446,158.191917 L63.7358763,158.191917 L41.3767683,133.583259 L41.3232863,133.583259 L41.3232863,156.637351 C41.3232863,157.172499 40.8954302,157.654951 40.3071281,157.654951 L35.4402647,157.654951 C34.9054446,157.654951 34.4241065,157.172499 34.4241065,156.637351 L34.4241065,120.556162 Z" id="Fill-54" opacity="0.1"></path>
                </g>
            </g>
        </g>
    </g>
</svg>