<?xml version="1.0" encoding="UTF-8"?>
<svg width="536px" height="224px" viewBox="0 0 536 224" version="1.1" xmlns="http://www.w3.org/2000/svg" xmlns:xlink="http://www.w3.org/1999/xlink">
    <!-- Generator: Sketch 53.2 (72643) - https://sketchapp.com -->
    <title>Group 79</title>
    <desc>Created with Sketch.</desc>
    <g id="Arquitectura" stroke="none" stroke-width="1" fill="none" fill-rule="evenodd">
        <g id="Desktop-2" transform="translate(-734.000000, -177.000000)">
            <g id="Group-79" transform="translate(734.000000, 178.000000)">
                <path d="M204.126765,105.678534 C206.091807,105.678534 207.975542,103.685374 207.975542,101.285338 C207.975542,99.4640477 206.803878,98.0066643 205.151223,98.0066643 L201.868166,98.0066643 L200.822312,105.678534 L204.126765,105.678534 Z M200.990059,97.2779726 C201.009744,97.1280253 201.156951,97 201.281905,97 L205.360051,97 C207.368742,97 209,98.8861803 209,101.178358 C209,104.17906 206.678067,106.664153 204.043747,106.664153 L200.67596,106.664153 L199.986142,111.72115 C199.964745,111.871975 199.818394,112 199.60871,112 L199.232134,112 C199.086639,112 198.981369,111.871975 199.002765,111.72115 L200.990059,97.2779726 Z" id="Fill-1" fill="#FFFFFE"></path>
                <path d="M226.596963,107.13307 L224.522011,98.6783997 L224.456284,98.6783997 L219.815257,107.13307 L226.596963,107.13307 Z M216.157389,112 C216.001289,112 215.955645,111.874657 216.046019,111.706387 L224.410641,97.1468063 C224.456284,97.0626717 224.522011,97 224.700933,97 L224.768486,97 C224.879856,97 224.991226,97 225.035956,97.1468063 L228.985029,111.748455 C229.028847,111.874657 228.985029,112 228.738554,112 L228.157969,112 C227.958051,112 227.891412,111.895261 227.869503,111.811126 L226.842525,107.951236 L219.303137,107.951236 L217.161546,111.811126 C217.116815,111.895261 217.005445,112 216.803701,112 L216.157389,112 Z" id="Fill-3" fill="#FFFFFE"></path>
                <path d="M247.476313,105.314626 C249.293873,105.314626 251.011985,103.471414 251.011985,101.114346 C251.011985,99.3570677 249.92533,97.9856191 248.424711,97.9856191 L244.72976,97.9856191 L243.781362,105.314626 L247.476313,105.314626 Z M243.880002,97.2779726 C243.900215,97.1289021 243.998855,97 244.157325,97 L248.602586,97 C250.459763,97 252,98.735356 252,100.986321 C252,103.450368 250.479168,105.485619 248.503137,106.064363 L250.34091,111.61417 C250.419337,111.78604 250.361124,112 250.143631,112 L249.569579,112 C249.43213,112 249.3723,111.935987 249.332682,111.807085 L247.515931,106.193266 C247.279033,106.214311 247.021923,106.214311 246.785026,106.214311 L243.643105,106.214311 L242.931604,111.72115 C242.9122,111.871975 242.773942,112 242.576663,112 L242.220912,112 C242.081846,112 241.982398,111.871975 242.002611,111.72115 L243.880002,97.2779726 Z" id="Fill-5" fill="#FFFFFE"></path>
                <path d="M272.596963,107.13307 L270.522011,98.6783997 L270.456284,98.6783997 L265.815257,107.13307 L272.596963,107.13307 Z M262.157389,112 C262.001289,112 261.955645,111.874657 262.046019,111.706387 L270.410641,97.1468063 C270.456284,97.0626717 270.522011,97 270.700933,97 L270.768486,97 C270.879856,97 270.991226,97 271.035956,97.1468063 L274.985029,111.748455 C275.028847,111.874657 274.985029,112 274.738554,112 L274.157969,112 C273.958051,112 273.891412,111.895261 273.869503,111.811126 L272.842525,107.951236 L265.303137,107.951236 L263.161546,111.811126 C263.116815,111.895261 263.005445,112 262.803701,112 L262.157389,112 Z" id="Fill-7" fill="#FFFFFE"></path>
                <path d="M302.43763,97.2740634 C302.460516,97.1262248 302.617053,97 302.750705,97 L303.243202,97 C303.399739,97 303.511421,97.1262248 303.488535,97.2740634 L302.146526,106.295677 C301.72177,109.020749 303.019839,111.028242 305.659917,111.028242 C308.29908,111.028242 310.200413,109.042363 310.603199,106.316427 L311.967178,97.2740634 C311.990064,97.1054755 312.07886,97 312.303138,97 L312.77275,97 C312.907317,97 313.019914,97.1262248 312.997028,97.2740634 L311.654104,106.401153 C311.162522,109.633718 308.790662,112 305.501549,112 C302.43763,112 300.604039,109.633718 301.072735,106.401153 L302.43763,97.2740634 Z" id="Fill-9" fill="#FFFFFE"></path>
                <path d="M325.08203,97.2702472 C325.125457,97.1040068 325.255736,97 325.427669,97 L325.752923,97 L333.18238,109.936914 L333.22492,109.936914 L335.000971,97.4782609 C335.023127,97.3333333 335.17379,97.2080136 335.325339,97.2080136 L335.758717,97.2080136 C335.911152,97.2080136 336.019275,97.3333333 335.997119,97.4782609 L333.91797,111.7289 C333.8967,111.916454 333.72388,112 333.550175,112 L333.202764,112 L325.81762,99.0204604 L325.797236,99.0204604 L323.976873,111.520034 C323.934333,111.791134 323.652505,111.791134 323.435373,111.791134 L323.241283,111.791134 C323.088848,111.791134 322.980725,111.666667 323.002881,111.520034 L325.08203,97.2702472 Z" id="Fill-11" fill="#FFFFFE"></path>
                <path d="M356.596963,107.13307 L354.522011,98.6783997 L354.456284,98.6783997 L349.815257,107.13307 L356.596963,107.13307 Z M346.157389,112 C346.001289,112 345.955645,111.874657 346.046019,111.706387 L354.410641,97.1468063 C354.456284,97.0626717 354.522011,97 354.700933,97 L354.768486,97 C354.879856,97 354.991226,97 355.035956,97.1468063 L358.985029,111.748455 C359.028847,111.874657 358.985029,112 358.738554,112 L358.158882,112 C357.958051,112 357.891412,111.895261 357.869503,111.811126 L356.842525,107.951236 L349.303137,107.951236 L347.161546,111.811126 C347.116815,111.895261 347.005445,112 346.803701,112 L346.157389,112 Z" id="Fill-13" fill="#FFFFFE"></path>
                <path d="M0,127.800319 C0,127.356001 0.381282496,127 0.804159445,127 L1.86135182,127 L19.457539,146.644682 L19.5008666,146.644682 L19.5008666,128.289251 C19.5008666,127.844933 19.8388215,127.444318 20.3032929,127.444318 L24.1958406,127.444318 C24.6187175,127.444318 25,127.844933 25,128.289251 L25,158.199681 C25,158.64491 24.6187175,159 24.1958406,159 L23.1802426,159 L5.5,138.600524 L5.45753899,138.600524 L5.45753899,157.710749 C5.45753899,158.155067 5.1187175,158.555682 4.6542461,158.555682 L0.804159445,158.555682 C0.381282496,158.555682 0,158.155067 0,157.710749 L0,127.800319 Z" id="Fill-15" fill="#FFFFFE"></path>
                <path d="M34,127.829183 C34,127.392677 34.3883924,127 34.8182721,127 L38.9122807,127 C39.3862959,127 39.7305528,127.392677 39.7305528,127.829183 L39.7305528,145.68748 C39.7305528,149.398678 42.2303873,152.324523 45.9792563,152.324523 C49.7272426,152.324523 52.2703299,149.398678 52.2703299,145.730415 L52.2703299,127.829183 C52.2703299,127.392677 52.6145868,127 53.088602,127 L57.1817279,127 C57.6124903,127 58,127.392677 58,127.829183 L58,145.992498 C58,152.629541 52.7875979,158 45.9792563,158 C39.2141675,158 34,152.629541 34,145.992498 L34,127.829183 Z" id="Fill-17" fill="#FFFFFE"></path>
                <path d="M66,127.841025 C66,127.398285 66.3590664,127 66.8534733,127 L85.145606,127 C85.6390922,127 86,127.398285 86,127.841025 L86,131.472768 C86,131.915508 85.6390922,132.313793 85.145606,132.313793 L71.8417346,132.313793 L71.8417346,139.577278 L82.943332,139.577278 C83.3917046,139.577278 83.7968052,139.975563 83.7968052,140.418303 L83.7968052,144.094501 C83.7968052,144.58079 83.3917046,144.935526 82.943332,144.935526 L71.8417346,144.935526 L71.8417346,152.686207 L85.145606,152.686207 C85.6390922,152.686207 86,153.084492 86,153.527232 L86,157.158975 C86,157.601715 85.6390922,158 85.145606,158 L66.8534733,158 C66.3590664,158 66,157.601715 66,157.158975 L66,127.841025 Z" id="Fill-19" fill="#FFFFFE"></path>
                <path d="M87.0902422,128.135063 C86.8202687,127.567084 87.179619,127 87.8540919,127 L92.4417976,127 C92.8472184,127 93.1171919,127.262075 93.2065687,127.480322 L101.842033,146.254919 L102.157156,146.254919 L110.79262,127.480322 C110.881997,127.262075 111.15197,127 111.558313,127 L116.146018,127 C116.81957,127 117.179842,127.567084 116.909868,128.135063 L102.967076,157.519678 C102.831629,157.781753 102.607726,158 102.202305,158 L101.752656,158 C101.347235,158 101.123333,157.781753 100.987885,157.519678 L87.0902422,128.135063 Z" id="Fill-21" fill="#FFFFFE"></path>
                <path d="M134.519965,147.564401 L130.022574,137.95975 L129.887128,137.95975 L125.480035,147.564401 L134.519965,147.564401 Z M115.090242,156.864937 L129.07721,127.480322 C129.213579,127.218247 129.438402,127 129.8429,127 L130.292547,127 C130.742194,127 130.92279,127.218247 131.056394,127.480322 L144.909758,156.864937 C145.179731,157.432021 144.820382,158 144.145911,158 L140.232693,158 C139.558222,158 139.243101,157.737925 138.928901,157.127013 L136.723972,152.411449 L123.276028,152.411449 L121.072942,157.127013 C120.892346,157.563506 120.487848,158 119.767307,158 L115.854089,158 C115.179618,158 114.820269,157.432021 115.090242,156.864937 L115.090242,156.864937 Z" id="Fill-23" fill="#FFFFFE"></path>
                <path d="M170.928829,141.127363 C173.259459,141.127363 175.281982,139.090635 175.281982,136.610272 C175.281982,134.263272 173.259459,132.314545 170.928829,132.314545 L163.76036,132.314545 L163.76036,141.127363 L170.928829,141.127363 Z M158,127.841908 C158,127.399181 158.351351,127 158.835135,127 L171.412613,127 C176.689189,127 181,131.251273 181,136.521364 C181,140.595727 178.316216,143.917091 174.490991,145.467545 L180.515315,156.715364 C180.823423,157.291454 180.515315,158 179.767568,158 L175.15045,158 C174.754955,158 174.535135,157.778636 174.445946,157.600819 L168.598198,145.865818 L163.716216,145.865818 L163.716216,157.158092 C163.716216,157.600819 163.320721,158 162.881081,158 L158.835135,158 C158.351351,158 158,157.600819 158,157.158092 L158,127.841908 Z" id="Fill-25" fill="#FFFFFE"></path>
                <path d="M188,127.841025 C188,127.398285 188.359066,127 188.853473,127 L207.145606,127 C207.639092,127 208,127.398285 208,127.841025 L208,131.472768 C208,131.915508 207.639092,132.313793 207.145606,132.313793 L193.841735,132.313793 L193.841735,139.577278 L204.943332,139.577278 C205.391705,139.577278 205.796805,139.975563 205.796805,140.418303 L205.796805,144.094501 C205.796805,144.58079 205.391705,144.935526 204.943332,144.935526 L193.841735,144.935526 L193.841735,152.686207 L207.145606,152.686207 C207.639092,152.686207 208,153.084492 208,153.527232 L208,157.158975 C208,157.601715 207.639092,158 207.145606,158 L188.853473,158 C188.359066,158 188,157.601715 188,157.158975 L188,127.841025 Z" id="Fill-27" fill="#FFFFFE"></path>
                <path d="M230.520252,147.564401 L226.022058,137.95975 L225.887536,137.95975 L221.479638,147.564401 L230.520252,147.564401 Z M211.090118,156.864937 L225.07764,127.480322 C225.212162,127.218247 225.437901,127 225.84331,127 L226.292023,127 C226.74258,127 226.921328,127.218247 227.056772,127.480322 L240.909771,156.864937 C241.179737,157.432021 240.820397,158 240.145023,158 L236.232829,158 C235.556534,158 235.242342,157.737925 234.927229,157.127013 L232.72328,152.411449 L219.27661,152.411449 L217.071739,157.127013 C216.89207,157.563506 216.487582,158 215.767982,158 L211.854867,158 C211.180414,158 210.820153,157.432021 211.090118,156.864937 L211.090118,156.864937 Z" id="Fill-29" fill="#FFFFFE"></path>
                <path d="M244,127.841025 C244,127.398285 244.355984,127 244.846146,127 L248.945436,127 C249.391785,127 249.791582,127.398285 249.791582,127.841025 L249.791582,152.686207 L261.153854,152.686207 C261.644016,152.686207 262,153.084492 262,153.527232 L262,157.158975 C262,157.601715 261.644016,158 261.153854,158 L244.846146,158 C244.355984,158 244,157.601715 244,157.158975 L244,127.841025 Z" id="Fill-31" fill="#FFFFFE"></path>
                <path d="M266,127.841025 C266,127.398285 266.411949,127 266.869878,127 L271.129184,127 C271.588051,127 272,127.398285 272,127.841025 L272,157.158975 C272,157.601715 271.588051,158 271.129184,158 L266.869878,158 C266.411949,158 266,157.601715 266,157.158975 L266,127.841025 Z" id="Fill-33" fill="#FFFFFE"></path>
                <path d="M291.227638,152.597296 C297.233318,152.597296 301.623284,148.256987 301.623284,142.455091 C301.623284,136.698557 297.233318,132.358249 291.227638,132.358249 L285.960246,132.358249 L285.960246,152.597296 L291.227638,152.597296 Z M280,127.841025 C280,127.398285 280.369143,127 280.831992,127 L291.7823,127 C300.699479,127 308,133.952296 308,142.455091 C308,151.046797 300.699479,158 291.7823,158 L280.831992,158 C280.369143,158 280,157.601715 280,157.158975 L280,127.841025 Z" id="Fill-35" fill="#FFFFFE"></path>
                <path d="M328.519965,147.564401 L324.022574,137.95975 L323.887128,137.95975 L319.480035,147.564401 L328.519965,147.564401 Z M309.090242,156.864937 L323.07721,127.480322 C323.213579,127.218247 323.438402,127 323.8429,127 L324.292547,127 C324.742194,127 324.92279,127.218247 325.056394,127.480322 L338.909758,156.864937 C339.179731,157.432021 338.820382,158 338.145911,158 L334.232693,158 C333.558222,158 333.243101,157.737925 332.928901,157.127013 L330.723972,152.411449 L317.276028,152.411449 L315.072942,157.127013 C314.892346,157.563506 314.487848,158 313.768229,158 L309.854089,158 C309.179618,158 308.820269,157.432021 309.090242,156.864937 L309.090242,156.864937 Z" id="Fill-37" fill="#FFFFFE"></path>
                <path d="M352.227638,152.597296 C358.233318,152.597296 362.623284,148.256987 362.623284,142.455091 C362.623284,136.698557 358.233318,132.358249 352.227638,132.358249 L346.960246,132.358249 L346.960246,152.597296 L352.227638,152.597296 Z M341,127.841025 C341,127.398285 341.369143,127 341.831992,127 L352.7823,127 C361.699479,127 369,133.952296 369,142.455091 C369,151.046797 361.699479,158 352.7823,158 L341.831992,158 C341.369143,158 341,157.601715 341,157.158975 L341,127.841025 Z" id="Fill-39" fill="#FFFFFE"></path>
                <g id="Group-44" transform="translate(345.000000, 0.000000)">
                    <path d="M0.340576543,0.319770612 L72.4132062,221.29404" id="Fill-41" fill="#010618"></path>
                    <path d="M0.340576543,0.319770612 L72.4132062,221.29404" id="Stroke-43" stroke="#0032D6" stroke-width="5"></path>
                </g>
                <path d="M84.5651965,54 C89.2004415,54 92.5500049,55.4665852 95.6710637,58.2622632 C96.0831059,58.6289095 96.0831059,59.178879 95.7160305,59.5455252 L92.9170803,62.4328648 C92.5958893,62.8004278 92.137045,62.8004278 91.7699696,62.4328648 C89.8428236,60.7380423 87.2723778,59.7288484 84.7028498,59.7288484 C78.8296429,59.7288484 74.4706222,64.6336592 74.4706222,70.4074218 C74.4706222,76.1371868 78.8755273,80.9952503 84.7487343,80.9952503 C87.5018,80.9952503 89.8428236,79.9420588 91.7699696,78.383812 C92.137045,78.0620799 92.6417737,78.1088273 92.9170803,78.383812 L95.7619149,81.3169824 C96.129908,81.6368813 96.0372215,82.2335981 95.7160305,82.553497 C92.5958893,85.5792456 88.6498284,87 84.5651965,87 C75.3883107,87 68,79.7129048 68,70.5458308 C68,61.3787567 75.3883107,54 84.5651965,54" id="Fill-45" fill="#FFFFFE"></path>
                <path d="M115.477053,81.0419977 C121.260681,81.0419977 126.033712,76.3214266 126.033712,70.5458308 C126.033712,64.7711516 121.260681,59.9580023 115.477053,59.9580023 C109.694342,59.9580023 104.967206,64.7711516 104.967206,70.5458308 C104.967206,76.3214266 109.694342,81.0419977 115.477053,81.0419977 M115.477053,54 C124.656876,54 132,61.3787567 132,70.5458308 C132,79.7129048 124.656876,87 115.477053,87 C106.298148,87 99,79.7129048 99,70.5458308 C99,61.3787567 106.298148,54 115.477053,54" id="Fill-47" fill="#FFFFFE"></path>
                <path d="M140.485428,54.6874618 C140.532326,54.3208155 140.808194,54 141.313034,54 L142.048684,54 C142.417428,54 142.692377,54.1833231 142.831231,54.4583079 L152.946416,76.0922727 L153.08435,76.0922727 L163.200455,54.4583079 C163.338389,54.1833231 163.56828,54 163.982083,54 L164.717733,54 C165.223492,54 165.49936,54.3208155 165.545339,54.6874618 L170.970756,85.487584 C171.10961,86.129215 170.740865,86.5416921 170.14315,86.5416921 L165.959142,86.5416921 C165.545339,86.5416921 165.177514,86.1750458 165.085557,85.8542303 L162.372849,68.4834454 L162.233995,68.4834454 L154.187825,86.4958613 C154.095869,86.7708461 153.82,87 153.406197,87 L152.578591,87 C152.164788,87 151.934898,86.7708461 151.796963,86.4958613 L143.657918,68.4834454 L143.520903,68.4834454 L140.853253,85.8542303 C140.808194,86.1750458 140.43945,86.5416921 140.025647,86.5416921 L135.887617,86.5416921 C135.289901,86.5416921 134.922076,86.129215 135.014032,85.487584 L140.485428,54.6874618 Z" id="Fill-49" fill="#FFFFFE"></path>
                <path d="M178,55.8562898 C178,55.405611 178.38775,55 178.818583,55 L182.912361,55 C183.386278,55 183.730083,55.405611 183.730083,55.8562898 L183.730083,74.2899555 C183.730083,78.1207256 186.229778,81.1411751 189.978028,81.1411751 C193.727139,81.1411751 196.269055,78.1207256 196.269055,74.3350234 L196.269055,55.8562898 C196.269055,55.405611 196.613722,55 197.086777,55 L201.180555,55 C201.611388,55 202,55.405611 202,55.8562898 L202,74.6054307 C202,81.455749 196.786055,87 189.978028,87 C183.213945,87 178,81.455749 178,74.6054307 L178,55.8562898 Z" id="Fill-51" fill="#FFFFFE"></path>
                <path d="M211,54.8240376 C211,54.3657297 211.426353,54 211.900078,54 L213.084391,54 L232.793253,74.2581245 L232.840625,74.2581245 L232.840625,55.3290928 C232.840625,54.870785 233.219605,54.4583079 233.740703,54.4583079 L238.099922,54.4583079 C238.573647,54.4583079 239,54.870785 239,55.3290928 L239,86.1741292 C239,86.6324371 238.573647,87 238.099922,87 L236.962034,87 L217.159375,65.9618355 L217.112002,65.9618355 L217.112002,85.6699906 C217.112002,86.1282984 216.733022,86.5416921 216.211924,86.5416921 L211.900078,86.5416921 C211.426353,86.5416921 211,86.1282984 211,85.6699906 L211,54.8240376 Z" id="Fill-53" fill="#FFFFFE"></path>
                <path d="M246,54.8685218 C246,54.4114051 246.412151,54 246.870096,54 L251.129904,54 C251.587849,54 252,54.4114051 252,54.8685218 L252,85.1314782 C252,85.5885949 251.587849,86 251.129904,86 L246.870096,86 C246.412151,86 246,85.5885949 246,85.1314782 L246,54.8685218 Z" id="Fill-55" fill="#FFFFFE"></path>
                <path d="M274.565197,54 C279.200442,54 282.550005,55.4665852 285.671064,58.2622632 C286.083106,58.6289095 286.083106,59.178879 285.71603,59.5455252 L282.91708,62.4328648 C282.595889,62.8004278 282.137045,62.8004278 281.76997,62.4328648 C279.842824,60.7380423 277.272378,59.7288484 274.70285,59.7288484 C268.829643,59.7288484 264.470622,64.6336592 264.470622,70.4074218 C264.470622,76.1371868 268.875527,80.9952503 274.748734,80.9952503 C277.5018,80.9952503 279.842824,79.9420588 281.76997,78.383812 C282.137045,78.0620799 282.641774,78.1088273 282.91708,78.383812 L285.761915,81.3169824 C286.129908,81.6368813 286.037221,82.2335981 285.71603,82.553497 C282.595889,85.5792456 278.649828,87 274.565197,87 C265.388311,87 258,79.7129048 258,70.5458308 C258,61.3787567 265.388311,54 274.565197,54" id="Fill-57" fill="#FFFFFE"></path>
                <path d="M306.170855,75.2278745 L301.522644,65.3129401 L301.384155,65.3129401 L296.828889,75.2278745 L306.170855,75.2278745 Z M286.092738,84.828235 L300.546714,54.4957467 C300.687062,54.2253394 300.919426,54 301.337682,54 L301.80241,54 C302.267138,54 302.4521,54.2253394 302.591518,54.4957467 L316.907006,84.828235 C317.185843,85.4141175 316.813131,86 316.116039,86 L312.073833,86 C311.37674,86 311.050501,85.7295927 310.725192,85.0986423 L308.448023,80.2313109 L294.55172,80.2313109 L292.274552,85.0986423 C292.088661,85.5493212 291.669476,86 290.92684,86 L286.882776,86 C286.185683,86 285.81483,85.4141175 286.092738,84.828235 L286.092738,84.828235 Z" id="Fill-59" fill="#FFFFFE"></path>
                <path d="M333.929145,68.5829381 C336.259751,68.5829381 338.282541,66.4792869 338.282541,63.9194332 C338.282541,61.4967145 336.259751,59.4854008 333.929145,59.4854008 L326.761433,59.4854008 L326.761433,68.5829381 L333.929145,68.5829381 Z M321,54.8685218 C321,54.4114051 321.35179,54 321.8355,54 L334.412856,54 C339.690578,54 344,58.3883207 344,63.8280098 C344,68.0334838 341.316725,71.4618593 337.491894,73.0626821 L343.51541,84.6743615 C343.824105,85.2686132 343.51541,86 342.768737,86 L338.151499,86 C337.755736,86 337.535867,85.7714416 337.44704,85.5885949 L331.598539,73.4740872 L326.717459,73.4740872 L326.717459,85.1314782 C326.717459,85.5885949 326.321696,86 325.881959,86 L321.8355,86 C321.35179,86 321,85.5885949 321,85.1314782 L321,54.8685218 Z" id="Fill-61" fill="#FFFFFE"></path>
                <g id="Group-69" opacity="0.15" transform="translate(377.000000, 19.000000)" fill="#FFFFFE">
                    <path d="M19.4336917,0.597581395 C24.7622406,0.597581395 28.6151353,2.32316279 32.2023759,5.61525581 C32.678188,6.04595349 32.678188,6.69432558 32.2560526,7.12595349 L29.0372707,10.5250233 C28.6669925,10.9566512 28.1393233,10.9566512 27.717188,10.5250233 C25.5018872,8.52781395 22.5469398,7.34083721 19.5919925,7.34083721 C12.8378271,7.34083721 7.82496992,13.1138605 7.82496992,19.912 C7.82496992,26.656186 12.890594,32.3752558 19.6438496,32.3752558 C22.8107744,32.3752558 25.5018872,31.1343256 27.717188,29.2989767 C28.1393233,28.9222326 28.7197594,28.976186 29.0372707,29.2989767 L32.3079098,32.752 C32.7300451,33.1306047 32.6245113,33.832 32.2560526,34.2096744 C28.6669925,37.7706047 24.1290376,39.4431628 19.4336917,39.4431628 C8.88030827,39.4431628 0.385744361,30.8645581 0.385744361,20.0738605 C0.385744361,9.28409302 8.88030827,0.597581395 19.4336917,0.597581395" id="Fill-63"></path>
                    <path d="M55.3146496,32.4289302 C61.9632812,32.4289302 67.4510406,26.8717209 67.4510406,20.0745116 C67.4510406,13.2754419 61.9632812,7.61032558 55.3146496,7.61032558 C48.666018,7.61032558 43.2319353,13.2754419 43.2319353,20.0745116 C43.2319353,26.8717209 48.666018,32.4289302 55.3146496,32.4289302 M55.3146496,0.597302326 C65.8680331,0.597302326 74.3107398,9.28381395 74.3107398,20.0745116 C74.3107398,30.8642791 65.8680331,39.4428837 55.3146496,39.4428837 C44.7612662,39.4428837 36.3722361,30.8642791 36.3722361,20.0745116 C36.3722361,9.28381395 44.7612662,0.597302326 55.3146496,0.597302326" id="Fill-65"></path>
                    <path d="M85.0751,1.40697674 C85.1278669,0.974418605 85.4444684,0.597674419 86.0249045,0.597674419 L86.8691752,0.597674419 C87.2913105,0.597674419 87.607912,0.81255814 87.7662128,1.1372093 L99.3749346,26.6023256 L99.5332353,26.6023256 L111.141047,1.1372093 C111.299348,0.81255814 111.563183,0.597674419 112.038995,0.597674419 L112.882356,0.597674419 C113.462792,0.597674419 113.780303,0.974418605 113.83216,1.40697674 L120.058656,37.6627907 C120.216957,38.4172093 119.794822,38.9037209 119.108852,38.9037209 L114.307062,38.9037209 C113.83216,38.9037209 113.410935,38.472093 113.304491,38.0934884 L110.191243,17.6460465 L110.033852,17.6460465 L100.798732,38.8497674 C100.694108,39.1734884 100.376596,39.4432558 99.9026038,39.4432558 L98.9527992,39.4432558 C98.4769872,39.4432558 98.2131526,39.1734884 98.0557617,38.8497674 L88.7160173,17.6460465 L88.5577165,17.6460465 L85.4972353,38.0934884 C85.4444684,38.472093 85.0223331,38.9037209 84.5474308,38.9037209 L79.7984083,38.9037209 C79.1124383,38.9037209 78.690303,38.4172093 78.7967466,37.6627907 L85.0751,1.40697674 Z" id="Fill-67"></path>
                </g>
                <path d="M445.037248,102.186704 L433.163444,84.5328949 C432.746819,83.8457351 433.163444,83 433.996693,83 L439.308658,83 C439.725283,83 439.985673,83.2642922 440.141907,83.475726 L448.474401,95.6331683 L456.805997,83.475726 C456.962231,83.2642922 457.222622,83 457.639247,83 L463.004187,83 C463.836539,83 464.253164,83.8457351 463.836539,84.5328949 L451.807399,102.133846 L451.807399,118.99569 C451.807399,119.523363 451.338696,120 450.817017,120 L446.026731,120 C445.453872,120 445.037248,119.523363 445.037248,118.99569 L445.037248,102.186704 Z" id="Fill-70" fill="#FFFFFE" opacity="0.1"></path>
                <g id="Group-78" opacity="0.05" transform="translate(424.000000, 144.000000)" fill="#FFFFFE">
                    <path d="M6.37607805,1.59367442 C6.42889106,1.16111628 6.74576911,0.784372093 7.3267122,0.784372093 L8.17172033,0.784372093 C8.59422439,0.784372093 8.91110244,0.999255814 9.06954146,1.32390698 L20.6884033,26.7890233 L20.8468423,26.7890233 L32.4647935,1.32390698 C32.6232325,0.999255814 32.8872976,0.784372093 33.3635252,0.784372093 L34.2076228,0.784372093 C34.7885659,0.784372093 35.1063545,1.16111628 35.1582569,1.59367442 L41.3901919,37.8494884 C41.5486309,38.603907 41.1261268,39.0904186 40.4395577,39.0904186 L35.633574,39.0904186 C35.1582569,39.0904186 34.7366634,38.6587907 34.6301268,38.280186 L31.5141593,17.8327442 L31.3566309,17.8327442 L22.1134439,39.0364651 C22.0087285,39.360186 21.6909398,39.6299535 21.2165333,39.6299535 L20.2658992,39.6299535 C19.7896715,39.6299535 19.5256065,39.360186 19.368078,39.0364651 L10.0201756,17.8327442 L9.86173659,17.8327442 L6.79858211,38.280186 C6.74576911,38.6587907 6.32326504,39.0904186 5.84794797,39.0904186 L1.09477724,39.0904186 C0.40820813,39.0904186 -0.014295935,38.603907 0.0922406504,37.8494884 L6.37607805,1.59367442 Z" id="Fill-72"></path>
                    <path d="M48.6259382,2.34855814 C48.6259382,1.80902326 49.0484423,1.32344186 49.6293854,1.32344186 L71.1233691,1.32344186 C71.7043122,1.32344186 72.1268163,1.80902326 72.1268163,2.34855814 L72.1268163,6.77274419 C72.1268163,7.31227907 71.7043122,7.79693023 71.1233691,7.79693023 L55.4907187,7.79693023 L55.4907187,16.6453023 L68.5355317,16.6453023 C69.0636618,16.6453023 69.5389789,17.131814 69.5389789,17.6713488 L69.5389789,22.1485581 C69.5389789,22.7429767 69.0636618,23.1746047 68.5355317,23.1746047 L55.4907187,23.1746047 L55.4907187,32.6155349 L71.1233691,32.6155349 C71.7043122,32.6155349 72.1268163,33.1020465 72.1268163,33.6415814 L72.1268163,38.0657674 C72.1268163,38.6043721 71.7043122,39.0899535 71.1233691,39.0899535 L49.6293854,39.0899535 C49.0484423,39.0899535 48.6259382,38.6043721 48.6259382,38.0657674 L48.6259382,2.34855814 Z" id="Fill-74"></path>
                    <path d="M92.512,32.5075349 C99.3776911,32.5075349 104.394927,27.220093 104.394927,20.1531163 C104.394927,13.1391628 99.3776911,7.85172093 92.512,7.85172093 L86.4922276,7.85172093 L86.4922276,32.5075349 L92.512,32.5075349 Z M79.6793496,2.34846512 C79.6793496,1.80893023 80.1018537,1.32427907 80.6299837,1.32427907 L93.1457561,1.32427907 C103.339577,1.32427907 111.683122,9.79404651 111.683122,20.1531163 C111.683122,30.620093 103.339577,39.0898605 93.1457561,39.0898605 L80.6299837,39.0898605 C80.1018537,39.0898605 79.6793496,38.6042791 79.6793496,38.0656744 L79.6793496,2.34846512 Z" id="Fill-76"></path>
                </g>
            </g>
        </g>
    </g>
</svg>