<?xml version="1.0" encoding="utf-8"?>
<!-- Generator: Adobe Illustrator 23.0.1, SVG Export Plug-In . SVG Version: 6.00 Build 0)  -->
<svg version="1.1" id="Capa_1" xmlns="http://www.w3.org/2000/svg" xmlns:xlink="http://www.w3.org/1999/xlink" x="0px" y="0px"
	 viewBox="0 0 172 72" style="enable-background:new 0 0 172 72;" xml:space="preserve">
<style type="text/css">
	.st0{opacity:0.3;}
	.st1{fill:#FFFFFF;}
	.st2{opacity:0.2;}
	.st3{opacity:0.1;}
	.st4{opacity:5.000000e-02;}
	.st5{fill:#E41E3A;}
</style>
<g id="XMLID_4957_">
	<g>
		<g id="XMLID_5004_" class="st0">
			<path id="XMLID_5011_" class="st1" d="M120.6,14.2l4.1-8.9c0-0.1,0.1-0.1,0.2-0.1h0.1c0.1,0,0.2,0.1,0.2,0.1l4.1,8.9
				c0.1,0.2,0,0.3-0.2,0.3H128c-0.2,0-0.3-0.1-0.4-0.3l-0.6-1.4h-4l-0.6,1.4c-0.1,0.1-0.2,0.3-0.4,0.3h-1.1
				C120.6,14.6,120.5,14.4,120.6,14.2z M126.3,11.4L125,8.5l0,0l-1.3,2.9H126.3z"/>
			<path id="XMLID_5008_" class="st1" d="M135.8,5.6c0-0.1,0.1-0.3,0.3-0.3h3.8c1.6,0,2.9,1.3,2.9,2.8c0,1.2-0.8,2.2-1.9,2.7
				l1.8,3.3c0.1,0.2,0,0.4-0.2,0.4h-1.4c-0.1,0-0.2-0.1-0.2-0.1L139,11h-1.5v3.4c0,0.1-0.1,0.3-0.3,0.3H136c-0.1,0-0.3-0.1-0.3-0.3
				V5.6H135.8z M139.7,9.6c0.7,0,1.3-0.6,1.3-1.3S140.4,7,139.7,7h-2.1v2.6H139.7z"/>
			<path id="XMLID_5005_" class="st1" d="M153.7,5.2c2.6,0,4.7,2.1,4.7,4.8c0,1.8-1,3.4-2.6,4.2l1.6,2.6c0.1,0.2,0,0.4-0.2,0.4h-1.4
				c-0.1,0-0.2-0.1-0.2-0.1l-1.4-2.4c-0.2,0-0.4,0-0.6,0c-2.6,0-4.7-2.1-4.7-4.7C149,7.3,151.1,5.2,153.7,5.2z M153.7,13
				c1.7,0,3-1.4,3-3c0-1.7-1.4-3-3-3c-1.7,0-3,1.4-3,3S152,13,153.7,13z"/>
		</g>
		<g id="XMLID_4997_" class="st2">
			<path id="XMLID_5002_" class="st1" d="M124.9,21.4c0-0.1,0.1-0.3,0.3-0.3h1.3c0.1,0,0.3,0.1,0.3,0.3v5.4c0,1.1,0.8,2,1.9,2
				c1.1,0,1.9-0.9,1.9-2v-5.4c0-0.1,0.1-0.3,0.2-0.3h1.3c0.1,0,0.2,0.1,0.2,0.3v5.5c0,2-1.6,3.6-3.7,3.6c-2.1,0-3.7-1.6-3.7-3.6
				C124.9,26.9,124.9,21.4,124.9,21.4z"/>
			<path id="XMLID_5000_" class="st1" d="M142,21.4c0-0.1,0.1-0.3,0.3-0.3h1.2c0.1,0,0.2,0.1,0.2,0.3v8.7c0,0.1-0.1,0.3-0.2,0.3
				h-1.2c-0.1,0-0.3-0.1-0.3-0.3V21.4z"/>
			<path id="XMLID_4998_" class="st1" d="M156.5,22.7h-2c-0.1,0-0.3-0.1-0.3-0.3v-1.1c0-0.1,0.1-0.3,0.3-0.3h5.8
				c0.1,0,0.3,0.1,0.3,0.3v1.1c0,0.1-0.1,0.3-0.3,0.3h-2v7.4c0,0.1-0.1,0.3-0.3,0.3h-1.2c-0.1,0-0.2-0.1-0.2-0.3v-7.4H156.5z"/>
		</g>
		<g id="XMLID_4990_" class="st3">
			<path id="XMLID_4995_" class="st1" d="M131,37.2c0-0.1,0.1-0.3,0.3-0.3h5.4c0.1,0,0.3,0.1,0.3,0.3v1.1c0,0.1-0.1,0.3-0.3,0.3
				h-3.9v2.2h3.3c0.1,0,0.2,0.1,0.2,0.3V42c0,0.1-0.1,0.3-0.2,0.3h-3.3v2.3h3.9c0.1,0,0.3,0.1,0.3,0.3V46c0,0.1-0.1,0.3-0.3,0.3
				h-5.4c-0.1,0-0.3-0.1-0.3-0.3V37.2z"/>
			<path id="XMLID_4993_" class="st1" d="M148.9,36.8c1.3,0,2.3,0.4,3.2,1.2c0.1,0.1,0.1,0.3,0,0.4l-0.8,0.8c-0.1,0.1-0.2,0.1-0.3,0
				c-0.6-0.5-1.3-0.8-2-0.8c-1.7,0-2.9,1.4-2.9,3.1c0,1.6,1.3,3,2.9,3c0.8,0,1.5-0.3,2-0.7c0.1-0.1,0.3-0.1,0.3,0l0.8,0.8
				c0.1,0.1,0.1,0.3,0,0.4c-0.9,0.9-2,1.3-3.2,1.3c-2.6,0-4.8-2.1-4.8-4.7C144.2,38.9,146.3,36.8,148.9,36.8z"/>
			<path id="XMLID_4991_" class="st1" d="M161.8,38.5h-2c-0.1,0-0.3-0.1-0.3-0.3v-1.1c0-0.1,0.1-0.3,0.3-0.3h5.8
				c0.1,0,0.3,0.1,0.3,0.3v1.1c0,0.1-0.1,0.3-0.3,0.3h-2v7.4c0,0.1-0.1,0.3-0.3,0.3H162c-0.1,0-0.2-0.1-0.2-0.3V38.5z"/>
		</g>
		<g id="XMLID_4981_" class="st4">
			<path id="XMLID_4988_" class="st1" d="M135.2,53c0-0.1,0.1-0.3,0.3-0.3h1.3c0.1,0,0.3,0.1,0.3,0.3v5.4c0,1.1,0.8,2,1.9,2
				c1.1,0,1.9-0.9,1.9-2V53c0-0.1,0.1-0.3,0.2-0.3h1.3c0.1,0,0.2,0.1,0.2,0.3v5.5c0,2-1.6,3.6-3.7,3.6c-2.1,0-3.7-1.6-3.7-3.6V53z"
				/>
			<path id="XMLID_4985_" class="st1" d="M149.7,53c0-0.1,0.1-0.3,0.3-0.3h3.8c1.6,0,2.9,1.3,2.9,2.8c0,1.2-0.8,2.2-1.9,2.7l1.8,3.3
				c0.1,0.2,0,0.4-0.2,0.4H155c-0.1,0-0.2-0.1-0.2-0.1l-1.8-3.5h-1.5v3.4c0,0.1-0.1,0.3-0.3,0.3H150c-0.1,0-0.3-0.1-0.3-0.3V53
				L149.7,53z M153.6,56.9c0.7,0,1.3-0.6,1.3-1.3s-0.6-1.3-1.3-1.3h-2.1v2.6H153.6z"/>
			<path id="XMLID_4982_" class="st1" d="M163.2,61.6l4.1-8.9c0-0.1,0.1-0.1,0.2-0.1h0.1c0.1,0,0.2,0.1,0.2,0.1l4.1,8.9
				c0.1,0.2,0,0.3-0.2,0.3h-1.1c-0.2,0-0.3-0.1-0.4-0.3l-0.6-1.4h-3.9l-0.6,1.4c-0.1,0.1-0.2,0.3-0.4,0.3h-1.1
				C163.3,61.9,163.2,61.8,163.2,61.6z M168.9,58.8l-1.3-2.9l0,0l-1.3,2.9H168.9z"/>
		</g>
	</g>
</g>
<polygon class="st5" points="108.5,1.7 109.9,1.2 132.6,70.8 131.2,71.3 "/>
<path class="st1" d="M65.2,31.6h-1.5c-0.1,0-0.1,0.1-0.1,0.1l-0.7,4.9c0,0.1,0,0.1,0.1,0.1h0.3c0.1,0,0.1-0.1,0.1-0.1l0.2-1.7h1.1
	c1,0,1.7-0.9,1.7-1.9C66.5,32.3,66,31.6,65.2,31.6z M64.8,34.4h-1l0.3-2.2h1c0.5,0,0.8,0.4,0.8,0.9C65.9,33.8,65.4,34.4,64.8,34.4z
	 M71.7,31.6L71.7,31.6c-0.1,0-0.2,0-0.2,0.1l-2.7,5c-0.1,0.1,0,0.2,0.1,0.2h0.3c0.1,0,0.1,0,0.1-0.1l0.6-1.2h2.3l0.3,1.2
	c0,0,0,0.1,0.1,0.1H73c0.1,0,0.2-0.1,0.1-0.2l-1.3-5C71.8,31.6,71.8,31.6,71.7,31.6z M70.3,35.1l1.3-2.4h0l0.6,2.4H70.3z M79.2,36.8
	C79.2,36.8,79.3,36.8,79.2,36.8l0.5,0.1c0.1,0,0.2-0.1,0.1-0.2l-0.6-1.9c0.7-0.2,1.2-0.9,1.2-1.7c0-0.8-0.5-1.4-1.3-1.4h-1.7
	c-0.1,0-0.1,0.1-0.1,0.1l-0.7,4.9c0,0.1,0,0.1,0.1,0.1H77c0.1,0,0.1-0.1,0.1-0.1l0.3-1.9h1.2L79.2,36.8z M77.8,32.2H79
	c0.5,0,0.8,0.4,0.8,0.9c0,0.7-0.5,1.2-1.1,1.2h-1.2L77.8,32.2z M86,31.6L86,31.6c-0.1,0-0.2,0-0.2,0.1l-2.7,5
	c-0.1,0.1,0,0.2,0.1,0.2h0.3c0.1,0,0.1,0,0.1-0.1l0.6-1.2h2.3l0.3,1.2c0,0,0,0.1,0.1,0.1h0.3c0.1,0,0.2-0.1,0.1-0.2l-1.3-5
	C86.1,31.6,86,31.6,86,31.6z M84.5,35.1l1.3-2.4h0l0.6,2.4H84.5z M95.2,34.9l0.4-3.1c0-0.1,0.1-0.1,0.1-0.1h0.3
	c0.1,0,0.1,0.1,0.1,0.1l-0.4,3.1c-0.1,0.8,0.2,1.5,1,1.5c0.8,0,1.3-0.7,1.4-1.5l0.4-3.1c0-0.1,0.1-0.1,0.1-0.1h0.3
	c0.1,0,0.1,0.1,0.1,0.1l-0.4,3.1c-0.2,1.1-0.9,2-2.1,2C95.7,36.9,95.1,36,95.2,34.9z M102.7,36.8c-0.1,0-0.1-0.1-0.1-0.1l0.7-5
	c0-0.1,0.1-0.1,0.2-0.1h0.2l2.4,4.2h0l0.6-3.9c0-0.1,0.1-0.1,0.2-0.1h0.2c0.1,0,0.1,0.1,0.1,0.1l-0.7,5c0,0.1-0.1,0.1-0.2,0.1H106
	l-2.4-4.2h0l-0.5,4c0,0.1-0.1,0.1-0.2,0.1H102.7z M109.9,36.8h0.3c0.1,0,0.1,0,0.1-0.1l0.6-1.2h2.3l0.3,1.2c0,0,0,0.1,0.1,0.1h0.3
	c0.1,0,0.2-0.1,0.1-0.2l-1.3-5c0,0-0.1-0.1-0.1-0.1h-0.1c-0.1,0-0.1,0-0.1,0.1l-2.7,5C109.8,36.7,109.8,36.8,109.9,36.8z
	 M112.5,32.6L112.5,32.6l0.6,2.4h-1.9L112.5,32.6z M31.1,23.1c0-2.8,2.3-5.1,5.1-5.1c1.4,0,2.5,0.5,3.4,1.3c0.1,0.1,0.1,0.3,0,0.4
	l-0.9,0.9c-0.1,0.1-0.2,0.1-0.4,0c-0.6-0.5-1.4-0.8-2.2-0.8c-1.8,0-3.2,1.5-3.2,3.3c0,1.8,1.4,3.3,3.2,3.3c0.8,0,1.6-0.3,2.2-0.8
	c0.1-0.1,0.3-0.1,0.4,0l0.9,0.9c0.1,0.1,0.1,0.3,0,0.4c-1,0.9-2.2,1.4-3.4,1.4C33.3,28.1,31.1,25.9,31.1,23.1z M45.8,18
	c-2.8,0-5.1,2.3-5.1,5.1s2.2,5.1,5.1,5.1c2.8,0,5.1-2.2,5.1-5.1S48.6,18,45.8,18z M45.8,26.3c-1.8,0-3.2-1.5-3.2-3.2
	s1.5-3.3,3.2-3.3c1.8,0,3.3,1.5,3.3,3.3S47.6,26.3,45.8,26.3z M52.7,27.7v-9.5c0-0.1,0.1-0.3,0.3-0.3h0.4l5.9,6.3h0v-5.8
	c0-0.1,0.1-0.3,0.3-0.3h1.3c0.1,0,0.3,0.1,0.3,0.3v9.5c0,0.1-0.1,0.3-0.3,0.3h-0.3l-5.9-6.5h0v6.1c0,0.1-0.1,0.3-0.3,0.3H53
	C52.9,28,52.7,27.9,52.7,27.7z M67.5,25.4c0-0.7-0.6-1.2-1.8-1.7c-1.3-0.5-2.7-1.4-2.7-3.1c0-1.3,0.9-2.7,3.2-2.7
	c1.4,0,2.5,0.7,2.8,0.9c0.1,0.1,0.2,0.3,0.1,0.5l-0.5,0.8c-0.1,0.2-0.3,0.3-0.5,0.2c-0.1-0.1-1.2-0.8-2-0.8c-0.8,0-1.2,0.5-1.2,1
	c0,0.7,0.5,1.1,1.7,1.6c1.4,0.6,3,1.4,3,3.2c0,1.5-1.3,2.8-3.3,2.8c-1.8,0-2.8-0.8-3.1-1.1c-0.1-0.1-0.2-0.2-0.1-0.4l0.5-0.9
	c0.1-0.2,0.4-0.2,0.5-0.1c0.1,0,1.2,0.9,2.1,0.9C67,26.5,67.5,26,67.5,25.4z M70.2,19.5v-1.2c0-0.1,0.1-0.3,0.3-0.3h6.2
	c0.2,0,0.3,0.1,0.3,0.3v1.2c0,0.1-0.1,0.3-0.3,0.3h-2.2v7.9c0,0.1-0.1,0.3-0.3,0.3h-1.3c-0.1,0-0.3-0.1-0.3-0.3v-7.9h-2.2
	C70.4,19.8,70.2,19.7,70.2,19.5z M78.7,28H80c0.1,0,0.3-0.1,0.3-0.3v-3.6h1.6l1.9,3.7c0,0.1,0.1,0.1,0.2,0.1h1.5
	c0.2,0,0.3-0.2,0.2-0.4L83.7,24c1.2-0.5,2.1-1.6,2.1-2.9c0-1.7-1.4-3-3.1-3h-4c-0.2,0-0.3,0.1-0.3,0.3v9.4
	C78.4,27.9,78.5,28,78.7,28z M80.3,19.8h2.3c0.7,0,1.4,0.6,1.4,1.4c0,0.8-0.7,1.4-1.4,1.4h-2.3V19.8z M91.7,28.1
	c-2.2,0-3.9-1.7-3.9-3.9v-5.9c0-0.1,0.1-0.3,0.3-0.3h1.3c0.2,0,0.3,0.1,0.3,0.3v5.8c0,1.2,0.8,2.2,2.1,2.2s2.1-0.9,2.1-2.1v-5.8
	c0-0.1,0.1-0.3,0.3-0.3h1.3c0.1,0,0.3,0.1,0.3,0.3v5.9C95.6,26.4,93.9,28.1,91.7,28.1z M98,27.7v-9.4c0-0.1,0.1-0.3,0.3-0.3h1.3
	c0.1,0,0.3,0.1,0.3,0.3v9.4c0,0.1-0.1,0.3-0.3,0.3h-1.3C98.2,28,98,27.9,98,27.7z M109.7,27.6l-1.9-3.6c1.2-0.5,2.1-1.6,2.1-2.9
	c0-1.7-1.4-3-3.1-3h-4c-0.2,0-0.3,0.1-0.3,0.3v9.4c0,0.1,0.1,0.3,0.3,0.3h1.3c0.1,0,0.3-0.1,0.3-0.3v-3.6h1.6l1.9,3.7
	c0,0.1,0.1,0.1,0.2,0.1h1.5C109.7,28,109.8,27.8,109.7,27.6z M106.6,22.6h-2.3v-2.8h2.3c0.8,0,1.4,0.6,1.4,1.4
	C108,22,107.4,22.6,106.6,22.6z M8.1,41.3v9.5c0,0.1-0.1,0.3-0.3,0.3H7.5l-5.9-6.5h0v6.1c0,0.1-0.1,0.3-0.3,0.3H0
	c-0.1,0-0.3-0.1-0.3-0.3v-9.5c0-0.1,0.1-0.3,0.3-0.3h0.4l5.9,6.3h0v-5.8c0-0.1,0.1-0.3,0.3-0.3h1.3C8,41,8.1,41.1,8.1,41.3z
	 M18.4,41.3v5.9c0,2.1-1.7,3.9-3.9,3.9c-2.2,0-3.9-1.7-3.9-3.9v-5.9c0-0.1,0.1-0.3,0.3-0.3h1.3c0.2,0,0.3,0.1,0.3,0.3v5.8
	c0,1.2,0.8,2.2,2.1,2.2s2.1-0.9,2.1-2.1v-5.8c0-0.1,0.1-0.3,0.3-0.3h1.3C18.3,41,18.4,41.1,18.4,41.3z M27.1,41.3v1.2
	c0,0.1-0.1,0.3-0.3,0.3h-4.2V45h3.5c0.1,0,0.3,0.1,0.3,0.3v1.2c0,0.2-0.1,0.3-0.3,0.3h-3.5v2.5h4.2c0.2,0,0.3,0.1,0.3,0.3v1.2
	c0,0.1-0.1,0.3-0.3,0.3h-5.8c-0.2,0-0.3-0.1-0.3-0.3v-9.4c0-0.1,0.1-0.3,0.3-0.3h5.8C27,41,27.1,41.1,27.1,41.3z M37.2,41.4
	l-4.4,9.5c0,0.1-0.1,0.2-0.2,0.2h-0.1c-0.1,0-0.2-0.1-0.2-0.2l-4.4-9.5c-0.1-0.2,0-0.4,0.2-0.4h1.4c0.1,0,0.2,0.1,0.2,0.2l2.7,6.1
	h0.1l2.7-6.1c0-0.1,0.1-0.2,0.2-0.2H37C37.2,41,37.3,41.2,37.2,41.4z M41.6,41c0-0.1-0.1-0.2-0.2-0.2h-0.1c-0.1,0-0.2,0.1-0.2,0.2
	l-4.4,9.5c-0.1,0.2,0,0.4,0.2,0.4H38c0.2,0,0.4-0.1,0.4-0.3l0.7-1.5h4.2l0.7,1.5c0.1,0.2,0.2,0.3,0.4,0.3h1.2c0.2,0,0.3-0.2,0.2-0.4
	L41.6,41z M39.8,47.5l1.4-3.1h0l1.4,3.1H39.8z M57.7,44.1c0-1.7-1.4-3-3.1-3h-4c-0.2,0-0.3,0.1-0.3,0.3v9.4c0,0.1,0.1,0.3,0.3,0.3
	h1.3c0.1,0,0.3-0.1,0.3-0.3V47h1.6l1.9,3.7c0,0.1,0.1,0.1,0.2,0.1h1.5c0.2,0,0.3-0.2,0.2-0.4l-1.9-3.6
	C56.9,46.4,57.7,45.4,57.7,44.1z M54.5,45.5h-2.3v-2.8h2.3c0.7,0,1.4,0.6,1.4,1.4C55.9,44.9,55.2,45.5,54.5,45.5z M66.1,41.3v1.2
	c0,0.1-0.1,0.3-0.3,0.3h-4.2V45h3.5c0.1,0,0.3,0.1,0.3,0.3v1.2c0,0.2-0.1,0.3-0.3,0.3h-3.5v2.5h4.2c0.2,0,0.3,0.1,0.3,0.3v1.2
	c0,0.1-0.1,0.3-0.3,0.3H60c-0.2,0-0.3-0.1-0.3-0.3v-9.4c0-0.1,0.1-0.3,0.3-0.3h5.8C65.9,41,66.1,41.1,66.1,41.3z M71.8,41
	c0-0.1-0.1-0.2-0.2-0.2h-0.1c-0.1,0-0.2,0.1-0.2,0.2l-4.4,9.5c-0.1,0.2,0,0.4,0.2,0.4h1.2c0.2,0,0.4-0.1,0.4-0.3l0.7-1.5h4.2
	l0.7,1.5c0.1,0.2,0.2,0.3,0.4,0.3h1.2c0.2,0,0.3-0.2,0.2-0.4L71.8,41z M70.1,47.5l1.4-3.1h0l1.4,3.1H70.1z M83.2,49.5v1.2
	c0,0.1-0.1,0.3-0.3,0.3h-5.2c-0.2,0-0.3-0.1-0.3-0.3v-9.4c0-0.1,0.1-0.3,0.3-0.3H79c0.1,0,0.3,0.1,0.3,0.3v7.9h3.6
	C83.1,49.2,83.2,49.3,83.2,49.5z M86.5,41.3v9.4c0,0.1-0.1,0.3-0.3,0.3h-1.3c-0.1,0-0.3-0.1-0.3-0.3v-9.4c0-0.1,0.1-0.3,0.3-0.3h1.3
	C86.3,41,86.5,41.1,86.5,41.3z M92.6,41h-3.4c-0.1,0-0.3,0.1-0.3,0.3v9.4c0,0.1,0.1,0.3,0.3,0.3h3.4c2.7,0,5-2.2,5-5
	C97.6,43.2,95.4,41,92.6,41z M92.5,49.2h-1.6v-6.5h1.6c1.8,0,3.2,1.4,3.2,3.2C95.7,47.8,94.3,49.2,92.5,49.2z M103.1,41
	c0-0.1-0.1-0.2-0.2-0.2h-0.1c-0.1,0-0.2,0.1-0.2,0.2l-4.4,9.5c-0.1,0.2,0,0.4,0.2,0.4h1.2c0.2,0,0.4-0.1,0.4-0.3l0.7-1.5h4.2
	l0.7,1.5c0.1,0.2,0.2,0.3,0.4,0.3h1.2c0.2,0,0.3-0.2,0.2-0.4L103.1,41z M101.4,47.5l1.4-3.1h0l1.4,3.1H101.4z M112.4,41H109
	c-0.1,0-0.3,0.1-0.3,0.3v9.4c0,0.1,0.1,0.3,0.3,0.3h3.4c2.7,0,5-2.2,5-5C117.4,43.2,115.1,41,112.4,41z M112.2,49.2h-1.6v-6.5h1.6
	c1.8,0,3.2,1.4,3.2,3.2C115.4,47.8,114.1,49.2,112.2,49.2z"/>
</svg>
