<?xml version="1.0" encoding="UTF-8" standalone="no"?>
<svg width="685px" height="200px" viewBox="0 0 685 200" version="1.1" xmlns="http://www.w3.org/2000/svg" xmlns:xlink="http://www.w3.org/1999/xlink">
    <!-- Generator: Sketch 50.2 (55047) - http://www.bohemiancoding.com/sketch -->
    <title>Group 66</title>
    <desc>Created with Sketch.</desc>
    <defs>
        <polygon id="path-1" points="0.197576087 0.679055118 72.6405543 0.679055118 72.6405543 200 0.197576087 200"></polygon>
    </defs>
    <g id="Arquitectura" stroke="none" stroke-width="1" fill="none" fill-rule="evenodd">
        <g id="Desktop-2" transform="translate(-651.000000, -177.000000)">
            <g id="Group-66" transform="translate(651.000000, 177.000000)">
                <path d="M272.177678,112.150353 C274.929918,112.150353 277.565603,109.360755 277.565603,105.999545 C277.565603,103.450375 275.924516,101.409129 273.610521,101.409129 L269.015167,101.409129 L267.549688,112.150353 L272.177678,112.150353 Z M267.785905,100.390098 C267.812324,100.179923 268.019014,100 268.194623,100 L273.902684,100 C276.715532,100 279,102.639927 279,105.849875 C279,110.050193 275.748907,113.530821 272.061124,113.530821 L267.346107,113.530821 L266.379481,120.609902 C266.349954,120.820077 266.144818,121 265.852655,121 L265.324275,121 C265.120693,121 264.973057,120.820077 265.004139,120.609902 L267.785905,100.390098 Z" id="Fill-1" fill="#FFFFFF"></path>
                <path d="M303.85688,114.186535 L301.144269,102.350653 L301.057565,102.350653 L294.988254,114.186535 L303.85688,114.186535 Z M290.205575,121 C290.0012,121 289.942365,120.823857 290.060036,120.58848 L300.997181,100.20576 C301.057565,100.088851 301.144269,100 301.376513,100 L301.464766,100 C301.611854,100 301.757393,100 301.816229,100.20576 L306.979788,120.649273 C307.038623,120.823857 306.979788,121 306.659291,121 L305.899079,121 C305.635869,121 305.549164,120.853474 305.521295,120.736565 L304.178925,115.332245 L294.319391,115.332245 L291.51698,120.736565 C291.459693,120.853474 291.312605,121 291.050943,121 L290.205575,121 Z" id="Fill-3" fill="#FFFFFF"></path>
                <path d="M331.213754,111.640837 C333.939893,111.640837 336.518163,109.059823 336.518163,105.76071 C336.518163,103.300705 334.888457,101.380469 332.637387,101.380469 L327.09387,101.380469 L325.67181,111.640837 L331.213754,111.640837 Z M325.818106,100.390098 C325.849568,100.179923 325.99901,100 326.234971,100 L332.903237,100 C335.690726,100 338,102.429752 338,105.580787 C338,109.031162 335.719041,111.879672 332.753794,112.691713 L335.511395,120.461824 C335.630949,120.70066 335.542857,121 335.215657,121 L334.355185,121 C334.147539,121 334.059447,120.910835 333.99967,120.730912 L331.273531,112.870043 C330.919589,112.900296 330.532612,112.900296 330.177097,112.900296 L325.464164,112.900296 L324.396046,120.609902 C324.367731,120.82167 324.161658,121 323.864347,121 L323.329501,121 C323.120282,121 322.973986,120.82167 323.003875,120.609902 L325.818106,100.390098 Z" id="Fill-5" fill="#FFFFFF"></path>
                <path d="M363.85748,114.186535 L361.144839,102.350653 L361.058133,102.350653 L354.987203,114.186535 L363.85748,114.186535 Z M350.206017,121 C350.00164,121 349.942804,120.823857 350.058928,120.58848 L360.997749,100.20576 C361.058133,100.088851 361.144839,100 361.377085,100 L361.465339,100 C361.612429,100 361.75797,100 361.815257,100.20576 L366.980425,120.649273 C367.037712,120.823857 366.980425,121 366.658376,121 L365.898155,121 C365.63649,121 365.549785,120.853474 365.520367,120.736565 L364.179529,115.332245 L354.319881,115.332245 L351.517437,120.736565 C351.46015,120.853474 351.31306,121 351.051395,121 L350.206017,121 Z" id="Fill-7" fill="#FFFFFF"></path>
                <path d="M402.917622,100.384587 C402.947701,100.177381 403.155087,100 403.333977,100 L403.992545,100 C404.199931,100 404.348743,100.177381 404.318664,100.384587 L402.529763,113.013156 C401.961431,116.829197 403.69334,119.640604 407.212567,119.640604 C410.733377,119.640604 413.267917,116.859022 413.804588,113.042981 L415.623567,100.384587 C415.653646,100.149125 415.772379,100 416.071584,100 L416.698491,100 C416.877381,100 417.026192,100.177381 416.996113,100.384587 L415.207213,113.162281 C414.55181,117.686276 411.38878,121 407.002015,121 C402.917622,121 400.471735,117.686276 401.097059,113.162281 L402.917622,100.384587 Z" id="Fill-9" fill="#FFFFFF"></path>
                <path d="M434.88427,100.379257 C434.943152,100.147059 435.122979,100 435.363279,100 L435.812051,100 L446.098799,118.113003 L446.15768,118.113003 L448.616378,100.670279 C448.645023,100.467492 448.855087,100.29257 449.065151,100.29257 L449.665105,100.29257 C449.87676,100.29257 450.02635,100.467492 449.996114,100.670279 L447.117289,120.620743 C447.087052,120.883901 446.848344,121 446.606452,121 L446.125852,121 L435.90276,102.829721 L435.872524,102.829721 L433.353353,120.329721 C433.294471,120.708978 432.904581,120.708978 432.603808,120.708978 L432.334863,120.708978 C432.124799,120.708978 431.973617,120.534056 432.003854,120.329721 L434.88427,100.379257 Z" id="Fill-11" fill="#FFFFFF"></path>
                <path d="M476.857608,114.186535 L474.143527,102.350653 L474.056825,102.350653 L467.987689,114.186535 L476.857608,114.186535 Z M463.206697,121 C463.002328,121 462.941946,120.823857 463.059613,120.58848 L473.997992,100.20576 C474.056825,100.088851 474.143527,100 474.377313,100 L474.465563,100 C474.612647,100 474.758182,100 474.815467,100.20576 L479.980426,120.649273 C480.037711,120.823857 479.980426,121 479.65839,121 L478.8982,121 C478.636546,121 478.549844,120.853474 478.520427,120.736565 L477.178095,115.332245 L467.318846,115.332245 L464.518064,120.736565 C464.460778,120.853474 464.313695,121 464.052041,121 L463.206697,121 Z" id="Fill-13" fill="#FFFFFF"></path>
                <path d="M0,141.075873 C0,140.479224 0.533402266,140 1.12502248,140 L2.60564647,140 L27.2397051,166.398553 L27.3026434,166.398553 L27.3026434,141.732822 C27.3026434,141.136172 27.7746808,140.598236 28.424519,140.598236 L33.8734041,140.598236 C34.4650243,140.598236 35,141.136172 35,141.732822 L35,181.925714 C35,182.52395 34.4650243,183 33.8734041,183 L32.4525715,183 L7.70050351,155.589047 L7.63913864,155.589047 L7.63913864,181.268765 C7.63913864,181.867001 7.16552778,182.403351 6.51568962,182.403351 L1.12502248,182.403351 C0.533402266,182.403351 0,181.867001 0,181.268765 L0,141.075873 Z" id="Fill-15" fill="#FFFFFF"></path>
                <path d="M45,142.123835 C45,141.532839 45.5336545,141 46.1255545,141 L51.7533273,141 C52.405047,141 52.880456,141.532839 52.880456,142.123835 L52.880456,166.318514 C52.880456,171.346694 56.3153652,175.310767 61.4708773,175.310767 C66.6232409,175.310767 70.1211182,171.346694 70.1211182,166.378242 L70.1211182,142.123835 C70.1211182,141.532839 70.594953,141 71.2466727,141 L76.8744455,141 C77.4679197,141 78,141.532839 78,142.123835 L78,166.733468 C78,175.72415 70.8326575,183 61.4708773,183 C52.1689167,183 45,175.72415 45,166.733468 L45,142.123835 Z" id="Fill-17" fill="#FFFFFF"></path>
                <path d="M89,141.139875 C89,140.540444 89.4672518,140 90.109917,140 L113.888531,140 C114.531196,140 115,140.540444 115,141.139875 L115,146.05967 C115,146.6591 114.531196,147.199545 113.888531,147.199545 L96.5955579,147.199545 L96.5955579,157.040729 L111.026031,157.040729 C111.608156,157.040729 112.135948,157.581173 112.135948,158.179009 L112.135948,163.160979 C112.135948,163.819396 111.608156,164.300854 111.026031,164.300854 L96.5955579,164.300854 L96.5955579,174.800455 L113.888531,174.800455 C114.531196,174.800455 115,175.3409 115,175.94033 L115,180.860125 C115,181.46115 114.531196,182 113.888531,182 L90.109917,182 C89.4672518,182 89,181.46115 89,180.860125 L89,141.139875 Z" id="Fill-19" fill="#FFFFFF"></path>
                <path d="M118.121185,142.538732 C117.759483,141.770152 118.239096,141 119.139367,141 L125.256425,141 C125.796587,141 126.156696,141.356785 126.276201,141.652272 L137.790101,167.087718 L138.209165,167.087718 L149.724659,141.652272 C149.84257,141.356785 150.204272,141 150.744434,141 L156.859899,141 C157.760169,141 158.239782,141.770152 157.879674,142.538732 L139.289489,182.350872 C139.109435,182.706085 138.809876,183 138.269714,183 L137.672189,183 C137.130434,183 136.830875,182.706085 136.650821,182.350872 L118.121185,142.538732 Z" id="Fill-21" fill="#FFFFFF"></path>
                <path d="M180.026425,167.862211 L174.030371,154.848215 L173.850314,154.848215 L167.973766,167.862211 L180.026425,167.862211 Z M154.120538,180.46284 L172.769972,140.6507 C172.951623,140.295487 173.251186,140 173.789764,140 L174.390484,140 C174.989612,140 175.228626,140.295487 175.410276,140.6507 L193.879654,180.46284 C194.239767,181.23142 193.760147,182 192.861456,182 L187.642992,182 C186.744301,182 186.323637,181.644787 185.904566,180.818053 L182.966293,174.428935 L165.033899,174.428935 L162.097218,180.818053 C161.856611,181.409026 161.318034,182 160.355606,182 L155.138735,182 C154.238451,182 153.760424,181.23142 154.120538,180.46284 Z" id="Fill-23" fill="#FFFFFF"></path>
                <path d="M230.426082,159.14033 C233.566399,159.14033 236.294097,156.380717 236.294097,153.02008 C236.294097,149.83959 233.566399,147.199545 230.426082,147.199545 L220.762599,147.199545 L220.762599,159.14033 L230.426082,159.14033 Z M213,141.139875 C213,140.540444 213.472465,140 214.126041,140 L231.078084,140 C238.190256,140 244,145.759954 244,152.898918 C244,158.419738 240.382493,162.920251 235.227901,165.019852 L243.347998,180.260695 C243.762193,181.040273 243.347998,182 242.338498,182 L236.116135,182 C235.58225,182 235.286172,181.700285 235.168055,181.459556 L227.285765,165.560296 L220.704328,165.560296 L220.704328,180.860125 C220.704328,181.459556 220.172018,182 219.578287,182 L214.126041,182 C213.472465,182 213,181.459556 213,180.860125 L213,141.139875 Z" id="Fill-25" fill="#FFFFFF"></path>
                <path d="M252,141.139875 C252,140.540444 252.46728,140 253.109983,140 L276.890017,140 C277.531168,140 278,140.540444 278,141.139875 L278,146.05967 C278,146.6591 277.531168,147.199545 276.890017,147.199545 L259.594459,147.199545 L259.594459,157.040729 L274.025794,157.040729 C274.609506,157.040729 275.135777,157.581173 275.135777,158.179009 L275.135777,163.160979 C275.135777,163.819396 274.609506,164.300854 274.025794,164.300854 L259.594459,164.300854 L259.594459,174.800455 L276.890017,174.800455 C277.531168,174.800455 278,175.3409 278,175.94033 L278,180.860125 C278,181.46115 277.531168,182 276.890017,182 L253.109983,182 C252.46728,182 252,181.46115 252,180.860125 L252,141.139875 Z" id="Fill-27" fill="#FFFFFF"></path>
                <path d="M307.027656,167.862211 L301.028619,154.848215 L300.850162,154.848215 L294.973815,167.862211 L307.027656,167.862211 Z M281.119466,180.46284 L299.769857,140.6507 C299.949908,140.295487 300.249461,140 300.791207,140 L301.390314,140 C301.991014,140 302.228426,140.295487 302.41007,140.6507 L320.878817,180.46284 C321.240512,181.23142 320.760908,182 319.860654,182 L314.642369,182 C313.743708,182 313.323059,181.644787 312.904003,180.818053 L309.964236,174.428935 L292.035641,174.428935 L289.095874,180.818053 C288.856869,181.409026 288.316717,182 287.357508,182 L282.140816,182 C281.240562,182 280.760958,181.23142 281.119466,180.46284 Z" id="Fill-29" fill="#FFFFFF"></path>
                <path d="M326,141.139875 C326,140.540444 326.475107,140 327.128576,140 L332.594673,140 C333.18974,140 333.723249,140.540444 333.723249,141.139875 L333.723249,174.800455 L348.871424,174.800455 C349.524893,174.800455 350,175.3409 350,175.94033 L350,180.860125 C350,181.46115 349.524893,182 348.871424,182 L327.128576,182 C326.475107,182 326,181.46115 326,180.860125 L326,141.139875 Z" id="Fill-31" fill="#FFFFFF"></path>
                <path d="M356,141.139875 C356,140.540444 356.548479,140 357.160243,140 L362.839757,140 C363.451521,140 364,140.540444 364,141.139875 L364,180.860125 C364,181.46115 363.451521,182 362.839757,182 L357.160243,182 C356.548479,182 356,181.46115 356,180.860125 L356,141.139875 Z" id="Fill-33" fill="#FFFFFF"></path>
                <path d="M389.435987,174.679572 C397.159067,174.679572 402.801824,168.800273 402.801824,160.939422 C402.801824,153.140742 397.159067,147.25985 389.435987,147.25985 L382.663101,147.25985 L382.663101,174.679572 L389.435987,174.679572 Z M375,141.139831 C375,140.540424 375.475096,140 376.070151,140 L390.147843,140 C401.613294,140 411,149.41995 411,160.939422 C411,172.58005 401.613294,182 390.147843,182 L376.070151,182 C375.475096,182 375,181.459576 375,180.858574 L375,141.139831 Z" id="Fill-35" fill="#FFFFFF"></path>
                <path d="M439.026682,167.862211 L433.030738,154.848215 L432.850684,154.848215 L426.974244,167.862211 L439.026682,167.862211 Z M413.119677,180.46284 L431.770362,140.6507 C431.952009,140.295487 432.251568,140 432.790135,140 L433.390845,140 C433.989961,140 434.22897,140.295487 434.410617,140.6507 L452.879656,180.46284 C453.239763,181.23142 452.760151,182 451.861477,182 L446.643109,182 C445.744434,182 445.323778,181.644787 444.904715,180.818053 L441.966495,174.428935 L424.034431,174.428935 L421.096211,180.818053 C420.857202,181.409026 420.317041,182 419.356224,182 L414.139449,182 C413.239181,182 412.761163,181.23142 413.119677,180.46284 Z" id="Fill-37" fill="#FFFFFF"></path>
                <path d="M472.435987,174.679572 C480.157489,174.679572 485.801824,168.800273 485.801824,160.939422 C485.801824,153.140742 480.157489,147.25985 472.435987,147.25985 L465.663101,147.25985 L465.663101,174.679572 L472.435987,174.679572 Z M458,141.139831 C458,140.540424 458.475096,140 459.068572,140 L473.147843,140 C484.613294,140 494,149.41995 494,160.939422 C494,172.58005 484.613294,182 473.147843,182 L459.068572,182 C458.475096,182 458,181.459576 458,180.858574 L458,141.139831 Z" id="Fill-39" fill="#FFFFFF"></path>
                <path d="M312.890287,36 C319.015479,36 323.442286,37.9556964 327.564013,41.6832475 C328.11127,42.172964 328.11127,42.9051615 327.625344,43.3948781 L323.92664,47.2444621 C323.502044,47.7325937 322.895029,47.7325937 322.410675,47.2444621 C319.864671,44.9828909 316.467902,43.6389439 313.072706,43.6389439 C305.312033,43.6389439 299.55168,50.1780067 299.55168,57.8771747 C299.55168,65.5161186 305.371791,71.9933725 313.132464,71.9933725 C316.77141,71.9933725 319.864671,70.5892015 322.410675,68.5114721 C322.895029,68.0835645 323.561802,68.1437885 323.92664,68.5114721 L327.685102,72.4212801 C328.171028,72.8491878 328.04994,73.6431942 327.625344,74.0711018 C323.502044,78.1045276 318.287375,80 312.890287,80 C300.762565,80 291,70.2833267 291,58.0610165 C291,45.8387062 300.762565,36 312.890287,36" id="Fill-41" fill="#FFFFFF"></path>
                <path d="M352.988297,56.5954207 C356.231776,56.5954207 359.045225,53.7692194 359.045225,50.3296654 C359.045225,47.0733207 356.231776,44.3713831 352.988297,44.3713831 L343.016662,44.3713831 L343.016662,56.5954207 L352.988297,56.5954207 Z M335,38.1661665 C335,37.5528139 335.49033,37 336.161559,37 L353.6627,37 C361.004959,37 367,42.8961506 367,50.2069949 C367,55.8578045 363.269364,60.465118 357.945552,62.6158349 L366.327184,78.2188878 C366.755628,79.0170427 366.327184,80 365.287811,80 L358.862739,80 C358.312109,80 358.005851,79.6925271 357.883666,79.4471861 L349.746405,63.1686488 L342.954775,63.1686488 L342.954775,78.8322404 C342.954775,79.4471861 342.404146,80 341.791629,80 L336.161559,80 C335.49033,80 335,79.4471861 335,78.8322404 L335,38.1661665 Z" id="Fill-43" fill="#FFFFFF"></path>
                <path d="M376,38.1661665 C376,37.5528139 376.486217,37 377.151815,37 L401.846611,37 C402.515356,37 403,37.5528139 403,38.1661665 L403,43.2036234 C403,43.816976 402.515356,44.3713831 401.846611,44.3713831 L383.888047,44.3713831 L383.888047,54.4447038 L398.874235,54.4447038 C399.481613,54.4447038 400.027624,54.9975177 400.027624,55.6124634 L400.027624,60.710459 C400.027624,61.3859435 399.481613,61.8782187 398.874235,61.8782187 L383.888047,61.8782187 L383.888047,72.6286169 L401.846611,72.6286169 C402.515356,72.6286169 403,73.1814308 403,73.7947834 L403,78.8322404 C403,79.4471861 402.515356,80 401.846611,80 L377.151815,80 C376.486217,80 376,79.4471861 376,78.8322404 L376,38.1661665 Z" id="Fill-45" fill="#FFFFFF"></path>
                <path d="M432.677319,65.5247836 L426.531883,52.200862 L426.345368,52.200862 L420.322681,65.5247836 L432.677319,65.5247836 Z M406.123614,78.4246265 L425.240624,37.6659605 C425.423951,37.3031377 425.733215,37 426.28479,37 L426.900131,37 C427.515472,37 427.76097,37.3031377 427.944297,37.6659605 L446.876386,78.4246265 C447.246228,79.2115279 446.753637,80 445.83222,80 L440.483857,80 C439.560846,80 439.13202,79.6356065 438.701601,78.78902 L435.690257,72.2472148 L417.309743,72.2472148 L414.298399,78.78902 C414.051307,79.3937247 413.499732,80 412.516143,80 L407.16778,80 C406.246363,80 405.753772,79.2115279 406.123614,78.4246265 Z" id="Fill-47" fill="#FFFFFF"></path>
                <path d="M469.988297,56.5954207 C473.231776,56.5954207 476.045225,53.7692194 476.045225,50.3296654 C476.045225,47.0733207 473.231776,44.3713831 469.988297,44.3713831 L460.016662,44.3713831 L460.016662,56.5954207 L469.988297,56.5954207 Z M452,38.1661665 C452,37.5528139 452.49033,37 453.161559,37 L470.6627,37 C478.004959,37 484,42.8961506 484,50.2069949 C484,55.8578045 480.269364,60.465118 474.945552,62.6158349 L483.327184,78.2188878 C483.755628,79.0170427 483.327184,80 482.287811,80 L475.862739,80 C475.312109,80 475.005851,79.6925271 474.883666,79.4471861 L466.746405,63.1686488 L459.954775,63.1686488 L459.954775,78.8322404 C459.954775,79.4471861 459.404146,80 458.791629,80 L453.161559,80 C452.49033,80 452,79.4471861 452,78.8322404 L452,38.1661665 Z" id="Fill-49" fill="#FFFFFF"></path>
                <g id="Group-53" transform="translate(487.000000, 0.000000)">
                    <mask id="mask-2" fill="white">
                        <use xlink:href="#path-1"></use>
                    </mask>
                    <g id="Clip-52"></g>
                    <polygon id="Fill-51" fill="#F31E76" mask="url(#mask-2)" points="65.099337 200.000315 0.197576087 3.12787402 7.73720652 0.679055118 72.6405543 197.551496"></polygon>
                </g>
                <g id="Group-58" opacity="0.300385975" transform="translate(527.000000, 39.000000)" fill="#FFFFFF">
                    <path d="M24.7868852,27.3684462 L19.1008525,14.8334846 L18.9293115,14.8334846 L13.3565902,27.3684462 L24.7868852,27.3684462 Z M0.221901639,39.5044462 L17.9063607,1.15840769 C18.0763279,0.816215385 18.3611803,0.530792308 18.8726557,0.530792308 L19.4423607,0.530792308 C20.0104918,0.530792308 20.2371148,0.816215385 20.4086557,1.15840769 L37.9231475,39.5044462 C38.263082,40.2456 37.8082623,40.9867538 36.9552787,40.9867538 L32.008918,40.9867538 C31.1559344,40.9867538 30.7577705,40.6445615 30.3596066,39.8466385 L27.5740328,33.6934846 L10.5710164,33.6934846 L7.78386885,39.8466385 C7.5572459,40.4159077 7.04577049,40.9867538 6.13455738,40.9867538 L1.18819672,40.9867538 C0.335213115,40.9867538 -0.119606557,40.2456 0.221901639,39.5044462 Z" id="Fill-54"></path>
                    <path d="M82.5629902,19.2774115 C85.5767607,19.2774115 88.1923672,16.6565654 88.1923672,13.4648731 C88.1923672,10.4450654 85.5767607,7.93933462 82.5629902,7.93933462 L73.293482,7.93933462 L73.293482,19.2774115 L82.5629902,19.2774115 Z M65.8448262,2.18356538 C65.8448262,1.61429615 66.2996459,1.10179615 66.9244328,1.10179615 L83.187777,1.10179615 C90.0116459,1.10179615 95.5843672,6.57056538 95.5843672,13.3513346 C95.5843672,18.5930269 92.115777,22.8664885 87.1694164,24.8612962 L94.9595803,39.3342962 C95.3577443,40.0738731 94.9595803,40.9869115 93.9932852,40.9869115 L88.0224,40.9869115 C87.5109246,40.9869115 87.2260721,40.7014885 87.1127607,40.4728346 L79.5492197,25.3737962 L73.2368262,25.3737962 L73.2368262,39.9035654 C73.2368262,40.4728346 72.7253508,40.9869115 72.1572197,40.9869115 L66.9244328,40.9869115 C66.2996459,40.9869115 65.8448262,40.4728346 65.8448262,39.9035654 L65.8448262,2.18356538 Z" id="Fill-56"></path>
                </g>
                <g id="Group-65" opacity="0.2" transform="translate(548.000000, 99.000000)" fill="#FFFFFF">
                    <path d="M10.7477287,8.47402593 L2.04271724,8.47402593 C1.41598161,8.47402593 0.960889655,7.95643333 0.960889655,7.37991481 L0.960889655,2.66265556 C0.960889655,2.08613704 1.41598161,1.56854444 2.04271724,1.56854444 L26.9074299,1.56854444 C27.5325908,1.56854444 27.9876828,2.08613704 27.9876828,2.66265556 L27.9876828,7.37991481 C27.9876828,7.95643333 27.5325908,8.47402593 26.9074299,8.47402593 L18.2008437,8.47402593 L18.2008437,40.7574704 C18.2008437,41.3323963 17.6890621,41.8499889 17.1205908,41.8499889 L11.8295563,41.8499889 C11.2595103,41.8499889 10.7477287,41.3323963 10.7477287,40.7574704 L10.7477287,8.47402593 Z" id="Fill-59"></path>
                    <path d="M56.6666644,2.66201852 C56.6666644,2.08709259 57.1217563,1.56790741 57.748492,1.56790741 L80.9062161,1.56790741 C81.531377,1.56790741 81.986469,2.08709259 81.986469,2.66201852 L81.986469,7.38087037 C81.986469,7.9557963 81.531377,8.47338889 80.9062161,8.47338889 L64.0630897,8.47338889 L64.0630897,17.9110926 L78.1174,17.9110926 C78.6858713,17.9110926 79.1992276,18.4286852 79.1992276,19.0052037 L79.1992276,23.7813889 C79.1992276,24.4136481 78.6858713,24.8739074 78.1174,24.8739074 L64.0630897,24.8739074 L64.0630897,34.945463 L80.9062161,34.945463 C81.531377,34.945463 81.986469,35.4630556 81.986469,36.0379815 L81.986469,40.7568333 C81.986469,41.3317593 81.531377,41.8493519 80.9062161,41.8493519 L57.748492,41.8493519 C57.1217563,41.8493519 56.6666644,41.3317593 56.6666644,40.7568333 L56.6666644,2.66201852 Z" id="Fill-61"></path>
                    <path d="M110.549709,36.2107778 L112.59841,32.6433704 C113.053502,31.8375185 114.020376,31.8375185 114.532157,32.2404444 C114.81718,32.4124444 119.426364,35.8078519 123.12379,35.8078519 C126.082675,35.8078519 128.301445,33.8521481 128.301445,31.3772593 C128.301445,28.4421111 125.855916,26.4274815 121.076663,24.4717778 C115.727364,22.2851481 110.37964,18.8324074 110.37964,12.0415926 C110.37964,6.91981481 114.133755,0.993777778 123.180479,0.993777778 C128.98487,0.993777778 133.42241,3.98625926 134.560928,4.84944444 C135.129399,5.19344444 135.301043,6.17288889 134.90264,6.74781481 L132.74056,10.0285556 C132.285468,10.7181481 131.431974,11.1784074 130.748548,10.7181481 C130.293456,10.4314815 125.969295,7.55366667 122.840341,7.55366667 C119.596433,7.55366667 117.832755,9.7402963 117.832755,11.5813333 C117.832755,14.2855556 119.938146,16.1281852 124.54733,18.0265556 C130.066698,20.2705185 136.437985,23.6085926 136.437985,31.0316667 C136.437985,36.9592963 131.375284,42.4250741 123.352123,42.4250741 C116.182456,42.4250741 111.971675,39.0312593 110.834732,37.9371481 C110.321376,37.4195556 110.037928,37.1312963 110.549709,36.2107778" id="Fill-63"></path>
                </g>
            </g>
        </g>
    </g>
</svg>