<?xml version="1.0" encoding="utf-8"?>
<!-- Generator: Adobe Illustrator 23.0.1, SVG Export Plug-In . SVG Version: 6.00 Build 0)  -->
<svg version="1.1" id="Capa_1" xmlns="http://www.w3.org/2000/svg" xmlns:xlink="http://www.w3.org/1999/xlink" x="0px" y="0px"
	 viewBox="0 0 172 72" style="enable-background:new 0 0 172 72;" xml:space="preserve">
<style type="text/css">
	.st0{opacity:0.3;}
	.st1{fill:#FFFFFF;}
	.st2{opacity:0.2;}
	.st3{opacity:0.1;}
	.st4{opacity:5.000000e-02;}
	.st5{fill:#E41E3A;}
</style>
<g id="XMLID_4957_">
	<g>
		<g id="XMLID_5004_" class="st0">
			<path id="XMLID_5011_" class="st1" d="M120.6,14.2l4.1-8.9c0-0.1,0.1-0.1,0.2-0.1h0.1c0.1,0,0.2,0.1,0.2,0.1l4.1,8.9
				c0.1,0.2,0,0.3-0.2,0.3H128c-0.2,0-0.3-0.1-0.4-0.3l-0.6-1.4H123l-0.6,1.4c-0.1,0.1-0.2,0.3-0.4,0.3h-1.1
				C120.6,14.6,120.5,14.4,120.6,14.2z M126.3,11.4L125,8.5h0l-1.3,2.9H126.3z"/>
			<path id="XMLID_5008_" class="st1" d="M135.8,5.6c0-0.1,0.1-0.3,0.3-0.3h3.8c1.6,0,2.9,1.3,2.9,2.8c0,1.2-0.8,2.2-1.9,2.7
				l1.8,3.3c0.1,0.2,0,0.4-0.2,0.4h-1.4c-0.1,0-0.2-0.1-0.2-0.1L139,11h-1.5v3.4c0,0.1-0.1,0.3-0.3,0.3H136c-0.1,0-0.3-0.1-0.3-0.3
				V5.6z M139.7,9.6c0.7,0,1.3-0.6,1.3-1.3c0-0.7-0.6-1.3-1.3-1.3h-2.1v2.6H139.7z"/>
			<path id="XMLID_5005_" class="st1" d="M153.7,5.2c2.6,0,4.7,2.1,4.7,4.8c0,1.8-1,3.4-2.6,4.2l1.6,2.6c0.1,0.2,0,0.4-0.2,0.4h-1.4
				c-0.1,0-0.2-0.1-0.2-0.1l-1.4-2.4c-0.2,0-0.4,0-0.6,0c-2.6,0-4.7-2.1-4.7-4.7C149,7.3,151.1,5.2,153.7,5.2z M153.7,13
				c1.7,0,3-1.4,3-3c0-1.7-1.4-3-3-3c-1.7,0-3,1.4-3,3C150.7,11.6,152,13,153.7,13z"/>
		</g>
		<g id="XMLID_4997_" class="st2">
			<path id="XMLID_5002_" class="st1" d="M124.9,21.4c0-0.1,0.1-0.3,0.3-0.3h1.3c0.1,0,0.3,0.1,0.3,0.3v5.4c0,1.1,0.8,2,1.9,2
				c1.1,0,1.9-0.9,1.9-2v-5.4c0-0.1,0.1-0.3,0.2-0.3h1.3c0.1,0,0.2,0.1,0.2,0.3v5.5c0,2-1.6,3.6-3.7,3.6c-2.1,0-3.7-1.6-3.7-3.6
				V21.4z"/>
			<path id="XMLID_5000_" class="st1" d="M142,21.4c0-0.1,0.1-0.3,0.3-0.3h1.2c0.1,0,0.2,0.1,0.2,0.3v8.7c0,0.1-0.1,0.3-0.2,0.3
				h-1.2c-0.1,0-0.3-0.1-0.3-0.3V21.4z"/>
			<path id="XMLID_4998_" class="st1" d="M156.5,22.7h-2c-0.1,0-0.3-0.1-0.3-0.3v-1.1c0-0.1,0.1-0.3,0.3-0.3h5.8
				c0.1,0,0.3,0.1,0.3,0.3v1.1c0,0.1-0.1,0.3-0.3,0.3h-2v7.4c0,0.1-0.1,0.3-0.3,0.3h-1.2c-0.1,0-0.2-0.1-0.2-0.3V22.7z"/>
		</g>
		<g id="XMLID_4990_" class="st3">
			<path id="XMLID_4995_" class="st1" d="M131,37.2c0-0.1,0.1-0.3,0.3-0.3h5.4c0.1,0,0.3,0.1,0.3,0.3v1.1c0,0.1-0.1,0.3-0.3,0.3
				h-3.9v2.2h3.3c0.1,0,0.2,0.1,0.2,0.3V42c0,0.1-0.1,0.3-0.2,0.3h-3.3v2.3h3.9c0.1,0,0.3,0.1,0.3,0.3v1.1c0,0.1-0.1,0.3-0.3,0.3
				h-5.4c-0.1,0-0.3-0.1-0.3-0.3V37.2z"/>
			<path id="XMLID_4993_" class="st1" d="M148.9,36.8c1.3,0,2.3,0.4,3.2,1.2c0.1,0.1,0.1,0.3,0,0.4l-0.8,0.8c-0.1,0.1-0.2,0.1-0.3,0
				c-0.6-0.5-1.3-0.8-2-0.8c-1.7,0-2.9,1.4-2.9,3.1c0,1.6,1.3,3,2.9,3c0.8,0,1.5-0.3,2-0.7c0.1-0.1,0.3-0.1,0.3,0l0.8,0.8
				c0.1,0.1,0.1,0.3,0,0.4c-0.9,0.9-2,1.3-3.2,1.3c-2.6,0-4.8-2.1-4.8-4.7C144.2,38.9,146.3,36.8,148.9,36.8z"/>
			<path id="XMLID_4991_" class="st1" d="M161.8,38.5h-2c-0.1,0-0.3-0.1-0.3-0.3v-1.1c0-0.1,0.1-0.3,0.3-0.3h5.8
				c0.1,0,0.3,0.1,0.3,0.3v1.1c0,0.1-0.1,0.3-0.3,0.3h-2v7.4c0,0.1-0.1,0.3-0.3,0.3H162c-0.1,0-0.2-0.1-0.2-0.3V38.5z"/>
		</g>
		<g id="XMLID_4981_" class="st4">
			<path id="XMLID_4988_" class="st1" d="M135.2,53c0-0.1,0.1-0.3,0.3-0.3h1.3c0.1,0,0.3,0.1,0.3,0.3v5.4c0,1.1,0.8,2,1.9,2
				c1.1,0,1.9-0.9,1.9-2V53c0-0.1,0.1-0.3,0.2-0.3h1.3c0.1,0,0.2,0.1,0.2,0.3v5.5c0,2-1.6,3.6-3.7,3.6c-2.1,0-3.7-1.6-3.7-3.6V53z"
				/>
			<path id="XMLID_4985_" class="st1" d="M149.7,53c0-0.1,0.1-0.3,0.3-0.3h3.8c1.6,0,2.9,1.3,2.9,2.8c0,1.2-0.8,2.2-1.9,2.7l1.8,3.3
				c0.1,0.2,0,0.4-0.2,0.4h-1.4c-0.1,0-0.2-0.1-0.2-0.1l-1.8-3.5h-1.5v3.4c0,0.1-0.1,0.3-0.3,0.3h-1.2c-0.1,0-0.3-0.1-0.3-0.3V53z
				 M153.6,56.9c0.7,0,1.3-0.6,1.3-1.3c0-0.7-0.6-1.3-1.3-1.3h-2.1v2.6H153.6z"/>
			<path id="XMLID_4982_" class="st1" d="M163.2,61.6l4.1-8.9c0-0.1,0.1-0.1,0.2-0.1h0.1c0.1,0,0.2,0.1,0.2,0.1l4.1,8.9
				c0.1,0.2,0,0.3-0.2,0.3h-1.1c-0.2,0-0.3-0.1-0.4-0.3l-0.6-1.4h-3.9l-0.6,1.4c-0.1,0.1-0.2,0.3-0.4,0.3h-1.1
				C163.3,61.9,163.2,61.8,163.2,61.6z M168.9,58.8l-1.3-2.9h0l-1.3,2.9H168.9z"/>
		</g>
	</g>
	<g>
		<g id="XMLID_5014_">
			<g>
				<g id="XMLID_406_">
					<path id="XMLID_423_" class="st1" d="M63.6,31.5C63.6,31.5,63.7,31.4,63.6,31.5l1.5-0.1c0.7,0,1.2,0.6,1.2,1.4
						c0,1-0.8,1.8-1.7,1.8h-1.1l-0.2,1.7c0,0-0.1,0.1-0.1,0.1H63c0,0-0.1,0-0.1-0.1L63.6,31.5z M64.7,34.3c0.7,0,1.3-0.7,1.3-1.4
						c0-0.6-0.4-1.1-1-1.1h-1.1l-0.4,2.5H64.7z"/>
					<path id="XMLID_420_" class="st1" d="M69,36.4C68.9,36.4,68.9,36.3,69,36.4l2.6-5c0,0,0,0,0.1,0h0c0,0,0.1,0,0.1,0l1.3,4.9
						c0,0,0,0.1-0.1,0.1h-0.2c-0.1,0-0.1,0-0.1-0.1L72.3,35H70l-0.7,1.3c0,0,0,0.1-0.1,0.1H69z M72.3,34.7l-0.7-2.8c0,0,0,0,0,0
						l-1.5,2.8H72.3z"/>
					<path id="XMLID_417_" class="st1" d="M77.3,31.5C77.3,31.5,77.4,31.4,77.3,31.5l1.7-0.1c0.7,0,1.2,0.6,1.2,1.3
						c0,0.8-0.5,1.5-1.3,1.7l0.7,1.8c0,0.1,0,0.1-0.1,0.1h-0.2c0,0-0.1,0-0.1-0.1l-0.7-1.9c-0.1,0-0.2,0-0.3,0h-1.1L77,36.3
						c0,0-0.1,0.1-0.1,0.1h-0.1c0,0-0.1,0-0.1-0.1L77.3,31.5z M78.6,34.2c0.7,0,1.3-0.6,1.3-1.4c0-0.6-0.4-1-0.9-1h-1.3l-0.3,2.4
						H78.6z"/>
					<path id="XMLID_414_" class="st1" d="M83.1,36.4C83.1,36.4,83.1,36.3,83.1,36.4l2.6-5c0,0,0,0,0.1,0h0c0,0,0.1,0,0.1,0l1.3,4.9
						c0,0,0,0.1-0.1,0.1h-0.2c-0.1,0-0.1,0-0.1-0.1L86.5,35h-2.4l-0.7,1.3c0,0,0,0.1-0.1,0.1H83.1z M86.4,34.7l-0.7-2.8c0,0,0,0,0,0
						l-1.5,2.8H86.4z"/>
					<path id="XMLID_412_" class="st1" d="M95.8,31.5C95.8,31.5,95.9,31.4,95.8,31.5l0.3-0.1c0,0,0.1,0,0.1,0.1l-0.4,3
						c-0.1,0.9,0.3,1.6,1.1,1.6s1.4-0.7,1.6-1.6l0.4-3c0-0.1,0-0.1,0.1-0.1h0.1c0,0,0.1,0,0.1,0.1l-0.4,3.1
						c-0.2,1.1-0.9,1.9-1.9,1.9c-1,0-1.5-0.8-1.4-1.9L95.8,31.5z"/>
					<path id="XMLID_410_" class="st1" d="M103.4,31.5c0-0.1,0.1-0.1,0.1-0.1h0.1l2.4,4.4h0l0.6-4.2c0,0,0.1-0.1,0.1-0.1h0.1
						c0,0,0.1,0,0.1,0.1l-0.7,4.8c0,0.1-0.1,0.1-0.1,0.1h-0.1l-2.4-4.4h0l-0.6,4.2c0,0.1-0.1,0.1-0.2,0.1h-0.1c0,0-0.1,0-0.1-0.1
						L103.4,31.5z"/>
					<path id="XMLID_407_" class="st1" d="M110,36.4C110,36.4,109.9,36.3,110,36.4l2.6-5c0,0,0,0,0.1,0h0c0,0,0.1,0,0.1,0l1.3,4.9
						c0,0,0,0.1-0.1,0.1h-0.2c-0.1,0-0.1,0-0.1-0.1l-0.3-1.3H111l-0.7,1.3c0,0,0,0.1-0.1,0.1H110z M113.3,34.7l-0.7-2.8c0,0,0,0,0,0
						l-1.5,2.8H113.3z"/>
				</g>
				<g id="XMLID_373_">
					<path id="XMLID_404_" class="st1" d="M0,41.2C0,41.1,0.1,41,0.3,41h0.4l5.9,6.2h0v-5.8c0-0.1,0.1-0.3,0.3-0.3h1.3
						c0.1,0,0.3,0.1,0.3,0.3v9.5c0,0.1-0.1,0.3-0.3,0.3H7.7l-5.9-6.5h0v6.1c0,0.1-0.1,0.3-0.3,0.3H0.3C0.1,51,0,50.9,0,50.7V41.2z"
						/>
					<path id="XMLID_402_" class="st1" d="M10.8,41.4c0-0.1,0.1-0.3,0.3-0.3h1.3c0.2,0,0.3,0.1,0.3,0.3v5.8c0,1.2,0.8,2.1,2,2.1
						c1.2,0,2.1-0.9,2.1-2.1v-5.8c0-0.1,0.1-0.3,0.3-0.3h1.3c0.1,0,0.3,0.1,0.3,0.3v5.9c0,2.1-1.7,3.9-3.9,3.9
						c-2.2,0-3.9-1.7-3.9-3.9V41.4z"/>
					<path id="XMLID_400_" class="st1" d="M21.1,41.4c0-0.1,0.1-0.3,0.3-0.3h5.7c0.2,0,0.3,0.1,0.3,0.3v1.2c0,0.1-0.1,0.3-0.3,0.3
						h-4.2v2.3h3.5c0.1,0,0.3,0.1,0.3,0.3v1.2c0,0.2-0.1,0.3-0.3,0.3h-3.5v2.5h4.2c0.2,0,0.3,0.1,0.3,0.3v1.2c0,0.1-0.1,0.3-0.3,0.3
						h-5.7c-0.2,0-0.3-0.1-0.3-0.3V41.4z"/>
					<path id="XMLID_398_" class="st1" d="M28.1,41.5c-0.1-0.2,0-0.4,0.2-0.4h1.4c0.1,0,0.2,0.1,0.2,0.2l2.7,6.1h0.1l2.7-6.1
						c0-0.1,0.1-0.2,0.2-0.2h1.4c0.2,0,0.3,0.2,0.2,0.4L33.1,51c0,0.1-0.1,0.2-0.2,0.2h-0.1c-0.1,0-0.2-0.1-0.2-0.2L28.1,41.5z"/>
					<path id="XMLID_395_" class="st1" d="M36.7,50.6l4.4-9.5c0-0.1,0.1-0.2,0.2-0.2h0.1c0.1,0,0.2,0.1,0.2,0.2l4.3,9.5
						c0.1,0.2,0,0.4-0.2,0.4h-1.2c-0.2,0-0.3-0.1-0.4-0.3l-0.7-1.5h-4.2l-0.7,1.5c-0.1,0.1-0.2,0.3-0.4,0.3H37
						C36.8,51,36.7,50.8,36.7,50.6z M42.8,47.6l-1.4-3.1h0L40,47.6H42.8z"/>
					<path id="XMLID_392_" class="st1" d="M50.5,41.4c0-0.1,0.1-0.3,0.3-0.3h4c1.7,0,3.1,1.4,3.1,3c0,1.3-0.9,2.4-2.1,2.9l1.9,3.6
						c0.1,0.2,0,0.4-0.2,0.4H56c-0.1,0-0.2-0.1-0.2-0.1l-1.9-3.7h-1.6v3.6c0,0.1-0.1,0.3-0.3,0.3h-1.3c-0.2,0-0.3-0.1-0.3-0.3V41.4z
						 M54.7,45.6c0.7,0,1.4-0.6,1.4-1.4c0-0.7-0.6-1.4-1.4-1.4h-2.3v2.8H54.7z"/>
					<path id="XMLID_390_" class="st1" d="M59.9,41.4c0-0.1,0.1-0.3,0.3-0.3h5.7c0.2,0,0.3,0.1,0.3,0.3v1.2c0,0.1-0.1,0.3-0.3,0.3
						h-4.2v2.3h3.5c0.1,0,0.3,0.1,0.3,0.3v1.2c0,0.2-0.1,0.3-0.3,0.3h-3.5v2.5h4.2c0.2,0,0.3,0.1,0.3,0.3v1.2c0,0.1-0.1,0.3-0.3,0.3
						h-5.7c-0.2,0-0.3-0.1-0.3-0.3V41.4z"/>
					<path id="XMLID_387_" class="st1" d="M66.9,50.6l4.4-9.5c0-0.1,0.1-0.2,0.2-0.2h0.1c0.1,0,0.2,0.1,0.2,0.2l4.3,9.5
						c0.1,0.2,0,0.4-0.2,0.4h-1.2c-0.2,0-0.3-0.1-0.4-0.3l-0.7-1.5h-4.2l-0.7,1.5c-0.1,0.1-0.2,0.3-0.4,0.3h-1.2
						C67,51,66.8,50.8,66.9,50.6z M73,47.6l-1.4-3.1h0l-1.4,3.1H73z"/>
					<path id="XMLID_385_" class="st1" d="M77.6,41.4c0-0.1,0.1-0.3,0.3-0.3h1.3c0.1,0,0.3,0.1,0.3,0.3v7.9H83
						c0.2,0,0.3,0.1,0.3,0.3v1.2c0,0.1-0.1,0.3-0.3,0.3h-5.2c-0.2,0-0.3-0.1-0.3-0.3V41.4z"/>
					<path id="XMLID_383_" class="st1" d="M84.7,41.4c0-0.1,0.1-0.3,0.3-0.3h1.3c0.1,0,0.3,0.1,0.3,0.3v9.3c0,0.1-0.1,0.3-0.3,0.3
						H85c-0.1,0-0.3-0.1-0.3-0.3V41.4z"/>
					<path id="XMLID_380_" class="st1" d="M89.1,41.4c0-0.1,0.1-0.3,0.3-0.3h3.3c2.7,0,5,2.2,5,4.9c0,2.7-2.2,5-5,5h-3.3
						c-0.1,0-0.3-0.1-0.3-0.3V41.4z M92.5,49.3c1.8,0,3.2-1.4,3.2-3.2c0-1.8-1.3-3.2-3.2-3.2h-1.6v6.5H92.5z"/>
					<path id="XMLID_377_" class="st1" d="M98.2,50.6l4.4-9.5c0-0.1,0.1-0.2,0.2-0.2h0.1c0.1,0,0.2,0.1,0.2,0.2l4.3,9.5
						c0.1,0.2,0,0.4-0.2,0.4h-1.2c-0.2,0-0.3-0.1-0.4-0.3l-0.7-1.5h-4.2l-0.7,1.5c-0.1,0.1-0.2,0.3-0.4,0.3h-1.2
						C98.2,51,98.1,50.8,98.2,50.6z M104.3,47.6l-1.4-3.1h0l-1.4,3.1H104.3z"/>
					<path id="XMLID_374_" class="st1" d="M108.8,41.4c0-0.1,0.1-0.3,0.3-0.3h3.3c2.7,0,5,2.2,5,4.9c0,2.7-2.2,5-5,5h-3.3
						c-0.1,0-0.3-0.1-0.3-0.3V41.4z M112.2,49.3c1.8,0,3.2-1.4,3.2-3.2c0-1.8-1.3-3.2-3.2-3.2h-1.6v6.5H112.2z"/>
				</g>
			</g>
		</g>
		<g id="XMLID_4958_">
			<path id="XMLID_4978_" class="st1" d="M36.1,17.9c1.4,0,2.5,0.5,3.4,1.3c0.1,0.1,0.1,0.3,0,0.4l-0.9,0.9c-0.1,0.1-0.2,0.1-0.4,0
				c-0.6-0.5-1.4-0.8-2.2-0.8c-1.8,0-3.1,1.5-3.1,3.3c0,1.8,1.4,3.3,3.2,3.3c0.8,0,1.6-0.3,2.2-0.8c0.1-0.1,0.3-0.1,0.4,0l0.9,0.9
				c0.1,0.1,0.1,0.3,0,0.4c-1,0.9-2.2,1.4-3.4,1.4C33.3,28,31,25.8,31,23C31,20.1,33.3,17.9,36.1,17.9z"/>
			<path id="XMLID_4975_" class="st1" d="M45.7,17.9c2.8,0,5.1,2.3,5.1,5.1c0,2.8-2.3,5.1-5.1,5.1c-2.8,0-5.1-2.2-5.1-5.1
				C40.7,20.1,42.9,17.9,45.7,17.9z M45.7,26.2c1.8,0,3.2-1.5,3.2-3.2c0-1.8-1.5-3.3-3.2-3.3c-1.8,0-3.2,1.5-3.2,3.3
				C42.5,24.7,44,26.2,45.7,26.2z"/>
			<path id="XMLID_4973_" class="st1" d="M52.7,18.1c0-0.1,0.1-0.3,0.3-0.3h0.4l5.9,6.2h0v-5.8c0-0.1,0.1-0.3,0.3-0.3h1.3
				c0.1,0,0.3,0.1,0.3,0.3v9.5c0,0.1-0.1,0.3-0.3,0.3h-0.3l-5.9-6.5h0v6.1c0,0.1-0.1,0.3-0.3,0.3h-1.3c-0.1,0-0.3-0.1-0.3-0.3V18.1z
				"/>
			<path id="XMLID_4971_" class="st1" d="M63,26.5l0.5-0.9c0.1-0.2,0.4-0.2,0.5-0.1c0.1,0,1.2,0.9,2.1,0.9c0.7,0,1.3-0.5,1.3-1.1
				c0-0.7-0.6-1.2-1.8-1.7c-1.3-0.5-2.7-1.4-2.7-3c0-1.3,0.9-2.7,3.2-2.7c1.4,0,2.5,0.7,2.8,0.9c0.1,0.1,0.2,0.3,0.1,0.5l-0.5,0.8
				c-0.1,0.2-0.3,0.3-0.5,0.2c-0.1-0.1-1.2-0.8-2-0.8c-0.8,0-1.2,0.5-1.2,1c0,0.7,0.5,1.1,1.7,1.6c1.4,0.6,3,1.4,3,3.2
				c0,1.5-1.3,2.8-3.2,2.8c-1.8,0-2.8-0.8-3.1-1.1C63,26.8,62.9,26.7,63,26.5z"/>
			<path id="XMLID_4969_" class="st1" d="M72.6,19.7h-2.2c-0.2,0-0.3-0.1-0.3-0.3v-1.2c0-0.1,0.1-0.3,0.3-0.3h6.2
				c0.2,0,0.3,0.1,0.3,0.3v1.2c0,0.1-0.1,0.3-0.3,0.3h-2.2v7.9c0,0.1-0.1,0.3-0.3,0.3h-1.3c-0.1,0-0.3-0.1-0.3-0.3V19.7z"/>
			<path id="XMLID_4966_" class="st1" d="M78.3,18.3c0-0.1,0.1-0.3,0.3-0.3h4c1.7,0,3.1,1.4,3.1,3c0,1.3-0.9,2.4-2.1,2.9l1.9,3.6
				c0.1,0.2,0,0.4-0.2,0.4h-1.5c-0.1,0-0.2-0.1-0.2-0.1L81.7,24h-1.6v3.6c0,0.1-0.1,0.3-0.3,0.3h-1.3c-0.2,0-0.3-0.1-0.3-0.3V18.3z
				 M82.5,22.5c0.7,0,1.4-0.6,1.4-1.4c0-0.7-0.6-1.4-1.4-1.4h-2.3v2.8H82.5z"/>
			<path id="XMLID_4964_" class="st1" d="M87.6,18.3c0-0.1,0.1-0.3,0.3-0.3h1.3c0.2,0,0.3,0.1,0.3,0.3v5.8c0,1.2,0.8,2.1,2,2.1
				c1.2,0,2.1-0.9,2.1-2.1v-5.8c0-0.1,0.1-0.3,0.3-0.3h1.3c0.1,0,0.3,0.1,0.3,0.3v5.9c0,2.1-1.7,3.9-3.9,3.9c-2.2,0-3.9-1.7-3.9-3.9
				V18.3z"/>
			<path id="XMLID_4962_" class="st1" d="M97.9,18.3c0-0.1,0.1-0.3,0.3-0.3h1.3c0.1,0,0.3,0.1,0.3,0.3v9.3c0,0.1-0.1,0.3-0.3,0.3
				h-1.3c-0.1,0-0.3-0.1-0.3-0.3V18.3z"/>
			<path id="XMLID_4959_" class="st1" d="M102.3,18.3c0-0.1,0.1-0.3,0.3-0.3h4c1.7,0,3.1,1.4,3.1,3c0,1.3-0.9,2.4-2.1,2.9l1.9,3.6
				c0.1,0.2,0,0.4-0.2,0.4h-1.5c-0.1,0-0.2-0.1-0.2-0.1l-1.9-3.7h-1.6v3.6c0,0.1-0.1,0.3-0.3,0.3h-1.3c-0.2,0-0.3-0.1-0.3-0.3V18.3z
				 M106.4,22.5c0.7,0,1.4-0.6,1.4-1.4c0-0.7-0.6-1.4-1.4-1.4h-2.3v2.8H106.4z"/>
		</g>
	</g>
	
		<rect x="119.8" y="-0.5" transform="matrix(0.9504 -0.3109 0.3109 0.9504 -5.216 39.4755)" class="st5" width="2.8" height="73.2"/>
</g>
</svg>
