<?xml version="1.0" encoding="UTF-8"?>
<svg width="93px" height="60px" viewBox="0 0 93 60" version="1.1" xmlns="http://www.w3.org/2000/svg" xmlns:xlink="http://www.w3.org/1999/xlink">
    <!-- Generator: Sketch 53.2 (72643) - https://sketchapp.com -->
    <title>ARTCOM</title>
    <desc>Created with Sketch.</desc>
    <defs>
        <polygon id="path-1" points="0.481864 0.0345154639 83.09612 0.0345154639 83.09612 59.3813196 0.481864 59.3813196"></polygon>
        <polygon id="path-3" points="0.000186 0.247793814 92.39612 0.247793814 92.39612 59.3814433 0.000186 59.3814433"></polygon>
    </defs>
    <g id="Arquitectura" stroke="none" stroke-width="1" fill="none" fill-rule="evenodd" opacity="0.5">
        <g id="Desktop-2" transform="translate(-164.000000, -49.000000)">
            <g id="ARTCOM" transform="translate(164.000000, 49.000000)">
                <g id="Group-7">
                    <g id="Group-3" transform="translate(9.300000, 0.584412)">
                        <mask id="mask-2" fill="white">
                            <use xlink:href="#path-1"></use>
                        </mask>
                        <g id="Clip-2"></g>
                        <path d="M37.528104,53.0120412 L37.528724,53.0120412 C36.792164,53.1969897 36.022744,53.3009072 35.210544,53.3009072 C33.864524,53.3009072 32.641264,53.0522474 31.540144,52.5518351 C30.438404,52.0526598 29.479884,51.3734845 28.663964,50.5174021 C27.849904,49.6613196 27.219984,48.6623505 26.776064,47.5198763 C26.331524,46.3792577 26.110804,45.1644124 26.110804,43.8802887 L26.110804,43.7943093 C26.110804,42.5101856 26.331524,41.3052371 26.776064,40.1763711 C27.219984,39.0487423 27.835024,38.0571959 28.621804,37.1998763 C29.158724,36.6159588 29.775004,36.1248247 30.458244,35.7134845 L28.213844,30.2225567 L28.086744,29.9120412 C26.424524,30.6908041 24.971244,31.6990515 23.729384,32.9398763 C22.312064,34.3532784 21.203504,35.9943093 20.403084,37.8642062 C19.600804,39.7347216 19.200284,41.7388454 19.200284,43.8802887 L19.200284,43.966268 C19.200284,46.1064742 19.593364,48.1136907 20.380144,49.9823505 C21.166924,51.8522474 22.269904,53.4796701 23.685364,54.8633814 C25.102064,56.2483299 26.783504,57.3468866 28.729064,58.1609072 C30.674624,58.9749278 32.805564,59.3813196 35.124364,59.3813196 C37.441304,59.3813196 39.867364,58.7361649 39.867364,58.7361649 L37.528104,53.0120412 Z M41.777584,6.19905155 L41.777584,0.247917526 L35.167764,0.247917526 L35.167764,28.3804948 C35.182024,28.3804948 35.196284,28.3792577 35.210544,28.3792577 C37.528104,28.3792577 39.659044,28.786268 41.604604,29.5996701 C41.664124,29.6250309 41.718064,29.6559588 41.777584,29.6813196 L41.777584,20.6299794 L41.777584,14.8068866 L41.777584,6.19905155 Z M19.114104,7.95513402 L23.105044,17.6769897 L29.773144,17.6769897 L22.247584,0.0345154639 L16.152364,0.0345154639 L0.481864,36.7749278 C1.163244,36.1223505 1.940104,35.5885361 2.824844,35.1883299 C3.897444,34.7027629 5.063664,34.4602887 6.323504,34.4602887 C7.840024,34.4602887 9.205264,34.7602887 10.421084,35.358433 C11.637524,35.958433 12.832264,36.787299 14.005924,37.8419381 L18.212624,33.0042062 C17.525664,32.3188454 16.781044,31.6916289 15.980004,31.1188454 C15.179584,30.5497732 14.306624,30.0642062 13.362364,29.6633814 C12.525984,29.309567 11.599704,29.0268866 10.593444,28.807299 L12.762824,23.5000825 L15.121924,17.6769897 L19.114104,7.95513402 Z M68.074264,41.5687423 L67.945924,52.1027629 L68.116424,52.1027629 L76.572604,39.2992577 L76.572604,59.3813196 L83.096244,59.3813196 L83.096244,28.8932784 L75.977404,28.8932784 L75.971204,28.8932784 L68.074264,41.5687423 Z M53.052284,59.3813196 L59.575924,59.3813196 L59.575924,39.5442062 L53.052284,29.7549278 L53.052284,59.3813196 Z M57.657644,3.28750515 C55.648224,1.28276289 52.767704,0.270185567 49.021664,0.247917526 L49.021044,0.252247423 L60.225684,0.267092784 L69.367584,0.281938144 L69.367584,6.32894845 L60.225684,6.32894845 L59.602584,6.32894845 C59.174164,5.1697732 58.526884,4.15472165 57.657644,3.28750515 L57.657644,3.28750515 Z" id="Fill-1" fill="#FFFFFF" mask="url(#mask-2)"></path>
                    </g>
                    <g id="Group-6" transform="translate(0.000000, 0.584412)">
                        <mask id="mask-4" fill="white">
                            <use xlink:href="#path-3"></use>
                        </mask>
                        <g id="Clip-5"></g>
                        <path d="M10.296526,29.2296495 C10.276066,29.2364536 10.255606,29.2432577 10.234526,29.2500619 C9.922666,29.3564536 9.615146,29.4721237 9.313826,29.6001649 C7.396786,30.4141856 5.751926,31.525732 4.377386,32.9397526 C3.004706,34.3531546 1.932106,35.9948041 1.158346,37.8640825 C0.387066,39.7345979 0.000186,41.7393402 0.000186,43.8807835 L0.000186,43.9661443 C0.000186,46.1063505 0.387066,48.1197526 1.158346,50.0032577 C1.932106,51.8867629 3.004706,53.5222268 4.377386,54.9071753 C5.751926,56.2921237 7.381906,57.3832577 9.271666,58.1818144 C11.160186,58.9803711 13.204946,59.3818144 15.409046,59.3818144 C16.867906,59.3818144 18.183546,59.2593402 19.357206,59.016866 C20.529626,58.7756289 21.611526,58.4181031 22.597326,57.9467629 C23.585606,57.4766598 24.493286,56.9131546 25.324086,56.2556289 C26.153026,55.5987216 26.954066,54.8576907 27.727206,54.0288247 L23.520506,49.7892371 C22.346846,50.8741856 21.166986,51.7321237 19.979686,52.3587216 C18.792386,52.9871753 17.339106,53.3007835 15.623566,53.3007835 C14.335206,53.3007835 13.155346,53.0521237 12.082746,52.5517113 C11.008906,52.0525361 10.093166,51.3733608 9.334906,50.5172784 C8.576646,49.6611959 7.983306,48.6622268 7.554266,47.5197526 C7.125226,46.379134 6.910706,45.1642887 6.910706,43.8807835 L6.910706,43.7941856 C6.910706,42.5106804 7.125226,41.3051134 7.554266,40.1762474 C7.983306,39.0492371 8.584086,38.0570722 9.355986,37.1997526 C9.476886,37.0667629 9.625066,36.9671753 9.752786,36.8428454 L9.781926,36.7748041 L13.289886,28.5504742 C12.248286,28.6884124 11.248846,28.9104742 10.296526,29.2296495 L10.296526,29.2296495 Z M44.510606,28.379134 C44.496346,28.379134 44.482086,28.3803711 44.467826,28.3803711 C44.191306,28.3809897 43.917886,28.3865567 43.646946,28.3989278 L43.646326,28.3989278 L39.073206,17.676866 L32.405106,17.676866 L24.421986,17.676866 L22.062886,23.4999588 L34.766066,23.4999588 L37.386806,29.9125361 L37.513906,30.222433 L39.758306,35.7133608 L39.770706,35.7436701 C40.091246,35.5500619 40.400626,35.3434639 40.754026,35.1882062 C41.855146,34.7026392 43.079026,34.4601649 44.424426,34.4601649 C45.740066,34.4601649 46.955886,34.7100619 48.072506,35.2092371 C49.188506,35.7096495 50.153846,36.3863505 50.969766,37.2436701 C51.785066,38.0997526 52.413746,39.0987216 52.857666,40.2411959 C53.301586,41.3830515 53.524166,42.5948041 53.524166,43.8807835 L53.524166,43.9661443 C53.524166,45.250268 53.301586,46.4576907 52.857666,47.584701 C52.413746,48.7117113 51.798706,49.7032577 51.011926,50.5611959 C50.224526,51.4172784 49.274686,52.0877938 48.158686,52.5727423 C47.934246,52.6704742 47.704226,52.7539794 47.470486,52.8288247 C47.259686,52.896866 47.045166,52.9574845 46.828786,53.0119175 L46.828166,53.0119175 L49.167426,58.7360412 C49.737826,58.5727423 50.298306,58.3859381 50.841426,58.1607835 C52.800006,57.3473814 54.488886,56.2352165 55.905586,54.8211959 C57.321046,53.4077938 58.430226,51.7667629 59.231886,49.896866 C60.032926,48.0275876 60.432826,46.0216082 60.432826,43.8807835 L60.432826,43.7941856 C60.432826,41.6527423 60.040366,39.6486186 59.252966,37.7787216 C58.466186,35.9082062 57.365066,34.2820206 55.948366,32.8976907 C54.575066,31.5548041 52.947566,30.4871753 51.077646,29.6811959 C51.018126,29.6558351 50.964186,29.6249072 50.904666,29.6001649 C48.959106,28.7861443 46.827546,28.379134 44.510606,28.379134 L44.510606,28.379134 Z M63.095106,19.5164536 C65.012146,18.8038763 66.563386,17.6830515 67.751926,16.1558351 C68.939226,14.6292371 69.533186,12.6523299 69.533186,10.2244948 L69.533186,10.1403711 C69.533186,8.73006186 69.321766,7.46078351 68.902646,6.32882474 C68.473606,5.16964948 67.826946,4.15459794 66.957706,3.288 C64.948286,1.28263918 62.067766,0.270061856 58.321726,0.247793814 L58.201446,0.247793814 L51.077646,0.247793814 L51.077646,6.19954639 L57.644066,6.19954639 C59.275286,6.19954639 60.548766,6.55830928 61.463886,7.2708866 C62.379006,7.98531959 62.837186,9.05480412 62.837186,10.482433 L62.837186,10.5684124 C62.837186,11.8519175 62.400706,12.8799588 61.528986,13.651299 C60.656026,14.4214021 59.403626,14.8073814 57.772406,14.8073814 L51.077646,14.8073814 L51.077646,20.6304742 L56.184586,20.6304742 L56.270766,20.6304742 L62.351726,29.7554227 L68.875986,39.5440825 L77.245986,52.1026392 L77.374326,41.5686186 L63.095106,19.5164536 Z M85.277466,6.32882474 L85.277466,28.8931546 L85.271266,28.8931546 L78.667026,28.8931546 L78.667026,6.32882474 L78.667026,0.281814433 L92.396306,0.247793814 L92.396306,6.32882474 L85.277466,6.32882474 Z" id="Fill-4" fill="#E8E9ED" mask="url(#mask-4)"></path>
                    </g>
                </g>
            </g>
        </g>
    </g>
</svg>