<?xml version="1.0" encoding="utf-8"?>
<!-- Generator: Adobe Illustrator 17.1.0, SVG Export Plug-In . SVG Version: 6.00 Build 0)  -->
<!DOCTYPE svg PUBLIC "-//W3C//DTD SVG 1.1//EN" "http://www.w3.org/Graphics/SVG/1.1/DTD/svg11.dtd">
<svg version="1.1" id="Capa_1" xmlns="http://www.w3.org/2000/svg" xmlns:xlink="http://www.w3.org/1999/xlink" x="0px" y="0px"
	 width="80px" height="80px" viewBox="-5.5 -12.5 80 80" enable-background="new -5.5 -12.5 80 80" xml:space="preserve">
<title>Certificaciones</title>
<desc>Created with Sketch.</desc>
<g id="Arquitectura">
	<g id="Mobile-Portrait" transform="translate(-124.000000, -819.000000)">
		<g id="Group-2" transform="translate(43.000000, 505.000000)">
			<g id="Group-Copy" transform="translate(6.000000, 277.000000)">
				<g id="Group-4" transform="translate(46.000000, 0.000000)">
					<g id="Certificaciones" transform="translate(29.000000, 36.896604)">
						<g id="Group-18">
							<path id="Fill-4" fill="#FFFFFF" d="M65.7,9.5C62.6,8.9,60.8,7,60,4.1H8.7C8,6.9,6.3,8.8,3.3,9.4v27.9
								c2.9,0.6,4.6,2.4,5.4,5.4h0.9c10.4,0,20.9,0,31.3,0c0.3,0,0.7,0,1,0.1c0.6,0.2,0.9,0.6,0.8,1.2c-0.1,0.6-0.4,0.9-1,1
								c-0.2,0-0.4,0-0.5,0c-11,0-21.9,0-32.9,0c-1.3,0-1.7-0.3-1.8-1.6c-0.2-1.9-1.7-3.4-3.6-3.7C1.3,39.3,1,39.1,1,37.4V9.1
								c0-1.3,0.3-1.6,1.6-1.9C5,6.8,6.2,5.4,6.5,3C6.6,2.3,7,1.9,7.7,1.8c0.2,0,0.5,0,0.8,0c17.2,0,34.5,0,51.7,0
								c1.5,0,1.8,0.2,2.1,1.8C62.6,5.5,64,6.8,66,7.2c0.4,0.1,0.7,0,1,0.2c0.7,0.3,1,0.8,1,1.5c0,5.7,0,11.4,0,17.2
								c0,0.8,0,1.7,0,2.5c0,0.9-0.4,1.4-1.1,1.4c-0.7,0-1.1-0.5-1.1-1.4c0-6.1,0-12.1,0-18.2V9.5z"/>
							<path id="Fill-1" fill="#FFFFFF" d="M49.9,49.2c-0.7,1.5-1.4,2.9-2.1,4.4c0.7-0.1,1.3-0.2,1.8-0.3c0.8-0.1,1.3,0.2,1.7,0.8
								c0.3,0.5,0.7,1.1,1,1.7c0.8-1.7,1.6-3.3,2.4-5.1c-0.6-0.2-1.1-0.4-1.5-0.4C52,50.4,50.9,50.1,49.9,49.2 M63.7,49.2
								c-1.7,1-1.2,0.9-3.5,1.1c-0.4,0-0.9,0.3-1.4,0.5c0.8,1.7,1.6,3.3,2.4,5c0.4-0.7,0.8-1.2,1.1-1.8c0.3-0.6,0.8-0.9,1.5-0.8
								c0.6,0.1,1.2,0.2,2,0.3C65,52.1,64.3,50.7,63.7,49.2 M65.3,36.4c0.2-1.4-0.3-2.1-1.2-2.6c-0.7-0.4-1.3-1.1-1.7-1.8
								c-0.5-0.7-1.1-1.1-1.9-1.1c-1,0-1.9-0.2-2.7-0.7c-0.6-0.4-1.3-0.4-1.9,0c-0.9,0.6-1.8,0.8-2.9,0.8c-0.7,0-1.4,0.3-1.7,1
								c-0.5,0.9-1.1,1.6-2.1,2.1c-0.7,0.3-1,0.9-1,1.7c0.1,1-0.2,1.9-0.7,2.7c-0.5,0.8-0.4,1.5,0,2.3c0.4,0.7,0.6,1.6,0.7,2.4
								c0,0.9,0.4,1.5,1.2,2c0.7,0.5,1.3,1.1,1.8,1.8c0.5,0.7,1,1.1,1.9,1.1c1,0,1.9,0.2,2.7,0.7c0.7,0.4,1.4,0.4,2.1,0
								c0.8-0.5,1.7-0.7,2.7-0.7c0.8,0,1.4-0.2,1.8-0.9c0.5-1,1.2-1.7,2.1-2.2c0.7-0.4,1-1,1-1.7c-0.1-1,0.2-1.9,0.7-2.7
								c0.5-0.8,0.4-1.5,0-2.3C65.7,37.6,65.5,36.8,65.3,36.4 M65.2,47.1c0.5,1.2,0.5,1.2,1.7,1.2c0.9,0,1.7,0,2.6,0
								c1.4,0,1.6-0.2,1.6-1.6v-47c0-1.3-0.2-1.5-1.5-1.5c-23.4,0-46.8,0-70.3,0c-1.3,0-1.5,0.2-1.5,1.6v47v0.5c0,0.6,0.3,0.9,0.9,1
								c0.3,0,0.6,0,0.9,0c15.7,0,31.3,0,47,0c1.3,0,1.3,0,1.7-1.3c-1.7-0.9-2.5-2.3-2.4-4.3c0-0.4-0.2-0.8-0.4-1.1
								c-0.9-1.5-0.9-3,0-4.5c0.2-0.4,0.4-1,0.4-1.5c0-1.7,0.7-2.9,2.2-3.8c0.4-0.3,0.8-0.7,1.1-1.1c0.7-1.1,1.7-2,3.1-2.1
								c1-0.1,1.9-0.3,2.9-0.8c1.2-0.6,2.5-0.4,3.8,0.2c0.5,0.2,1,0.4,1.6,0.4c1.7,0.1,2.9,0.7,3.8,2.2c0.3,0.4,0.7,0.9,1.1,1.2
								c1.5,0.9,2.2,2.2,2.2,3.9c0,0.5,0.1,1,0.4,1.4c0.9,1.5,0.9,3,0,4.5c-0.2,0.3-0.4,0.8-0.4,1.1C67.8,44.8,67,46.2,65.2,47.1
								 M66.8,50.6c0.6,1.3,1.1,2.3,1.6,3.4c0.3,0.6,0.4,1.1,0,1.6c-0.4,0.5-0.9,0.6-1.6,0.5c-0.8-0.2-1.6-0.3-2.4-0.3
								c-0.2,0-0.6,0.2-0.8,0.4c-0.5,0.7-0.9,1.5-1.4,2.3c-0.3,0.5-0.8,0.9-1.4,0.7c-0.5-0.1-1-0.5-1.2-0.9c-1-2-2-4-3-6.2
								c-0.2,0.3-0.3,0.5-0.4,0.7c-0.9,1.8-1.7,3.6-2.6,5.4c-0.3,0.5-0.6,0.9-1.2,1c-0.7,0.1-1.1-0.3-1.4-0.8
								c-0.4-0.7-0.8-1.3-1.2-2c-0.3-0.6-0.7-0.7-1.3-0.6c-0.7,0.2-1.4,0.3-2.2,0.3c-0.5,0-1.1-0.2-1.4-0.5c-0.3-0.3-0.3-1-0.1-1.5
								c0.4-1.1,1-2.2,1.6-3.4h-1.1c-15.4,0-30.8,0-46.2,0c-1.3,0-2.6-0.2-3.3-1.5c-0.3-0.5-0.5-1.2-0.5-1.8c0-16.1,0-32.1,0-48.2
								c0-1.7,1.1-3,2.8-3.2c0.4,0,0.7-0.1,1.1-0.1c23.4,0,46.8,0,70.2,0c1.4,0,2.7,0.3,3.4,1.6c0.2,0.5,0.4,1,0.4,1.5
								c0,16.1,0,32.2,0,48.3c0,1.6-1.1,2.9-2.7,3C69.5,50.7,68.3,50.6,66.8,50.6"/>
							<path id="Fill-6" fill="#FFFFFF" d="M34.4,11.8H13c-0.3,0-0.5,0-0.8,0c-0.6-0.1-1-0.4-1-1c-0.1-0.6,0.3-1,0.8-1.2
								c0.2-0.1,0.5-0.1,0.8-0.1c14.4,0,28.9,0,43.3,0c0.3,0,0.6,0,0.9,0.1c0.6,0.2,0.8,0.6,0.7,1.2c-0.1,0.6-0.4,0.9-1,1
								c-0.2,0-0.5,0-0.8,0H34.4z"/>
							<path id="Fill-8" fill="#FFFFFF" d="M34.5,22c7.2,0,14.4,0,21.6,0c0.3,0,0.6-0.1,0.7,0c0.4,0.3,0.8,0.6,0.9,1
								c0.2,0.5-0.1,1-0.7,1.2c-0.3,0.1-0.7,0.1-1,0.1c-14.3,0-28.7,0-43,0c-0.3,0-0.7,0-1-0.1c-0.6-0.2-0.9-0.6-0.8-1.2
								c0.1-0.6,0.4-0.9,1-1c0.2,0,0.5,0,0.8,0C20.2,22,27.3,22,34.5,22"/>
							<path id="Fill-10" fill="#FFFFFF" d="M40.1,15.8c5.4,0,10.8,0,16.2,0c0.4,0,0.8,0.1,1,0.3c0.2,0.2,0.4,0.7,0.4,1
								c-0.1,0.3-0.4,0.6-0.7,0.8c-0.2,0.1-0.6,0.1-0.9,0.1c-10.6,0-21.3,0-31.9,0c-0.3,0-0.6,0-0.9-0.1c-0.6-0.2-0.9-0.6-0.8-1.2
								c0.1-0.6,0.4-0.9,1-1c0.2,0,0.5,0,0.8,0C29.5,15.8,34.8,15.8,40.1,15.8"/>
							<path id="Fill-12" fill="#FFFFFF" d="M34.5,30c2.5,0,5,0,7.4,0c0.8,0,1.3,0.5,1.4,1.1c0,0.7-0.5,1.1-1.3,1.2
								c-0.2,0-0.4,0-0.5,0h-13c-0.4,0-0.9,0-1.3,0c-0.9,0-1.4-0.5-1.4-1.1c0-0.7,0.5-1.1,1.4-1.1C29.6,30,32,30,34.5,30"/>
							<path id="Fill-14" fill="#FFFFFF" d="M15.3,15.8c0.9,0,1.9,0,2.8,0c0.8,0,1.3,0.4,1.3,1.1c0,0.6-0.5,1.2-1.2,1.2
								c-1.9,0-3.9,0-5.8,0c-0.8,0-1.2-0.5-1.2-1.2c0-0.6,0.5-1,1.2-1.1C13.4,15.7,14.4,15.8,15.3,15.8"/>
							<path id="Fill-16" fill="#FFFFFF" d="M61.5,39.5c0-2.7-2.2-4.9-4.8-4.8c-2.6,0-4.8,2.2-4.8,4.8c0,2.6,2.2,4.8,4.8,4.8
								C59.3,44.3,61.5,42.1,61.5,39.5 M63.8,39.5c0,3.9-3.1,7-7,7.1c-3.9,0-7.2-3.2-7.1-7.2c0-3.8,3.3-7,7.1-7
								C60.6,32.4,63.8,35.6,63.8,39.5"/>
						</g>
					</g>
				</g>
			</g>
		</g>
	</g>
</g>
</svg>
