<?xml version="1.0" encoding="utf-8"?>
<!-- Generator: Adobe Illustrator 17.1.0, SVG Export Plug-In . SVG Version: 6.00 Build 0)  -->
<!DOCTYPE svg PUBLIC "-//W3C//DTD SVG 1.1//EN" "http://www.w3.org/Graphics/SVG/1.1/DTD/svg11.dtd">
<svg version="1.1" id="Capa_1" xmlns="http://www.w3.org/2000/svg" xmlns:xlink="http://www.w3.org/1999/xlink" x="0px" y="0px"
	 width="80px" height="80px" viewBox="0 0 80 80" enable-background="new 0 0 80 80" xml:space="preserve">
<title>Inspiracion</title>
<desc>Created with Sketch.</desc>
<g id="Arquitectura">
	<g id="Desktop-2" transform="translate(-277.000000, -951.000000)">
		<g id="Group-2" transform="translate(175.000000, 919.000000)">
			<g id="Group-Copy-2" transform="translate(101.000000, 0.000000)">
				<g id="Inspiracion" transform="translate(0.000000, 31.000000)">
					<g id="Group-25" transform="translate(0.000000, 0.593014)">
						<path id="Fill-1" fill="#FFFFFF" d="M38.9,73.2c0,0.8,0,1.6,0,2.4c0,0.2,0.4,0.5,0.6,0.5c1.4,0,2.8,0,4.2,0
							c0.2,0,0.6-0.3,0.6-0.5c0.1-0.8,0-1.6,0-2.5L38.9,73.2L38.9,73.2z M41.6,70.9h7.6c1.5,0,1.5,0,1.5-1.5c0-1.4,0-1.4-1.4-1.4
							H34.1c-1.7,0-1.7,0-1.7,1.7c0,1.1,0.1,1.2,1.1,1.2C36.2,70.9,38.9,70.9,41.6,70.9L41.6,70.9z M41.6,62.8H34
							c-1.6,0-1.6,0-1.6,1.6c0,1.2,0.1,1.3,1.4,1.3c5,0,10,0,15.1,0c1.9,0,1.9,0,1.9-1.9c0-0.9-0.2-1.1-1.1-1.1
							C46.9,62.8,44.3,62.8,41.6,62.8L41.6,62.8z M46.5,73.1c0,0.9,0,1.6,0,2.4c0,1.6-1,2.8-2.6,2.8c-1.5,0-3.1,0-4.6,0
							c-1.6,0-2.6-1.2-2.6-2.7c0-0.8,0-1.5,0-2.4c-0.9,0-1.7-0.1-2.5,0c-2.5,0.2-4.2-1-3.9-3.9c0.1-0.7,0.3-1.4,0.4-2.1
							c0-0.2,0-0.4-0.1-0.6c-0.6-1.3-0.4-2.6-0.2-3.9c0.1-0.7,0.6-1.3,1.3-1.6c0.2-0.1,0.4-0.3,0.4-0.5c0-1.8,0.1-3.5-0.1-5.3
							c-0.1-1.6-1-2.8-2.3-3.6c-2.6-1.6-4.8-3.7-6.6-6.2C17.3,37,17.8,25.8,24.3,18c3.7-4.4,8.3-7,13.9-7.9c0.1,0,0.2,0,0.4,0
							c0.8-0.1,1.4,0.3,1.5,0.9c0.1,0.7-0.4,1.2-1.2,1.3c-1.3,0.3-2.7,0.5-4,1c-7.7,3-12.4,8.6-13.4,16.8c-1,8.1,2.2,14.6,8.9,19.2
							c2.7,1.9,4.1,4.2,4,7.5c-0.1,1.2,0,2.5,0,3.8h14.4c0-1.4,0-2.9,0-4.3c0-0.9,0.2-1.7,0.4-2.6c0.5-1.9,1.8-3.2,3.5-4.3
							c4.4-2.9,7.2-6.9,8.6-11.9c0.2-0.7,0.3-1.5,0.4-2.3c0.2-0.9,0.6-1.3,1.3-1.2s1,0.6,0.9,1.5c-0.6,4.3-2.3,8.1-5.1,11.5
							c-1.4,1.7-3.1,3.2-5,4.3c-1.9,1.2-2.8,2.9-2.7,5.1c0,1.2,0,2.5,0,3.7c0,0.3,0.2,0.6,0.5,0.8c1,0.6,1.5,1.4,1.5,2.5
							s0.2,2.2-0.5,3.3c-0.1,0.1,0.1,0.4,0.1,0.6c0.5,1.3,0.5,2.7,0.1,3.9c-0.4,1.2-1.3,1.9-2.7,1.9C48.9,73.1,47.8,73.1,46.5,73.1
							L46.5,73.1z"/>
						<path id="Fill-3" fill="#FFFFFF" d="M32.7,21.6c-0.7,0.7-1.3,1.3-2,1.9c0.8,0.8,1.6,1.5,2.4,2.3c0.5,0.5,0.5,1,0.2,1.6
							c-0.4,0.7-0.7,1.5-1,2.3c-0.4,1.1-0.6,1.3-1.8,1.3c-1,0-2,0-2.9,0v2.7c1.2,0,2.3,0,3.4,0c0.7,0,1,0.3,1.2,0.9
							c0.3,0.8,0.6,1.6,1,2.4c0.5,1,0.5,1.3-0.3,2.1c-0.7,0.7-1.5,1.5-2.1,2.1c0.6,0.7,1.2,1.3,1.9,2c0.8-0.8,1.6-1.6,2.4-2.4
							c0.4-0.4,0.9-0.5,1.5-0.3c0.9,0.4,1.9,0.8,2.8,1.2c0.7,0.2,1,0.7,1,1.4c0,1.1,0,2.2,0,3.3h2.7c0-1.1,0-2.1,0-3.2
							c0-1,0.2-1.2,1.1-1.5c0.8-0.3,1.6-0.6,2.3-0.9c0.9-0.5,1.2-0.5,2,0.3c0.7,0.8,1.5,1.5,2.2,2.2c0.7-0.7,1.3-1.3,2-1.9
							c-0.7-0.7-1.5-1.4-2.2-2.2c-0.7-0.7-0.8-1-0.3-2c0.4-0.7,0.7-1.5,0.9-2.3c0.3-1,0.5-1.2,1.6-1.2c1,0,2.1,0,3.1,0V31
							c-1.1,0-2.2,0-3.2,0c-0.8,0-1.2-0.3-1.5-1.1s-0.6-1.7-1-2.5c-0.4-0.7-0.3-1.3,0.3-1.8c0.8-0.8,1.6-1.5,2.3-2.2
							c-0.7-0.7-1.3-1.3-1.9-1.9c-0.7,0.7-1.5,1.5-2.3,2.3c-0.5,0.5-1,0.6-1.6,0.3c-0.8-0.4-1.7-0.7-2.5-1.1c-1-0.4-1.1-0.5-1.1-1.6
							c0-1.1,0-2.1,0-3.2h-2.7c0,1.1,0,2.2,0,3.3c0,0.7-0.3,1.1-1,1.4c-0.9,0.3-1.7,0.6-2.5,1c-0.7,0.4-1.3,0.3-1.8-0.3
							C34.2,23.1,33.4,22.4,32.7,21.6 M36.1,21.9c0.7-0.3,1.5-0.4,1.8-0.9s0.1-1.3,0.1-2c-0.2-2.9,0.8-3,2.9-2.9c0.9,0,1.7,0,2.6,0
							c1.1,0.1,1.6,0.7,1.6,1.7c0,1.1,0,2.1,0,3.2c0.7,0.3,1.3,0.5,2,0.8c0.7-0.7,1.4-1.5,2.1-2.2c0.9-0.9,1.8-0.9,2.7,0
							c0.8,0.8,1.7,1.7,2.5,2.5s0.8,1.6,0,2.4c-0.6,0.6-1.2,1.3-1.9,1.9c-0.3,0.3-0.3,0.5-0.2,0.9c0.3,1.2,1,1.7,2.2,1.4
							c0.6-0.1,1.1,0,1.7,0c1,0,1.6,0.6,1.6,1.6c0,1.2,0,2.5,0,3.7s-0.6,1.8-1.8,1.8c-0.9,0-1.7,0-2.6,0c-0.4,0-0.6,0.1-0.8,0.5
							c-0.6,1.1-0.5,1.8,0.5,2.5c0.5,0.3,0.9,0.8,1.3,1.3c0.7,0.8,0.7,1.5,0,2.3c-0.9,1-1.8,1.9-2.8,2.8c-0.7,0.6-1.6,0.6-2.3,0
							s-1.3-1.3-1.9-2c-0.3-0.3-0.5-0.4-0.9-0.2c-1.4,0.6-1.4,0.6-1.4,2.2c0,0.5,0,1.1,0,1.6c0,1-0.6,1.6-1.5,1.7
							c-1.4,0-2.7,0-4.1,0c-0.9,0-1.5-0.7-1.5-1.6c0-0.9,0-1.8,0-2.8c0-0.4-0.1-0.6-0.5-0.8c-1.1-0.7-1.9-0.4-2.6,0.6
							c-0.3,0.4-0.8,0.8-1.2,1.2c-0.7,0.7-1.6,0.7-2.3,0c-0.9-0.9-1.9-1.8-2.7-2.7c-0.7-0.8-0.7-1.6,0-2.4c0.6-0.7,1.3-1.3,2-2
							c0.3-0.3,0.2-0.5,0.2-0.8c-0.3-1.2-1-1.6-2.2-1.4c-0.7,0.1-1.4,0-2.1-0.1c-0.8-0.1-1.2-0.7-1.2-1.5c0-1.3,0-2.7,0-4
							c0-0.9,0.6-1.5,1.5-1.6c0.9,0,1.9,0,2.8,0c0.4,0,0.5-0.2,0.8-0.5c0.7-1.1,0.4-1.9-0.5-2.6c-0.4-0.3-0.8-0.8-1.2-1.2
							c-0.8-0.8-0.8-1.6,0-2.4c0.9-0.9,1.8-1.8,2.7-2.7c0.7-0.7,1.6-0.7,2.4,0c0.4,0.4,0.8,0.8,1.2,1.2
							C35.3,21.1,35.7,21.5,36.1,21.9"/>
						<path id="Fill-5" fill="#FFFFFF" d="M44.4,10.1c3,0.3,6,1.3,8.7,3c6.2,3.8,9.8,9.3,10.8,16.5c0.1,0.7-0.3,1.3-0.9,1.4
							c-0.6,0.1-1.2-0.3-1.3-1.1c-0.4-3.1-1.4-5.9-3.1-8.5c-3.4-5.1-8.1-8.1-14.2-9c-0.1,0-0.3-0.1-0.4-0.1c-0.6-0.2-1-0.7-0.9-1.3
							C43.2,10.4,43.7,10,44.4,10.1"/>
						<path id="Fill-7" fill="#FFFFFF" d="M69.2,33.6c-0.6,0-1.2,0-1.9,0c-0.6,0-1-0.4-1.1-1s0.3-1.1,0.9-1.2c1.4-0.1,2.8-0.1,4.1,0
							c0.6,0,1,0.5,0.9,1.2c-0.1,0.6-0.5,1-1.1,1S69.8,33.6,69.2,33.6"/>
						<path id="Fill-9" fill="#FFFFFF" d="M13.9,33.6c-0.6,0-1.2,0-1.8,0c-0.7,0-1-0.4-1.1-1s0.3-1.1,0.9-1.1c1.4-0.1,2.7-0.1,4.1,0
							c0.7,0,1,0.6,0.9,1.2c-0.1,0.6-0.5,1-1.1,1C15.2,33.6,14.5,33.6,13.9,33.6L13.9,33.6z"/>
						<path id="Fill-12" fill="#FFFFFF" d="M59.7,15.4c-0.3-0.2-0.7-0.3-0.8-0.6c-0.1-0.3-0.2-0.9,0-1.1c0.9-1,1.9-2,2.9-2.9
							c0.4-0.4,0.9-0.3,1.4,0c0.4,0.4,0.6,0.9,0.2,1.4c-0.9,1-2,2-3,3C60.3,15.3,60,15.3,59.7,15.4"/>
						<path id="Fill-14" fill="#FFFFFF" d="M20.7,10.4c0.4,0.2,0.7,0.3,0.9,0.5c0.8,0.8,1.7,1.6,2.5,2.5c0.5,0.6,0.6,1.2,0.1,1.6
							c-0.4,0.4-1.1,0.4-1.7,0c-0.9-0.8-1.7-1.6-2.5-2.5c-0.2-0.3-0.3-0.9-0.2-1.3C19.9,10.9,20.3,10.7,20.7,10.4"/>
						<path id="Fill-16" fill="#FFFFFF" d="M20.6,54.5c-0.3-0.2-0.7-0.4-0.8-0.7c-0.1-0.3-0.1-0.9,0.1-1.1c0.9-1,1.8-1.9,2.8-2.9
							c0.4-0.4,1-0.3,1.4,0.1c0.4,0.4,0.6,0.9,0.2,1.3c-1,1.1-2,2.1-3,3.1C21.2,54.4,20.9,54.4,20.6,54.5"/>
						<path id="Fill-18" fill="#FFFFFF" d="M63.7,53.4c-0.2,0.3-0.4,0.7-0.7,0.8c-0.4,0.1-1,0.1-1.2-0.1c-1-0.8-1.9-1.8-2.7-2.7
							c-0.4-0.5-0.4-1.1,0.1-1.5s1-0.4,1.5,0c0.9,0.9,1.8,1.8,2.7,2.7C63.4,52.8,63.5,53.1,63.7,53.4"/>
						<path id="Fill-20" fill="#FFFFFF" d="M42.7,4.9c0,0.6,0,1.2,0,1.8c0,0.7-0.5,1.2-1.1,1.2s-1.1-0.5-1.1-1.2c0-1.2,0-2.4,0-3.7
							c0-0.7,0.5-1.2,1.1-1.1c0.6,0,1,0.5,1.1,1.1C42.7,3.6,42.7,4.2,42.7,4.9L42.7,4.9z"/>
						<path id="Fill-23" fill="#FFFFFF" d="M41.6,28.7c-2.1,0-3.8,1.6-3.8,3.7c0,2.1,1.7,3.8,3.8,3.8c2,0,3.7-1.7,3.7-3.7
							C45.3,30.4,43.7,28.7,41.6,28.7 M41.6,26.5c3.4,0,6,2.7,6,6s-2.7,6-6,5.9c-3.3,0-6-2.7-6-6.1C35.6,29.1,38.3,26.5,41.6,26.5"
							/>
					</g>
				</g>
			</g>
		</g>
	</g>
</g>
</svg>
