<?xml version="1.0" encoding="utf-8"?>
<!-- Generator: Adobe Illustrator 17.1.0, SVG Export Plug-In . SVG Version: 6.00 Build 0)  -->
<!DOCTYPE svg PUBLIC "-//W3C//DTD SVG 1.1//EN" "http://www.w3.org/Graphics/SVG/1.1/DTD/svg11.dtd">
<svg version="1.1" id="Capa_1" xmlns="http://www.w3.org/2000/svg" xmlns:xlink="http://www.w3.org/1999/xlink" x="0px" y="0px"
	 width="80px" height="80px" viewBox="-8 0 80 80" enable-background="new -8 0 80 80" xml:space="preserve">
<title>Inspiracion</title>
<desc>Created with Sketch.</desc>
<g id="Arquitectura">
	<g id="Mobile-Portrait" transform="translate(-126.000000, -1102.000000)">
		<g id="Group-2" transform="translate(43.000000, 505.000000)">
			<g id="Group-Copy-2" transform="translate(0.000000, 572.000000)">
				<g id="Inspiracion" transform="translate(82.405316, 24.808081)">
					<g id="Group-25" transform="translate(0.000000, 0.460593)">
						<path id="Fill-1" fill="#FFFFFF" d="M29.8,73.8c0,0.9,0,1.7,0,2.4c0,0.2,0.4,0.6,0.6,0.6c1.4,0.1,2.9,0,4.3,0
							c0.2,0,0.6-0.3,0.6-0.5c0.1-0.8,0-1.7,0-2.5H29.8z M32.5,71.4h7.9c1.6,0,1.6,0,1.6-1.6c0-1.4,0-1.4-1.4-1.4H24.8
							c-1.8,0-1.8,0-1.8,1.8c0,1.1,0.1,1.2,1.2,1.2C27,71.4,29.8,71.4,32.5,71.4L32.5,71.4z M32.6,63.1h-7.8c-1.7,0-1.7,0-1.7,1.7
							c0,1.3,0.1,1.4,1.4,1.4c5.2,0,10.4,0,15.6,0c1.9,0,1.9,0,1.9-1.9c0-0.9-0.2-1.1-1.1-1.1C38.1,63.1,35.3,63.1,32.6,63.1
							L32.6,63.1z M37.7,73.7c0,0.9,0,1.7,0,2.5c0,1.7-1.1,2.8-2.7,2.9c-1.6,0-3.2,0-4.8,0c-1.7,0-2.7-1.2-2.7-2.8
							c0-0.8,0-1.6,0-2.5c-0.9,0-1.8-0.1-2.6,0c-2.6,0.2-4.3-1-4-4c0.1-0.7,0.3-1.5,0.4-2.2c0-0.2,0-0.4-0.1-0.6
							c-0.6-1.3-0.5-2.7-0.2-4.1c0.1-0.8,0.7-1.3,1.4-1.7c0.2-0.1,0.5-0.3,0.5-0.5c0-1.8,0.1-3.6-0.1-5.5c-0.1-1.6-1-2.9-2.4-3.7
							c-2.7-1.7-5-3.8-6.8-6.4c-6.1-8.5-5.6-20.1,1.2-28.1c3.8-4.5,8.6-7.2,14.5-8.2c0.1,0,0.3,0,0.4,0C30.4,8.7,30.9,9,31,9.7
							c0.1,0.7-0.4,1.2-1.3,1.4c-1.4,0.3-2.8,0.5-4.1,1c-8,3-12.9,8.8-13.9,17.3c-1,8.3,2.3,15.1,9.3,19.8c2.8,1.9,4.3,4.3,4.1,7.7
							c-0.1,1.3,0,2.6,0,3.9H40c0-1.5,0-3,0-4.4c0-0.9,0.2-1.8,0.4-2.6c0.5-2,1.9-3.3,3.6-4.4c4.5-2.9,7.5-7.1,8.9-12.2
							c0.2-0.8,0.3-1.6,0.5-2.3c0.2-0.9,0.6-1.3,1.3-1.3c0.7,0.1,1.1,0.6,1,1.5c-0.6,4.5-2.4,8.4-5.3,11.8c-1.5,1.8-3.2,3.3-5.2,4.5
							c-2,1.2-2.9,3-2.8,5.3c0,1.3,0,2.6,0,3.8c0,0.3,0.2,0.7,0.5,0.8c1,0.6,1.5,1.5,1.5,2.6c0,1.1,0.2,2.3-0.5,3.4
							c-0.1,0.1,0.1,0.4,0.2,0.6c0.5,1.3,0.5,2.7,0.1,4.1c-0.4,1.3-1.4,1.9-2.8,1.9C40.2,73.7,39,73.7,37.7,73.7L37.7,73.7z"/>
						<path id="Fill-3" fill="#FFFFFF" d="M23.3,20.7c-0.7,0.7-1.4,1.3-2.1,2c0.8,0.8,1.6,1.6,2.5,2.4c0.5,0.5,0.6,1,0.2,1.7
							c-0.4,0.8-0.8,1.6-1,2.4c-0.4,1.2-0.6,1.4-1.9,1.4c-1,0-2,0-3,0v2.8c1.2,0,2.4,0,3.5,0c0.7,0,1.1,0.3,1.3,1
							c0.3,0.8,0.6,1.7,1,2.5c0.5,1.1,0.5,1.3-0.3,2.2c-0.8,0.8-1.5,1.5-2.2,2.2c0.7,0.7,1.3,1.4,1.9,2.1c0.8-0.9,1.7-1.7,2.5-2.5
							c0.4-0.5,1-0.6,1.5-0.3c1,0.4,1.9,0.8,2.9,1.2c0.7,0.3,1,0.7,1,1.4c0,1.1,0,2.2,0,3.4H34c0-1.1,0-2.2,0-3.3
							c0-1,0.2-1.2,1.1-1.6c0.8-0.3,1.7-0.6,2.4-1c1-0.5,1.3-0.5,2,0.3c0.8,0.8,1.5,1.6,2.2,2.3c0.7-0.7,1.4-1.3,2.1-2
							c-0.8-0.7-1.6-1.5-2.3-2.2c-0.8-0.8-0.8-1.1-0.3-2c0.4-0.8,0.7-1.5,1-2.3c0.3-1,0.6-1.2,1.7-1.2c1.1,0,2.2,0,3.2,0v-2.8
							c-1.1,0-2.3,0-3.4,0c-0.8,0-1.3-0.3-1.5-1.1c-0.3-0.9-0.6-1.7-1.1-2.5c-0.4-0.7-0.3-1.3,0.3-1.9c0.8-0.8,1.6-1.6,2.4-2.3
							c-0.7-0.7-1.3-1.3-2-2c-0.8,0.8-1.6,1.6-2.4,2.4c-0.5,0.5-1,0.6-1.7,0.3c-0.9-0.4-1.7-0.8-2.6-1.1c-1-0.4-1.2-0.6-1.2-1.6
							c0-1.1,0-2.2,0-3.3h-2.8c0,1.2,0,2.3,0,3.4c0,0.8-0.3,1.2-1,1.4c-0.9,0.3-1.8,0.6-2.6,1.1c-0.7,0.4-1.3,0.3-1.9-0.3
							C24.9,22.2,24.1,21.4,23.3,20.7 M26.8,20.9c0.7-0.3,1.6-0.4,1.9-0.9c0.3-0.5,0.1-1.3,0.1-2c-0.2-3,0.8-3.1,3-3
							c0.9,0,1.8,0,2.7,0c1.1,0.1,1.7,0.7,1.7,1.8c0,1.1,0,2.2,0,3.3c0.7,0.3,1.3,0.5,2.1,0.8c0.7-0.7,1.4-1.5,2.2-2.2
							c0.9-0.9,1.8-0.9,2.8,0c0.9,0.9,1.8,1.7,2.6,2.6c0.8,0.8,0.8,1.6,0,2.5c-0.6,0.7-1.3,1.3-2,2c-0.3,0.3-0.3,0.5-0.2,0.9
							c0.3,1.2,1,1.7,2.3,1.5c0.6-0.1,1.2,0,1.8,0c1,0,1.6,0.6,1.7,1.6c0,1.3,0,2.6,0,3.8c0,1.2-0.6,1.8-1.8,1.9c-0.9,0-1.8,0-2.7,0
							c-0.4,0-0.6,0.1-0.8,0.5c-0.7,1.1-0.5,1.9,0.5,2.6c0.5,0.4,0.9,0.8,1.3,1.3c0.7,0.8,0.7,1.6,0,2.3c-0.9,1-1.9,1.9-2.9,2.9
							c-0.7,0.7-1.7,0.6-2.4,0c-0.7-0.7-1.4-1.3-2-2c-0.3-0.3-0.5-0.4-0.9-0.2c-1.5,0.7-1.5,0.6-1.5,2.3c0,0.6,0,1.1,0,1.7
							c0,1-0.6,1.7-1.6,1.7c-1.4,0-2.8,0-4.3,0c-0.9,0-1.6-0.7-1.6-1.7c0-0.9,0-1.9,0-2.8c0-0.4-0.1-0.6-0.5-0.8
							c-1.1-0.7-2-0.4-2.7,0.6c-0.3,0.4-0.8,0.8-1.2,1.2c-0.7,0.7-1.7,0.7-2.4,0.1c-1-0.9-1.9-1.9-2.8-2.8c-0.8-0.8-0.8-1.6,0-2.5
							c0.7-0.7,1.3-1.4,2-2c0.3-0.3,0.3-0.5,0.2-0.9c-0.3-1.3-1.1-1.7-2.3-1.5c-0.7,0.1-1.4,0-2.2-0.1c-0.8-0.1-1.3-0.7-1.3-1.5
							c0-1.4,0-2.8,0-4.2c0-1,0.6-1.6,1.6-1.6c1,0,2,0,2.9,0c0.4,0,0.6-0.2,0.8-0.5c0.7-1.1,0.5-1.9-0.6-2.7
							c-0.5-0.3-0.8-0.8-1.2-1.2c-0.8-0.8-0.8-1.6,0-2.4c0.9-0.9,1.9-1.9,2.8-2.8c0.8-0.7,1.7-0.7,2.5,0c0.4,0.4,0.8,0.8,1.2,1.2
							C26,20.1,26.4,20.5,26.8,20.9"/>
						<path id="Fill-5" fill="#FFFFFF" d="M35.5,8.7c3.2,0.4,6.2,1.4,9,3.1c6.4,3.9,10.2,9.6,11.3,17.1c0.1,0.7-0.3,1.3-1,1.4
							c-0.6,0.1-1.2-0.3-1.3-1.1C53,26,52,23,50.3,20.4c-3.5-5.2-8.4-8.4-14.7-9.3c-0.2,0-0.3-0.1-0.5-0.1c-0.7-0.2-1-0.7-0.9-1.3
							C34.2,9.1,34.7,8.7,35.5,8.7"/>
						<path id="Fill-7" fill="#FFFFFF" d="M61.2,32.9c-0.6,0-1.3,0-1.9,0c-0.7,0-1.1-0.4-1.1-1c-0.1-0.6,0.3-1.2,0.9-1.2
							c1.4-0.1,2.9-0.1,4.3,0c0.7,0,1,0.6,0.9,1.2c-0.1,0.6-0.5,1-1.2,1C62.5,32.9,61.9,32.9,61.2,32.9"/>
						<path id="Fill-9" fill="#FFFFFF" d="M3.8,32.9c-0.6,0-1.2,0-1.9,0c-0.7,0-1.1-0.4-1.1-1c-0.1-0.6,0.3-1.1,0.9-1.2
							c1.4-0.1,2.8-0.1,4.2,0c0.7,0,1.1,0.6,1,1.2c-0.1,0.6-0.5,1-1.2,1C5.1,32.9,4.4,32.9,3.8,32.9L3.8,32.9z"/>
						<path id="Fill-12" fill="#FFFFFF" d="M51.4,14.3c-0.3-0.2-0.7-0.4-0.8-0.7c-0.1-0.3-0.2-0.9,0-1.2c0.9-1.1,1.9-2,3-3
							C54,9,54.5,9.1,55,9.5c0.5,0.4,0.7,1,0.2,1.4c-1,1.1-2,2.1-3.1,3.1C52,14.1,51.7,14.1,51.4,14.3"/>
						<path id="Fill-14" fill="#FFFFFF" d="M10.8,9c0.4,0.2,0.7,0.3,1,0.6c0.9,0.8,1.7,1.7,2.6,2.5c0.6,0.6,0.6,1.2,0.1,1.7
							c-0.4,0.5-1.2,0.5-1.7,0c-0.9-0.9-1.8-1.7-2.6-2.6c-0.3-0.3-0.3-0.9-0.2-1.3C10,9.6,10.5,9.3,10.8,9"/>
						<path id="Fill-16" fill="#FFFFFF" d="M10.8,54.5c-0.3-0.2-0.7-0.4-0.9-0.8c-0.1-0.3-0.1-0.9,0.1-1.1c0.9-1,1.9-2,2.9-2.9
							c0.4-0.4,1-0.4,1.5,0.1c0.4,0.4,0.6,0.9,0.2,1.4c-1,1.1-2.1,2.1-3.1,3.2C11.4,54.4,11.1,54.4,10.8,54.5"/>
						<path id="Fill-18" fill="#FFFFFF" d="M55.5,53.4c-0.3,0.3-0.5,0.8-0.8,0.8c-0.4,0.1-1,0.1-1.3-0.1c-1-0.9-1.9-1.8-2.8-2.8
							c-0.5-0.5-0.4-1.2,0.1-1.6c0.5-0.4,1.1-0.5,1.5,0c1,0.9,1.9,1.9,2.8,2.8C55.3,52.7,55.3,53,55.5,53.4"/>
						<path id="Fill-20" fill="#FFFFFF" d="M33.7,3.4c0,0.6,0,1.2,0,1.8c0,0.7-0.5,1.2-1.1,1.2c-0.6,0-1.1-0.5-1.2-1.2
							c0-1.3,0-2.5,0-3.8c0-0.7,0.5-1.2,1.2-1.2c0.6,0,1.1,0.5,1.1,1.1C33.7,2.1,33.7,2.7,33.7,3.4L33.7,3.4z"/>
						<path id="Fill-23" fill="#FFFFFF" d="M32.6,28c-2.2,0-3.9,1.7-3.9,3.8c0,2.2,1.7,3.9,3.9,3.9c2.1,0,3.9-1.7,3.9-3.8
							C36.5,29.7,34.8,28,32.6,28 M32.6,25.7c3.5,0,6.2,2.8,6.2,6.2c0,3.4-2.8,6.1-6.3,6.1c-3.5,0-6.2-2.8-6.2-6.3
							C26.4,28.3,29.1,25.6,32.6,25.7"/>
					</g>
				</g>
			</g>
		</g>
	</g>
</g>
</svg>
