<?xml version="1.0" encoding="UTF-8"?>
<svg width="172px" height="72px" viewBox="0 0 172 72" version="1.1" xmlns="http://www.w3.org/2000/svg" xmlns:xlink="http://www.w3.org/1999/xlink">
    <!-- Generator: Sketch 53.2 (72643) - https://sketchapp.com -->
    <title>Group 93</title>
    <desc>Created with Sketch.</desc>
    <defs>
        <polygon id="path-1" points="0 0.0160526316 8.87591613 0.0160526316 8.87591613 9.81763158 0 9.81763158"></polygon>
        <polygon id="path-3" points="0.0527579939 0.0343888889 8.98153628 0.0343888889 8.98153628 9.75188889 0.0527579939 9.75188889"></polygon>
    </defs>
    <g id="Arquitectura" stroke="none" stroke-width="1" fill="none" fill-rule="evenodd">
        <g id="Mobile-Portrait" transform="translate(-126.000000, -118.000000)">
            <g id="Group-93" transform="translate(126.000000, 119.000000)">
                <path d="M64.5380762,34.8142101 C65.1277882,34.8142101 65.6927876,34.2828773 65.6927876,33.6427626 C65.6927876,33.157105 65.3409956,32.7685349 64.8455308,32.7685349 L63.8604161,32.7685349 L63.5466621,34.8142101 L64.5380762,34.8142101 Z M63.5970566,32.5741395 C63.6031136,32.5342012 63.6472088,32.5 63.6847623,32.5 L64.9080393,32.5 C65.5105923,32.5 66,33.0028685 66,33.6142983 C66,34.4143866 65.303442,35.0770079 64.5131212,35.0770079 L63.5030516,35.0770079 L63.295659,36.4256399 C63.2893597,36.4657988 63.2455068,36.5 63.182756,36.5 L63.0696108,36.5 C63.0260002,36.5 62.9945036,36.4657988 63.0008029,36.4256399 L63.5970566,32.5741395 Z" id="Fill-1" fill="#FEFEFE"></path>
                <path d="M72.2606327,35.2020955 L71.6223683,32.9473968 L71.6022237,32.9473968 L70.1738155,35.2020955 L72.2606327,35.2020955 Z M69.0483708,36.5 C69.000395,36.5 68.9863468,36.4665154 69.0141781,36.4217974 L71.5879105,32.5391013 C71.6022237,32.5166343 71.6223683,32.5 71.6772357,32.5 L71.6979104,32.5 C71.7323682,32.5 71.7665609,32.5 71.780344,32.5391013 L72.9953789,36.4330309 C73.008897,36.4665154 72.9953789,36.5 72.9195718,36.5 L72.7409214,36.5 C72.6794275,36.5 72.6590178,36.4721322 72.6523913,36.4496652 L72.3364398,35.4202852 L70.0163699,35.4202852 L69.3571657,36.4496652 C69.3436476,36.4721322 69.3091898,36.5 69.2474309,36.5 L69.0483708,36.5 Z" id="Fill-3" fill="#FEFEFE"></path>
                <path d="M78.6429713,34.7171227 C79.1881631,34.7171227 79.7038295,34.2255075 79.7038295,33.5970874 C79.7038295,33.1284201 79.3776756,32.7627979 78.927469,32.7627979 L77.8187749,32.7627979 L77.5342772,34.7171227 L78.6429713,34.7171227 Z M77.5638027,32.5741395 C77.5702113,32.5342012 77.599508,32.5 77.647115,32.5 L78.980798,32.5 C79.5378916,32.5 80,32.9627096 80,33.5628861 C80,34.2199912 79.5438424,34.7627979 78.9510436,34.9172551 L79.5024152,36.3971756 C79.5257609,36.4428508 79.508366,36.5 79.4429064,36.5 L79.2710176,36.5 C79.2295904,36.5 79.2115089,36.4827891 79.2000649,36.4485878 L78.6546442,34.9514563 C78.5834625,34.9569726 78.50633,34.9569726 78.4356061,34.9569726 L77.4930788,34.9569726 L77.279305,36.4256399 C77.2738119,36.4657988 77.2321558,36.5 77.1728759,36.5 L77.0662179,36.5 C77.0245617,36.5 76.9948074,36.4657988 77.0007582,36.4256399 L77.5638027,32.5741395 Z" id="Fill-5" fill="#FEFEFE"></path>
                <path d="M86.2606466,35.2020955 L85.6223942,32.9473968 L85.6019849,32.9473968 L84.1738687,35.2020955 L86.2606466,35.2020955 Z M83.0484452,36.5 C83.0004702,36.5 82.9864223,36.4665154 83.013988,36.4217974 L85.587937,32.5391013 C85.6019849,32.5166343 85.6223942,32.5 85.6772606,32.5 L85.6979349,32.5 C85.732392,32.5 85.7665841,32.5 85.780367,32.5391013 L86.995379,36.4330309 C87.0088968,36.4665154 86.995379,36.5 86.9195733,36.5 L86.7409262,36.5 C86.6794335,36.5 86.6587592,36.4721322 86.6523979,36.4496652 L86.3361873,35.4202852 L84.016426,35.4202852 L83.3572342,36.4496652 C83.3437164,36.4721322 83.3092593,36.5 83.2472364,36.5 L83.0484452,36.5 Z" id="Fill-7" fill="#FEFEFE"></path>
                <path d="M95.3594129,32.5730951 C95.3650277,32.5337195 95.4043312,32.5 95.4375881,32.5 L95.5611135,32.5 C95.5999851,32.5 95.6278431,32.5337195 95.6222284,32.5730951 L95.2866366,34.9789253 C95.1806034,35.7055256 95.5049656,36.2409039 96.1649196,36.2409039 C96.8248736,36.2409039 97.3001873,35.7111818 97.4008217,34.984364 L97.7418123,32.5730951 C97.747643,32.5280633 97.7698863,32.5 97.8258182,32.5 L97.943297,32.5 C97.9769857,32.5 98.0050597,32.5337195 97.9992289,32.5730951 L97.6636371,35.0069886 C97.5407596,35.8689019 96.9477512,36.5 96.125616,36.5 C95.3594129,36.5 94.9009435,35.8689019 95.0182063,35.0069886 L95.3594129,32.5730951 Z" id="Fill-9" fill="#FEFEFE"></path>
                <path d="M102.640615,32.5720798 C102.653995,32.5276735 102.69388,32.5 102.746887,32.5 L102.846984,32.5 L105.133006,35.9499625 L105.14613,35.9499625 L105.692418,32.6276413 C105.699366,32.5888126 105.745683,32.555347 105.792515,32.555347 L105.925806,32.555347 C105.972638,32.555347 106.005832,32.5888126 105.999142,32.6276413 L105.35919,36.4277057 C105.352757,36.4776896 105.299492,36.5 105.246227,36.5 L105.139439,36.5 L102.867055,33.0386678 L102.860365,33.0386678 L102.300696,36.3721442 C102.287316,36.4444385 102.200599,36.4444385 102.133954,36.4444385 L102.074256,36.4444385 C102.027166,36.4444385 101.993972,36.4111874 102.00092,36.3721442 L102.640615,32.5720798 Z" id="Fill-11" fill="#FEFEFE"></path>
                <path d="M112.260807,35.2020955 L111.622293,32.9473968 L111.602149,32.9473968 L110.174041,35.2020955 L112.260807,35.2020955 Z M109.048624,36.5 C109.000384,36.5 108.986336,36.4665154 109.014167,36.4217974 L111.588101,32.5391013 C111.602149,32.5166343 111.622293,32.5 111.677424,32.5 L111.698098,32.5 C111.73229,32.5 111.766747,32.5 111.78053,32.5391013 L112.99527,36.4330309 C113.009053,36.4665154 112.99527,36.5 112.91973,36.5 L112.741084,36.5 C112.679591,36.5 112.658917,36.4721322 112.652291,36.4496652 L112.336347,35.4202852 L110.016334,35.4202852 L109.357411,36.4496652 C109.343628,36.4721322 109.309437,36.5 109.247414,36.5 L109.048624,36.5 Z" id="Fill-13" fill="#FEFEFE"></path>
                <g id="Group-17" transform="translate(0.000000, 41.500000)">
                    <mask id="mask-2" fill="white">
                        <use xlink:href="#path-1"></use>
                    </mask>
                    <g id="Clip-16"></g>
                    <path d="M-0.000116129032,0.261315789 C-0.000116129032,0.125263158 0.135464516,0.0160526316 0.285270968,0.0160526316 L0.660658065,0.0160526316 L6.9084,6.03315789 L6.9237871,6.03315789 L6.9237871,0.410789474 C6.9237871,0.274736842 7.04398065,0.152368421 7.20888387,0.152368421 L8.59081935,0.152368421 C8.74062581,0.152368421 8.87591613,0.274736842 8.87591613,0.410789474 L8.87591613,9.57236842 C8.87591613,9.70868421 8.74062581,9.81763158 8.59081935,9.81763158 L8.23023871,9.81763158 L1.95288387,3.56921053 L1.9377871,3.56921053 L1.9377871,9.42263158 C1.9377871,9.55894737 1.81730323,9.68131579 1.65210968,9.68131579 L0.285270968,9.68131579 C0.135464516,9.68131579 -0.000116129032,9.55894737 -0.000116129032,9.42263158 L-0.000116129032,0.261315789 Z" id="Fill-15" fill="#FEFEFE" mask="url(#mask-2)"></path>
                </g>
                <path d="M11,40.7673709 C11,40.6266064 11.129386,40.5 11.2726547,40.5 L12.6373165,40.5 C12.7955784,40.5 12.9102488,40.6266064 12.9102488,40.7673709 L12.9102488,46.5280985 C12.9102488,47.7252777 13.7432062,48.6689719 14.9929199,48.6689719 C16.2423559,48.6689719 17.0900288,47.7252777 17.0900288,46.5419843 L17.0900288,40.7673709 C17.0900288,40.6266064 17.2049769,40.5 17.3629612,40.5 L18.7270676,40.5 C18.8708916,40.5 19,40.6266064 19,40.7673709 L19,46.6266609 C19,48.7675343 17.262451,50.5 14.9929199,50.5 C12.7378267,50.5 11,48.7675343 11,46.6266609 L11,40.7673709 Z" id="Fill-18" fill="#FEFEFE"></path>
                <path d="M21,40.7711958 C21,40.6284176 21.1079015,40.5 21.2562009,40.5 L26.7437991,40.5 C26.8915773,40.5 27,40.6284176 27,40.7711958 L27,41.9426954 C27,42.0857498 26.8915773,42.2141674 26.7437991,42.2141674 L22.7527475,42.2141674 L22.7527475,44.5568904 L26.083098,44.5568904 C26.2175839,44.5568904 26.3390383,44.6855841 26.3390383,44.8283623 L26.3390383,46.0142226 C26.3390383,46.1713615 26.2175839,46.2856946 26.083098,46.2856946 L22.7527475,46.2856946 L22.7527475,48.7858326 L26.7437991,48.7858326 C26.8915773,48.7858326 27,48.9142502 27,49.0570284 L27,50.228528 C27,50.3715824 26.8915773,50.5 26.7437991,50.5 L21.2562009,50.5 C21.1079015,50.5 21,50.3715824 21,50.228528 L21,40.7711958 Z" id="Fill-20" fill="#FEFEFE"></path>
                <path d="M28.0270866,40.8662056 C27.9459641,40.6832389 28.0542143,40.5 28.2563683,40.5 L29.6325807,40.5 C29.7541339,40.5 29.8352564,40.5844043 29.8621233,40.6551949 L32.4528247,46.7113374 L32.5472502,46.7113374 L35.1379517,40.6551949 C35.1648186,40.5844043 35.245941,40.5 35.3674943,40.5 L36.7437066,40.5 C36.9461215,40.5 37.05385,40.6832389 36.9729884,40.8662056 L32.7903567,50.3450773 C32.7494042,50.4297539 32.6823674,50.5 32.5608141,50.5 L32.4259578,50.5 C32.3041437,50.5 32.2371068,50.4297539 32.1964152,50.3450773 L28.0270866,40.8662056 Z" id="Fill-22" fill="#FEFEFE"></path>
                <path d="M41.8560363,47.1339033 L40.5069569,44.0354498 L40.4662654,44.0354498 L39.1440528,47.1339033 L41.8560363,47.1339033 Z M36.0269803,50.1340667 L40.2231598,40.6551949 C40.2638513,40.5707907 40.3314096,40.5 40.4527015,40.5 L40.588079,40.5 C40.7226739,40.5 40.7766684,40.5707907 40.8170991,40.6551949 L44.9728479,50.1340667 C45.0539701,50.3170333 44.9462419,50.5 44.7438279,50.5 L43.569774,50.5 C43.3676208,50.5 43.2731957,50.4155957 43.1785097,50.2184709 L42.517273,48.6972882 L38.4825552,48.6972882 L37.8218402,50.2184709 C37.7675849,50.3592355 37.6462929,50.5 37.430315,50.5 L36.2562612,50.5 C36.054108,50.5 35.946119,50.3170333 36.0269803,50.1340667 L36.0269803,50.1340667 Z" id="Fill-24" fill="#FEFEFE"></path>
                <path d="M53.9347995,45.0573046 C54.6439845,45.0573046 55.2597671,44.4003038 55.2597671,43.5999724 C55.2597671,42.8429992 54.6439845,42.2144435 53.9347995,42.2144435 L51.7529107,42.2144435 L51.7529107,45.0573046 L53.9347995,45.0573046 Z M50,40.7711958 C50,40.6284176 50.1068564,40.5 50.254075,40.5 L54.0820181,40.5 C55.687969,40.5 57,41.8714444 57,43.5715272 C57,44.885805 56.1831824,45.9573322 55.0191462,46.4571941 L56.8525226,50.0857498 C56.9464424,50.2716101 56.8525226,50.5 56.6248383,50.5 L55.2199224,50.5 C55.0993532,50.5 55.0323415,50.428749 55.0054334,50.3715824 L53.2256145,46.5858879 L51.7399741,46.5858879 L51.7399741,50.2288042 C51.7399741,50.3715824 51.6194049,50.5 51.4853816,50.5 L50.254075,50.5 C50.1068564,50.5 50,50.3715824 50,50.2288042 L50,40.7711958 Z" id="Fill-26" fill="#FEFEFE"></path>
                <path d="M60,40.7711958 C60,40.6284176 60.1076408,40.5 60.2562009,40.5 L65.7435385,40.5 C65.8915773,40.5 66,40.6284176 66,40.7711958 L66,41.9426954 C66,42.0857498 65.8915773,42.2141674 65.7435385,42.2141674 L61.7527475,42.2141674 L61.7527475,44.5568904 L65.0828374,44.5568904 C65.2175839,44.5568904 65.3390383,44.6855841 65.3390383,44.8283623 L65.3390383,46.0142226 C65.3390383,46.1713615 65.2175839,46.2856946 65.0828374,46.2856946 L61.7527475,46.2856946 L61.7527475,48.7858326 L65.7435385,48.7858326 C65.8915773,48.7858326 66,48.9142502 66,49.0570284 L66,50.228528 C66,50.3715824 65.8915773,50.5 65.7435385,50.5 L60.2562009,50.5 C60.1076408,50.5 60,50.3715824 60,50.228528 L60,40.7711958 Z" id="Fill-28" fill="#FEFEFE"></path>
                <path d="M72.8562309,47.1339033 L71.5066973,44.0354498 L71.4665295,44.0354498 L70.1441222,47.1339033 L72.8562309,47.1339033 Z M67.0269448,50.1340667 L71.2234361,40.6551949 C71.2638647,40.5707907 71.3311588,40.5 71.4529664,40.5 L71.5878154,40.5 C71.7226644,40.5 71.7763954,40.5707907 71.8173457,40.6551949 L75.9728867,50.1340667 C76.0540048,50.3170333 75.9460212,50.5 75.7433565,50.5 L74.5696222,50.5 C74.3672182,50.5 74.2727978,50.4155957 74.1781166,50.2184709 L73.5169129,48.6972882 L69.4829186,48.6972882 L68.8217149,50.2184709 C68.7674623,50.3592355 68.6461764,50.5 68.4304702,50.5 L67.256475,50.5 C67.0543319,50.5 66.9460875,50.3170333 67.0269448,50.1340667 L67.0269448,50.1340667 Z" id="Fill-30" fill="#FEFEFE"></path>
                <path d="M78,40.7711958 C78,40.6284176 78.1188574,40.5 78.2822145,40.5 L79.6484999,40.5 C79.7972152,40.5 79.9307144,40.6284176 79.9307144,40.7711958 L79.9307144,48.7858326 L83.7177855,48.7858326 C83.8811426,48.7858326 84,48.9142502 84,49.0570284 L84,50.228528 C84,50.3715824 83.8811426,50.5 83.7177855,50.5 L78.2822145,50.5 C78.1188574,50.5 78,50.3715824 78,50.228528 L78,40.7711958 Z" id="Fill-32" fill="#FEFEFE"></path>
                <path d="M85,40.7711958 C85,40.6284176 85.1372694,40.5 85.2898893,40.5 L86.7101107,40.5 C86.8630258,40.5 87,40.6284176 87,40.7711958 L87,50.228528 C87,50.3715824 86.8630258,50.5 86.7101107,50.5 L85.2898893,50.5 C85.1372694,50.5 85,50.3715824 85,50.228528 L85,40.7711958 Z" id="Fill-34" fill="#FEFEFE"></path>
                <path d="M92.6088427,48.7571594 C94.5395879,48.7571594 95.9506827,47.3570324 95.9506827,45.4855016 C95.9506827,43.6286073 94.5395879,42.2284803 92.6088427,42.2284803 L90.915816,42.2284803 L90.915816,48.7571594 L92.6088427,48.7571594 Z M89,40.7714645 C89,40.628414 89.1188593,40.5 89.2672898,40.5 L92.7871316,40.5 C95.6532474,40.5 98,42.7426887 98,45.4855016 C98,48.2570352 95.6532474,50.5 92.7871316,50.5 L89.2672898,50.5 C89.1188593,50.5 89,50.3713098 89,50.2285355 L89,40.7714645 Z" id="Fill-36" fill="#FEFEFE"></path>
                <path d="M103.856036,47.1339033 L102.506957,44.0354498 L102.466265,44.0354498 L101.144053,47.1339033 L103.856036,47.1339033 Z M98.0269803,50.1340667 L102.22316,40.6551949 C102.263851,40.5707907 102.33141,40.5 102.452702,40.5 L102.588079,40.5 C102.722674,40.5 102.776668,40.5707907 102.817099,40.6551949 L106.972848,50.1340667 C107.05397,50.3170333 106.946242,50.5 106.743828,50.5 L105.569774,50.5 C105.36736,50.5 105.273196,50.4155957 105.17851,50.2184709 L104.517273,48.6972882 L100.482555,48.6972882 L99.8218402,50.2184709 C99.7675849,50.3592355 99.6462929,50.5 99.430315,50.5 L98.2562612,50.5 C98.054108,50.5 97.946119,50.3170333 98.0269803,50.1340667 L98.0269803,50.1340667 Z" id="Fill-38" fill="#FEFEFE"></path>
                <path d="M111.608843,48.7571594 C113.539588,48.7571594 114.950396,47.3570324 114.950396,45.4855016 C114.950396,43.6286073 113.539588,42.2284803 111.608843,42.2284803 L109.915816,42.2284803 L109.915816,48.7571594 L111.608843,48.7571594 Z M108,40.7714645 C108,40.628414 108.118572,40.5 108.26729,40.5 L111.787132,40.5 C114.653247,40.5 117,42.7426887 117,45.4855016 C117,48.2570352 114.653247,50.5 111.787132,50.5 L108.26729,50.5 C108.118572,50.5 108,50.3713098 108,50.2285355 L108,40.7714645 Z" id="Fill-40" fill="#FEFEFE"></path>
                <g id="Group-48" opacity="0.2" transform="translate(120.000000, 4.500000)" fill="#FEFEFE">
                    <path d="M5.77094225,6.1615756 L4.4524493,3.29154315 L4.41284366,3.29154315 L3.12084366,6.1615756 L5.77094225,6.1615756 Z M0.074956338,8.94026476 L4.17547746,0.160719014 C4.2150831,0.0826138871 4.28118169,0.0172173913 4.39973099,0.0172173913 L4.53139296,0.0172173913 C4.66332254,0.0172173913 4.71630845,0.0826138871 4.75564648,0.160719014 L8.81682958,8.94026476 C8.89604085,9.10997794 8.79033662,9.27942635 8.59284366,9.27942635 L7.44561831,9.27942635 C7.24785775,9.27942635 7.1555338,9.20105646 7.06320986,9.01836989 L6.41720986,7.60956522 L2.47484366,7.60956522 L1.82884366,9.01836989 C1.77585775,9.14889812 1.65730845,9.27942635 1.44616761,9.27942635 L0.299209859,9.27942635 C0.10118169,9.27942635 -0.00425492958,9.10997794 0.074956338,8.94026476 L0.074956338,8.94026476 Z" id="Fill-42"></path>
                    <path d="M19.1676817,4.30913381 C19.8664,4.30913381 20.4727944,3.70891577 20.4727944,2.97869903 C20.4727944,2.2871377 19.8664,1.71313121 19.1676817,1.71313121 L17.0182732,1.71313121 L17.0182732,4.30913381 L19.1676817,4.30913381 Z M15.2911465,0.395669825 C15.2911465,0.265141596 15.3963155,0.147586762 15.5416254,0.147586762 L19.3124563,0.147586762 C20.8948085,0.147586762 22.1870761,1.40018118 22.1870761,2.95248748 C22.1870761,4.15265879 21.3826535,5.1309586 20.2354282,5.58767502 L22.0420338,8.90092096 C22.1343577,9.07063413 22.0420338,9.27926749 21.8177803,9.27926749 L20.4331887,9.27926749 C20.3146394,9.27926749 20.2488085,9.21413576 20.2223155,9.16197742 L18.4686958,5.70496509 L17.0051606,5.70496509 L17.0051606,9.03144919 C17.0051606,9.16197742 16.8866113,9.27926749 16.7546817,9.27926749 L15.5416254,9.27926749 C15.3963155,9.27926749 15.2911465,9.16197742 15.2911465,9.03144919 L15.2911465,0.395669825 Z" id="Fill-44"></path>
                    <path d="M33.249893,7.71396132 C34.9111887,7.71396132 36.2824,6.37028838 36.2824,4.72663881 C36.2824,3.08298923 34.9111887,1.71310474 33.249893,1.71310474 C31.5883296,1.71310474 30.2304986,3.08298923 30.2304986,4.72663881 C30.2304986,6.37028838 31.5883296,7.71396132 33.249893,7.71396132 M33.249893,0.0172968202 C35.8868789,0.0172968202 37.9964141,2.11739805 37.9964141,4.72663881 C37.9964141,6.50081661 36.954893,8.0660963 35.4252592,8.90089448 L37.0734423,11.4709503 C37.1919915,11.6536369 37.0734423,11.8622702 36.862569,11.8622702 L35.4648648,11.8622702 C35.4121465,11.8622702 35.2935972,11.8103766 35.2537239,11.7320067 L33.8431746,9.3705843 C33.6323014,9.39679585 33.4080479,9.40976924 33.249893,9.40976924 C30.6126394,9.40976924 28.5162169,7.3356148 28.5162169,4.72663881 C28.5162169,2.11739805 30.6126394,0.0172968202 33.249893,0.0172968202" id="Fill-46"></path>
                </g>
                <g id="Group-55" opacity="0.15" transform="translate(124.000000, 19.500000)" fill="#FEFEFE">
                    <path d="M0.116919403,0.360583333 C0.116919403,0.223638889 0.235934328,0.100583333 0.36838209,0.100583333 L1.62569552,0.100583333 C1.77157612,0.100583333 1.87742687,0.223638889 1.87742687,0.360583333 L1.87742687,5.95836111 C1.87742687,7.12169444 2.64524776,8.03863889 3.79671045,8.03863889 C4.94817313,8.03863889 5.72969552,7.12169444 5.72969552,5.97197222 L5.72969552,0.360583333 C5.72969552,0.223638889 5.83527761,0.100583333 5.98088955,0.100583333 L7.2387403,0.100583333 C7.37065075,0.100583333 7.48993433,0.223638889 7.48993433,0.360583333 L7.48993433,6.05419444 C7.48993433,8.13447222 5.88820299,9.81808333 3.79671045,9.81808333 C1.71865075,9.81808333 0.116919403,8.13447222 0.116919403,6.05419444 L0.116919403,0.360583333 Z" id="Fill-49"></path>
                    <path d="M17.2857493,0.360583333 C17.2857493,0.223638889 17.4047642,0.100583333 17.5374806,0.100583333 L18.7684657,0.100583333 C18.9006448,0.100583333 19.0196597,0.223638889 19.0196597,0.360583333 L19.0196597,9.42113889 C19.0196597,9.55780556 18.9006448,9.68113889 18.7684657,9.68113889 L17.5374806,9.68113889 C17.4047642,9.68113889 17.2857493,9.55780556 17.2857493,9.42113889 L17.2857493,0.360583333 Z" id="Fill-51"></path>
                    <path d="M31.8601343,1.74297222 L29.8347313,1.74297222 C29.6891194,1.74297222 29.5832687,1.61991667 29.5832687,1.48269444 L29.5832687,0.360472222 C29.5832687,0.223805556 29.6891194,0.100472222 29.8347313,0.100472222 L35.6191791,0.100472222 C35.7650597,0.100472222 35.8709104,0.223805556 35.8709104,0.360472222 L35.8709104,1.48269444 C35.8709104,1.61991667 35.7650597,1.74297222 35.6191791,1.74297222 L33.5940448,1.74297222 L33.5940448,9.42102778 C33.5940448,9.55797222 33.4750299,9.68102778 33.3428507,9.68102778 L32.111597,9.68102778 C31.9791493,9.68102778 31.8601343,9.55797222 31.8601343,9.42102778 L31.8601343,1.74297222 Z" id="Fill-53"></path>
                </g>
                <g id="Group-62" opacity="0.1" transform="translate(130.000000, 36.500000)" fill="#FEFEFE">
                    <path d="M0.0408778626,0.428280249 C0.0408778626,0.306055198 0.146145038,0.196226195 0.291221374,0.196226195 L5.64862595,0.196226195 C5.79370229,0.196226195 5.89896947,0.306055198 5.89896947,0.428280249 L5.89896947,1.430129 C5.89896947,1.55210613 5.79370229,1.66218306 5.64862595,1.66218306 L1.7521374,1.66218306 L1.7521374,3.66538472 L5.00366412,3.66538472 C5.1351145,3.66538472 5.25374046,3.77521372 5.25374046,3.89743877 L5.25374046,4.91143565 C5.25374046,5.04580884 5.1351145,5.14348971 5.00366412,5.14348971 L1.7521374,5.14348971 L1.7521374,7.28106455 L5.64862595,7.28106455 C5.79370229,7.28106455 5.89896947,7.39089356 5.89896947,7.51336653 L5.89896947,8.51496736 C5.89896947,8.63694449 5.79370229,8.74702141 5.64862595,8.74702141 L0.291221374,8.74702141 C0.146145038,8.74702141 0.0408778626,8.63694449 0.0408778626,8.51496736 L0.0408778626,0.428280249 Z" id="Fill-56"></path>
                    <path d="M17.9760802,0.0739515593 C19.305813,0.0739515593 20.2665763,0.464922973 21.1618817,1.21017349 C21.2802405,1.30785437 21.2802405,1.45437568 21.1752405,1.55205655 L20.3721107,2.32160333 C20.2799351,2.4192842 20.1482176,2.4192842 20.0429504,2.32160333 C19.4898969,1.86964335 18.7527595,1.60089699 18.0156221,1.60089699 C16.330813,1.60089699 15.0798969,2.90818441 15.0798969,4.44727796 C15.0798969,5.97422339 16.3439046,7.26886684 18.0287137,7.26886684 C18.8184847,7.26886684 19.4898969,6.98797235 20.0429504,6.57270468 C20.1482176,6.48717193 20.2930267,6.49932006 20.3721107,6.57270468 L21.1880649,7.35439958 C21.2935992,7.43993233 21.2671489,7.59884969 21.1752405,7.68438243 C20.2799351,8.49062152 19.1479122,8.86919688 17.9760802,8.86919688 C15.3433321,8.86919688 13.2238282,6.92698378 13.2238282,4.48372235 C13.2238282,2.04070884 15.3433321,0.0739515593 17.9760802,0.0739515593" id="Fill-58"></path>
                    <path d="M30.8719771,1.6620591 L28.8577405,1.6620591 C28.7129313,1.6620591 28.6073969,1.55223009 28.6073969,1.43000504 L28.6073969,0.428156289 C28.6073969,0.306179158 28.7129313,0.196102235 28.8577405,0.196102235 L34.6102977,0.196102235 C34.755374,0.196102235 34.8606412,0.306179158 34.8606412,0.428156289 L34.8606412,1.43000504 C34.8606412,1.55223009 34.755374,1.6620591 34.6102977,1.6620591 L32.5963282,1.6620591 L32.5963282,8.5148434 C32.5963282,8.63706845 32.4779695,8.74714537 32.3462519,8.74714537 L31.1220534,8.74714537 C30.9903359,8.74714537 30.8719771,8.63706845 30.8719771,8.5148434 L30.8719771,1.6620591 Z" id="Fill-60"></path>
                </g>
                <g id="Group-70" opacity="0.05" transform="translate(134.000000, 52.500000)">
                    <path d="M0.0663277484,0.431388889 C0.0663277484,0.294444444 0.186683852,0.171388889 0.320624165,0.171388889 L1.59210625,0.171388889 C1.73963077,0.171388889 1.84667435,0.294444444 1.84667435,0.431388889 L1.84667435,6.02916667 C1.84667435,7.1925 2.62314781,8.10972222 3.78758631,8.10972222 C4.95202482,8.10972222 5.74235417,7.1925 5.74235417,6.04277778 L5.74235417,0.431388889 C5.74235417,0.294444444 5.84912607,0.171388889 5.99637891,0.171388889 L7.26813267,0.171388889 C7.4018013,0.171388889 7.5221574,0.294444444 7.5221574,0.431388889 L7.5221574,6.125 C7.5221574,8.20555556 5.90264785,9.88888889 3.78758631,9.88888889 C1.68610898,9.88888889 0.0663277484,8.20555556 0.0663277484,6.125 L0.0663277484,0.431388889 Z" id="Fill-63" fill="#FEFEFE"></path>
                    <path d="M18.7403514,4.53730556 C19.4497189,4.53730556 20.065627,3.90786111 20.065627,3.14147222 C20.065627,2.41591667 19.4497189,1.81369444 18.7403514,1.81369444 L16.5584556,1.81369444 L16.5584556,4.53730556 L18.7403514,4.53730556 Z M14.804734,0.431472222 C14.804734,0.294527778 14.9117776,0.171472222 15.0590305,0.171472222 L18.8876043,0.171472222 C20.4938013,0.171472222 21.8057643,1.48536111 21.8057643,3.11397222 C21.8057643,4.37313889 20.9890816,5.39980556 19.8246431,5.87869444 L21.6585115,9.35508333 C21.7525142,9.53286111 21.6585115,9.75202778 21.4308401,9.75202778 L20.0254177,9.75202778 C19.9050616,9.75202778 19.8379556,9.68341667 19.8110589,9.62897222 L18.030984,6.00175 L16.5451431,6.00175 L16.5451431,9.49175 C16.5451431,9.62897222 16.424787,9.75202778 16.290575,9.75202778 L15.0590305,9.75202778 C14.9117776,9.75202778 14.804734,9.62897222 14.804734,9.49175 L14.804734,0.431472222 Z" id="Fill-65" fill="#FEFEFE"></path>
                    <g id="Group-69" transform="translate(28.526842, 0.000000)">
                        <mask id="mask-4" fill="white">
                            <use xlink:href="#path-3"></use>
                        </mask>
                        <g id="Clip-68"></g>
                        <path d="M5.86216691,6.48077778 L4.52357883,3.46966667 L4.48364125,3.46966667 L3.17167822,6.48077778 L5.86216691,6.48077778 Z M0.0796402745,9.39633333 L4.24265736,0.184944444 C4.28286662,0.103 4.34970094,0.0343888889 4.47005704,0.0343888889 L4.60399735,0.0343888889 C4.73793767,0.0343888889 4.79145945,0.103 4.83166872,0.184944444 L8.95474822,9.39633333 C9.03516675,9.57411111 8.9275798,9.75188889 8.72707686,9.75188889 L7.56263835,9.75188889 C7.36186372,9.75188889 7.26813267,9.66966667 7.17412994,9.47827778 L6.51828426,8.00022222 L2.51583255,8.00022222 L1.85998687,9.47827778 C1.8061934,9.61494444 1.6858373,9.75188889 1.47175014,9.75188889 L0.307039955,9.75188889 C0.106265327,9.75188889 -0.000778250366,9.57411111 0.0796402745,9.39633333 L0.0796402745,9.39633333 Z" id="Fill-67" fill="#FEFEFE" mask="url(#mask-4)"></path>
                    </g>
                </g>
                <g id="Group-74" transform="translate(109.000000, 0.500000)">
                    <path d="M0.0807558884,0.0266227106 L22.92724,68.9747112" id="Fill-71" fill="#00021C"></path>
                    <path d="M0.0807558884,0.0266227106 L22.92724,68.9747112" id="Stroke-73" stroke="#E02E3F" stroke-width="5"></path>
                </g>
                <path d="M35.3244726,17.5 C36.8145494,17.5 37.8911911,17.9443549 38.8939849,18.791717 C39.0268543,18.9028729 39.0268543,19.0693382 38.9085264,19.180494 L38.009234,20.0557793 C37.9060178,20.1666667 37.7583217,20.1666667 37.6402789,20.0557793 C37.0206966,19.5416163 36.1952522,19.236072 35.3689525,19.236072 C33.4808376,19.236072 32.0797206,20.7221775 32.0797206,22.472211 C32.0797206,24.208283 33.4956642,25.6806954 35.3837791,25.6806954 C36.26853,25.6806954 37.0206966,25.3611894 37.6402789,24.8889113 C37.7583217,24.791717 37.9205593,24.8054101 38.009234,24.8889113 L38.9236381,25.7778896 C39.041681,25.8750839 39.0120277,26.0557793 38.9085264,26.1529736 C37.9060178,27.0693382 36.6372,27.5 35.3244726,27.5 C32.3745426,27.5 30,25.2916499 30,22.5138274 C30,19.7360048 32.3745426,17.5 35.3244726,17.5" id="Fill-75" fill="#FEFEFE"></path>
                <path d="M45.9930092,25.6943885 C47.7455367,25.6943885 49.1920843,24.2638609 49.1920843,22.5138274 C49.1920843,20.7640623 47.7455367,19.3056115 45.9930092,19.3056115 C44.2402129,19.3056115 42.8076468,20.7640623 42.8076468,22.5138274 C42.8076468,24.2638609 44.2402129,25.6943885 45.9930092,25.6943885 M45.9930092,17.5 C48.7747903,17.5 51,19.7360048 51,22.5138274 C51,25.2916499 48.7747903,27.5 45.9930092,27.5 C43.2112282,27.5 41,25.2916499 41,22.5138274 C41,19.7360048 43.2112282,17.5 45.9930092,17.5" id="Fill-77" fill="#FEFEFE"></path>
                <path d="M53,17.7499664 C53,17.6111559 53.1221993,17.5 53.2572204,17.5 L53.5955582,17.5 L59.2266706,23.6388106 L59.240539,23.6388106 L59.240539,17.9027386 C59.240539,17.763928 59.3488699,17.6388106 59.4972361,17.6388106 L60.7430412,17.6388106 C60.8778007,17.6388106 61,17.763928 61,17.9027386 L61,27.2500336 C61,27.3888441 60.8778007,27.5 60.7430412,27.5 L60.4180486,27.5 L54.7599843,21.1249161 L54.7466392,21.1249161 L54.7466392,27.0972614 C54.7466392,27.236072 54.6380466,27.3611894 54.4891571,27.3611894 L53.2572204,27.3611894 C53.1221993,27.3611894 53,27.236072 53,27.0972614 L53,17.7499664 Z" id="Fill-79" fill="#FEFEFE"></path>
                <path d="M63.072344,25.9999329 L63.6203873,25.1388777 C63.7419458,24.9444892 64.0009566,24.9444892 64.1384089,25.0416834 C64.2140519,25.0832998 65.4472965,25.9027386 66.4371298,25.9027386 C67.2288787,25.9027386 67.8225433,25.4304605 67.8225433,24.8333333 C67.8225433,24.1250503 67.1682467,23.6388106 65.8887922,23.1668009 C64.4580518,22.6389448 63.0267228,21.8055444 63.0267228,20.1666667 C63.0267228,18.9302591 64.0312727,17.5 66.4521407,17.5 C68.0053225,17.5 69.1929459,18.2219761 69.4975779,18.4305947 C69.6497468,18.5138274 69.6956623,18.7498322 69.5888204,18.8889113 L69.010461,19.6804269 C68.8883139,19.8471607 68.6599134,19.9583166 68.4774285,19.8471607 C68.3555757,19.7776212 67.1985627,19.0832998 66.3608982,19.0832998 C65.493212,19.0832998 65.0214003,19.6111559 65.0214003,20.0555108 C65.0214003,20.7082159 65.5844545,21.1525708 66.8179934,21.6111559 C68.2946493,22.1527051 70,22.9581823 70,24.7498322 C70,26.1803598 68.6451969,27.5 66.4983505,27.5 C64.5796103,27.5 63.452619,26.6805611 63.1482813,26.4166331 C63.0114176,26.2915156 62.935186,26.2222446 63.072344,25.9999329" id="Fill-81" fill="#FEFEFE"></path>
                <path d="M71.5344484,19.2143962 L69.2800228,19.2143962 C69.1182192,19.2143962 69,19.085706 69,18.9429317 L69,17.7714645 C69,17.6286902 69.1182192,17.5 69.2800228,17.5 L75.7196923,17.5 C75.8817808,17.5 76,17.6286902 76,17.7714645 L76,18.9429317 C76,19.085706 75.8817808,19.2143962 75.7196923,19.2143962 L73.4649819,19.2143962 L73.4649819,27.2285355 C73.4649819,27.3713098 73.3325194,27.5 73.185244,27.5 L71.8144712,27.5 C71.6674806,27.5 71.5344484,27.3713098 71.5344484,27.2285355 L71.5344484,19.2143962 Z" id="Fill-83" fill="#FEFEFE"></path>
                <path d="M81.9347995,22.0571788 C82.6439845,22.0571788 83.2597671,21.4001961 83.2597671,20.6001629 C83.2597671,19.8426583 82.6439845,19.2143962 81.9347995,19.2143962 L79.7529107,19.2143962 L79.7529107,22.0571788 L81.9347995,22.0571788 Z M78,17.7714645 C78,17.6286902 78.1068564,17.5 78.254075,17.5 L82.0822768,17.5 C83.687969,17.5 85,18.8714065 85,20.5714424 C85,21.8856839 84.1831824,22.9571815 83.0191462,23.4573058 L84.8525226,27.0857612 C84.9464424,27.2713402 84.8525226,27.5 84.6248383,27.5 L83.2199224,27.5 C83.0993532,27.5 83.0323415,27.4284748 83.0054334,27.3713098 L81.2256145,23.5857198 L79.7399741,23.5857198 L79.7399741,27.2285355 C79.7399741,27.3713098 79.6194049,27.5 79.4853816,27.5 L78.254075,27.5 C78.1068564,27.5 78,27.3713098 78,27.2285355 L78,17.7714645 Z" id="Fill-85" fill="#FEFEFE"></path>
                <path d="M86,17.7676432 C86,17.6268787 86.1291084,17.5 86.2726547,17.5 L87.6373165,17.5 C87.7950231,17.5 87.9102488,17.6268787 87.9102488,17.7676432 L87.9102488,23.5283707 C87.9102488,24.72555 88.7432062,25.6689719 89.9926422,25.6689719 C91.2423559,25.6689719 92.0897512,24.72555 92.0897512,23.5422566 L92.0897512,17.7676432 C92.0897512,17.6268787 92.2046993,17.5 92.3626835,17.5 L93.7270676,17.5 C93.8708916,17.5 94,17.6268787 94,17.7676432 L94,23.6269331 C94,25.7678066 92.2621733,27.5 89.9926422,27.5 C87.7378267,27.5 86,25.7678066 86,23.6269331 L86,17.7676432 Z" id="Fill-87" fill="#FEFEFE"></path>
                <path d="M97,17.7714645 C97,17.6286902 97.1378191,17.5 97.2900989,17.5 L98.7099011,17.5 C98.8627711,17.5 99,17.6286902 99,17.7714645 L99,27.2285355 C99,27.3713098 98.8627711,27.5 98.7099011,27.5 L97.2900989,27.5 C97.1378191,27.5 97,27.3713098 97,27.2285355 L97,17.7714645 Z" id="Fill-89" fill="#FEFEFE"></path>
                <path d="M105.934799,22.0571788 C106.644502,22.0571788 107.260026,21.4001961 107.260026,20.6001629 C107.260026,19.8426583 106.644502,19.2143962 105.934799,19.2143962 L103.753428,19.2143962 L103.753428,22.0571788 L105.934799,22.0571788 Z M102,17.7714645 C102,17.6286902 102.107374,17.5 102.254075,17.5 L106.082018,17.5 C107.688228,17.5 109,18.8714065 109,20.5714424 C109,21.8856839 108.1837,22.9571815 107.018887,23.4573058 L108.852523,27.0857612 C108.946701,27.2713402 108.852523,27.5 108.625097,27.5 L107.219922,27.5 C107.099353,27.5 107.032342,27.4284748 107.005951,27.3713098 L105.225614,23.5857198 L103.740233,23.5857198 L103.740233,27.2285355 C103.740233,27.3713098 103.619405,27.5 103.48564,27.5 L102.254075,27.5 C102.107374,27.5 102,27.3713098 102,27.2285355 L102,17.7714645 Z" id="Fill-91" fill="#FEFEFE"></path>
            </g>
        </g>
    </g>
</svg>