<?xml version="1.0" encoding="utf-8"?>
<!-- Generator: Adobe Illustrator 17.1.0, SVG Export Plug-In . SVG Version: 6.00 Build 0)  -->
<!DOCTYPE svg PUBLIC "-//W3C//DTD SVG 1.1//EN" "http://www.w3.org/Graphics/SVG/1.1/DTD/svg11.dtd">
<svg version="1.1" id="Capa_1" xmlns="http://www.w3.org/2000/svg" xmlns:xlink="http://www.w3.org/1999/xlink" x="0px" y="0px"
	 width="257px" height="60px" viewBox="0 0 257 60" enable-background="new 0 0 257 60" xml:space="preserve">
<title>UM</title>
<desc>Created with Sketch.</desc>
<g id="Arquitectura" opacity="0.5">
	<g id="Desktop-2" transform="translate(-1017.000000, -48.000000)">
		<g id="UM" transform="translate(1017.000000, 48.000000)">
			<path id="Fill-1" fill="#FFFFFF" d="M94.5,28.7c0,3.2-1.9,5.7-6.1,5.7c-3.9,0-5.9-2.3-5.9-5.8V18.6h2v10.1c0,2.5,1.4,4,4.1,4
				c2.8,0,4-1.7,4-4V18.6h1.9V28.7z"/>
			<path id="Fill-3" fill="#FFFFFF" d="M108.5,34.2l-8.3-13H100c0.1,1,0.2,2.6,0.2,4.2v8.7h-1.8V18.6h2.3l8.3,12.9h0.1
				c0-0.7-0.2-2.7-0.2-4.1v-8.8h1.8v15.6H108.5z"/>
			<polygon id="Fill-5" fill="#FFFFFF" points="113.5,34.2 114.2,32.5 115.3,32.5 115.3,20.4 113.5,20.4 113.5,18.6 119.1,18.6 
				118.5,20.4 117.3,20.4 117.3,32.5 119.1,32.5 119.1,34.2 			"/>
			<path id="Fill-7" fill="#FFFFFF" d="M128.3,34.2h-2l-5.6-15.6h2.1l3.5,10c0.5,1.3,0.8,2.4,1,3.4c0.2-1,0.5-2.1,1-3.5l3.5-10h2.1
				L128.3,34.2z"/>
			<polygon id="Fill-9" fill="#FFFFFF" points="136.1,34.2 136.1,18.6 144.8,18.6 144.8,20.4 138,20.4 138,25.2 143.9,25.2 
				143.9,26.9 138,26.9 138,32.5 145.3,32.5 144.6,34.2 			"/>
			<path id="Fill-11" fill="#FFFFFF" d="M149.8,20.3v5.8h2.3c2.5,0,3.6-1,3.6-3c0-2-1.2-2.8-3.8-2.8H149.8z M157.8,23.1
				c0,2.5-1.6,3.6-3.1,4.2l4.3,7h-2.3l-3.8-6.4h-3.1v6.4h-2V18.6h4.3C156,18.6,157.8,20.1,157.8,23.1L157.8,23.1z"/>
			<path id="Fill-13" fill="#FFFFFF" d="M165.1,34.5c-1.7,0-3.3-0.3-4.3-0.7l0.6-1.6c0.7,0.3,2.1,0.7,3.8,0.7c2.3,0,3.5-1,3.5-2.5
				c0-1.5-0.9-2.2-3.7-3.2c-2.7-1-4-2.2-4-4.6c0-2.5,2-4,5-4c1.7,0,3.1,0.4,4.3,0.9l-0.6,1.7c-1.1-0.5-2.4-0.8-3.7-0.8
				c-1.9,0-2.9,0.9-2.9,2.3c0,1.6,0.9,2.2,3.4,3.1c2.8,1,4.3,2.1,4.3,4.5C170.7,32.8,168.5,34.5,165.1,34.5"/>
			<polygon id="Fill-15" fill="#FFFFFF" points="172.6,34.2 173.2,32.5 174.4,32.5 174.4,20.4 172.6,20.4 172.6,18.6 178.2,18.6 
				177.6,20.4 176.4,20.4 176.4,32.5 178.2,32.5 178.2,34.2 			"/>
			<path id="Fill-17" fill="#FFFFFF" d="M185.5,20.3h-2.6v12.2h2.1c4.2,0,6.3-2.1,6.3-6.2C191.4,22.2,189.2,20.3,185.5,20.3
				 M185.3,34.2H181V18.6h4.8c4.7,0,7.7,2.6,7.7,7.6C193.5,31.5,190.4,34.2,185.3,34.2"/>
			<path id="Fill-19" fill="#FFFFFF" d="M201.9,22.9c-0.1-0.3-0.6-1.8-0.7-2.3c-0.2,0.9-0.5,1.8-0.7,2.3l-1.8,4.7h4.9L201.9,22.9z
				 M204.2,29.4H198l-1.9,4.8h-2l6.1-15.7h1.8l6.1,15.7h-2L204.2,29.4z"/>
			<path id="Fill-21" fill="#FFFFFF" d="M214.9,20.3h-2.6v12.2h2.1c4.2,0,6.3-2.1,6.3-6.2C220.8,22.2,218.6,20.3,214.9,20.3
				 M214.7,34.2h-4.3V18.6h4.8c4.7,0,7.7,2.6,7.7,7.6C222.9,31.5,219.8,34.2,214.7,34.2"/>
			<path id="Fill-23" fill="#FFFFFF" d="M236.5,20.3h-2.6v12.2h2.1c4.2,0,6.3-2.1,6.3-6.2C242.4,22.2,240.3,20.3,236.5,20.3
				 M236.3,34.2H232V18.6h4.8c4.7,0,7.7,2.6,7.7,7.6C244.5,31.5,241.5,34.2,236.3,34.2"/>
			<polygon id="Fill-25" fill="#FFFFFF" points="247.6,34.2 247.6,18.6 256.3,18.6 256.3,20.4 249.6,20.4 249.6,25.2 255.4,25.2 
				255.4,26.9 249.6,26.9 249.6,32.5 256.8,32.5 256.2,34.2 			"/>
			<path id="Fill-28" fill="#FFFFFF" d="M84.3,46L84.3,46c0,1,0.1,2.4,0.1,4.2v9.4h-1.8V44h2.9l4.8,12.7h0.1L95.1,44H98v15.5h-1.9
				V50c0-1.2,0.1-2.6,0.2-4h-0.1L91,59.5h-1.6L84.3,46z"/>
			<path id="Fill-30" fill="#FFFFFF" d="M104.6,56.4c0.8,1.1,2.1,1.6,3.8,1.6c1.7,0,3-0.5,3.8-1.6c0.8-1.1,1.3-2.6,1.3-4.7
				c0-2-0.4-3.6-1.2-4.6c-0.8-1.1-2.1-1.6-3.8-1.6c-1.7,0-3,0.5-3.8,1.6c-0.8,1.1-1.3,2.6-1.3,4.6C103.3,53.8,103.7,55.3,104.6,56.4
				 M114.7,56c-0.5,1.2-1.4,2.1-2.4,2.8c-1.1,0.7-2.4,1-3.9,1c-2.4,0-4.1-0.7-5.3-2.1c-1.2-1.4-1.8-3.4-1.8-5.9
				c0-2.5,0.6-4.4,1.8-5.8c1.2-1.4,3-2.1,5.4-2.1c1.5,0,2.8,0.3,3.9,1c1.1,0.7,1.9,1.6,2.4,2.8c0.5,1.2,0.8,2.6,0.8,4.2
				C115.5,53.4,115.3,54.8,114.7,56"/>
			<path id="Fill-32" fill="#FFFFFF" d="M128.8,59.5l-8.3-12.9h-0.1c0.1,1.8,0.2,3.2,0.2,4.2v8.7h-1.8V44h2.3l8.3,12.8h0.1
				c-0.1-1.6-0.2-3-0.2-4.1V44h1.8v15.5H128.8z"/>
			<polygon id="Fill-34" fill="#FFFFFF" points="138.2,59.5 138.2,45.8 133.4,45.8 134,44 145,44 145,45.8 140.1,45.8 140.1,59.5 
							"/>
			<polygon id="Fill-36" fill="#FFFFFF" points="147.3,59.5 147.3,44 155.9,44 155.9,45.8 149.2,45.8 149.2,50.6 155.1,50.6 
				155.1,52.3 149.2,52.3 149.2,57.8 156.4,57.8 155.8,59.5 			"/>
			<path id="Fill-38" fill="#FFFFFF" d="M160.8,46L160.8,46c0,1,0.1,2.4,0.1,4.2v9.4H159V44h2.9l4.8,12.7h0.1l4.9-12.7h2.9v15.5
				h-1.9V50c0-1.2,0.1-2.6,0.2-4h-0.1l-5.2,13.6h-1.6L160.8,46z"/>
			<path id="Fill-40" fill="#FFFFFF" d="M181.1,56.4c0.8,1.1,2.1,1.6,3.8,1.6c1.7,0,3-0.5,3.8-1.6c0.8-1.1,1.3-2.6,1.3-4.7
				c0-2-0.4-3.6-1.2-4.6c-0.8-1.1-2.1-1.6-3.8-1.6c-1.7,0-3,0.5-3.8,1.6c-0.8,1.1-1.3,2.6-1.3,4.6C179.8,53.8,180.2,55.3,181.1,56.4
				 M191.2,56c-0.5,1.2-1.4,2.1-2.4,2.8c-1.1,0.7-2.4,1-3.9,1c-2.4,0-4.1-0.7-5.3-2.1c-1.2-1.4-1.8-3.4-1.8-5.9
				c0-2.5,0.6-4.4,1.8-5.8c1.2-1.4,3-2.1,5.4-2.1c1.5,0,2.8,0.3,3.9,1s1.9,1.6,2.4,2.8c0.5,1.2,0.8,2.6,0.8,4.2
				C192,53.4,191.8,54.8,191.2,56"/>
			<path id="Fill-42" fill="#FFFFFF" d="M197.2,45.7v5.8h2.3c1.2,0,2.2-0.2,2.7-0.7c0.6-0.5,0.9-1.2,0.9-2.2c0-1-0.3-1.7-0.9-2.1
				c-0.6-0.4-1.5-0.7-2.8-0.7H197.2z M203.8,45.1c0.9,0.7,1.4,1.8,1.4,3.3c0,2-1,3.4-3.1,4.1l4.2,6.9H204l-3.7-6.4h-3.1v6.4h-2V44
				h4.3C201.4,44,202.9,44.4,203.8,45.1L203.8,45.1z"/>
			<polygon id="Fill-44" fill="#FFFFFF" points="208.7,59.5 208.7,44 217.4,44 217.4,45.8 210.7,45.8 210.7,50.6 216.5,50.6 
				216.5,52.3 210.7,52.3 210.7,57.8 217.8,57.8 217.2,59.5 			"/>
			<polygon id="Fill-46" fill="#FFFFFF" points="220.4,44 222.4,44 222.4,57.8 229.5,57.8 228.9,59.5 220.4,59.5 			"/>
			<path id="Fill-48" fill="#FFFFFF" d="M234,56.4c0.8,1.1,2.1,1.6,3.8,1.6c1.7,0,3-0.5,3.8-1.6c0.8-1.1,1.3-2.6,1.3-4.7
				c0-2-0.4-3.6-1.2-4.6c-0.8-1.1-2.1-1.6-3.8-1.6c-1.7,0-3,0.5-3.8,1.6c-0.8,1.1-1.3,2.6-1.3,4.6C232.7,53.8,233.1,55.3,234,56.4
				 M244.1,56c-0.5,1.2-1.4,2.1-2.4,2.8c-1.1,0.7-2.4,1-3.9,1c-2.4,0-4.1-0.7-5.3-2.1c-1.2-1.4-1.8-3.4-1.8-5.9
				c0-2.5,0.6-4.4,1.8-5.8c1.2-1.4,3-2.1,5.4-2.1c1.5,0,2.8,0.3,3.9,1s1.9,1.6,2.4,2.8c0.5,1.2,0.8,2.6,0.8,4.2
				C244.9,53.4,244.6,54.8,244.1,56"/>
			<path id="Fill-50" fill="#FFFFFF" d="M255.3,58.6c-1,0.8-2.3,1.2-4,1.2c-0.9,0-1.7-0.1-2.4-0.2s-1.4-0.3-1.8-0.5l0.6-1.6
				c0.4,0.2,0.9,0.3,1.6,0.5c0.7,0.1,1.4,0.2,2.1,0.2c1.1,0,2-0.2,2.6-0.7c0.6-0.4,0.9-1.1,0.9-1.8c0-0.5-0.1-0.9-0.3-1.3
				c-0.2-0.3-0.6-0.7-1.1-1c-0.5-0.3-1.3-0.6-2.2-1c-1.4-0.5-2.4-1.1-3-1.8c-0.6-0.7-1-1.6-1-2.8c0-1.2,0.5-2.2,1.4-2.9
				c0.9-0.7,2.1-1.1,3.6-1.1c1.5,0,3,0.3,4.3,0.9l-0.6,1.7c-1.3-0.5-2.5-0.8-3.7-0.8c-0.9,0-1.7,0.2-2.2,0.6c-0.5,0.4-0.8,1-0.8,1.6
				c0,0.5,0.1,1,0.3,1.3c0.2,0.3,0.6,0.7,1,0.9c0.5,0.3,1.2,0.6,2,0.9c1,0.4,1.8,0.7,2.4,1.1c0.6,0.4,1.1,0.8,1.4,1.4
				c0.3,0.5,0.5,1.2,0.5,2C256.8,56.8,256.3,57.8,255.3,58.6"/>
			<path id="Fill-53" fill="#FFFFFF" d="M40.1,43.6L40.1,43.6c-0.9-2.8-1-6.2,1.6-9.8c2.1-2.9,4.2-5.4,3.8-10c0,0,0-0.5,0.4-0.7
				c0.5-0.2,0.9,0.2,0.9,0.3c2.3,3.9,2.9,8.1,1.6,11.5c-1.6,4.4-5.2,5.6-7.1,9c-0.1,0.2-0.4,0.4-0.6,0.3
				C40.5,44.1,40.2,43.9,40.1,43.6"/>
			<path id="Fill-55" fill="#FFFFFF" d="M27.6,45.8c-7.6-2.9-14-13-5.9-23.7c7-9.4,12.1-14.8,10.4-21.2c0-0.1-0.1-0.6,0.3-0.8
				c0.6-0.3,1,0.3,1,0.3c4.1,6.8,0.4,14.9-5.6,24.1c-3.4,5.2-5.3,13.5,0.6,20.1c0.3,0.3,0.3,0.7,0.1,1C28.4,45.8,28.1,46,27.6,45.8"
				/>
			<path id="Fill-57" fill="#FFFFFF" d="M5.5,51.3c1-0.2,4.8-0.9,12.5-3c4.9-1.3,10.4-0.4,12.7,1.9c2,2.1,2.8,4.6,2.9,5
				c0.2,0.6,0.5,2,0.5,2s0.8-2.2,1.1-2.6c0.2-0.3,1.2-0.3,2-2.4c0.6-1.5,0-3.7-2.7-5.6c-6-4.2-6.7-14.3-1.5-21.9
				c4.8-7.1,6.5-11.7,5.9-15.4c0-0.1-0.1-0.6,0.4-0.8C39.6,8.3,40,8.7,40,8.7c6.2,8.2,1.2,16.3-1.7,20.6c-2.9,4.2-3.8,7.8-2.9,11.9
				c0.2,0.9,0.3,2.2,1.1,3.6c0.7,1.1,1.9,4.2,3.8,3.5c3-1.1,5.9-0.4,10.9,0.7c7,1.5,10.4,2.1,11.3,2.3c0.3,0.1,0.5,0.3,0.5,0.4
				c0,0,5.1,7,5.1,7s0.3,0.3,0.1,0.7c-0.1,0.2-0.3,0.5-0.8,0.4c-4.2-0.8-14.8-2.8-19.2-3.4c-5.7-0.8-11-0.1-13.5,2.8
				c-0.1,0.1-0.3,0.3-0.6,0.3c-0.3,0-0.5-0.2-0.6-0.3c-2.4-2.9-7.7-3.7-13.1-2.9C16.1,56.9,5.3,58.9,1,59.7
				c-0.5,0.1-0.8-0.2-0.9-0.5c-0.1-0.3,0.1-0.6,0.1-0.6L5,51.5C5,51.5,5.2,51.4,5.5,51.3"/>
		</g>
	</g>
</g>
</svg>
